<svg xmlns="http://www.w3.org/2000/svg" xmlns:xlink="http://www.w3.org/1999/xlink" width="240" zoomAndPan="magnify" viewBox="0 0 180 174.749997" height="233" preserveAspectRatio="xMidYMid meet" version="1.2"><defs><clipPath id="cb608e68b4"><path d="M 0.128906 4 L 179.871094 4 L 179.871094 170.730469 L 0.128906 170.730469 Z M 0.128906 4 "/></clipPath></defs><g id="a50364b11d"><g clip-rule="nonzero" clip-path="url(#cb608e68b4)"><path style=" stroke:none;fill-rule:nonzero;fill:#fffafa;fill-opacity:1;" d="M 166.171875 93.261719 C 166.15625 112.546875 166.101562 131.804688 166.070312 151.085938 C 166.136719 151.757812 166.039062 152.882812 167.015625 152.746094 C 168.160156 152.648438 168.746094 153.257812 169.046875 154.277344 C 170.125 157.90625 171.5625 161.398438 173.226562 164.796875 C 173.535156 166 177.09375 170.289062 174.4375 170.011719 C 173.203125 169.707031 172.777344 170.730469 172.21875 169.214844 C 170.105469 165.066406 167.496094 161.199219 164.933594 157.320312 C 158.167969 156.386719 150.855469 157.242188 143.917969 156.925781 C 99.785156 156.777344 55.65625 156.632812 11.527344 156.445312 C 10.320312 156.441406 9.6875 156.777344 9.144531 157.871094 C 7.796875 160.894531 5.6875 163.621094 4.605469 166.734375 C 4.507812 168.484375 2.625 168.894531 1.171875 168.863281 C 0.238281 168.839844 0.132812 168.546875 0.550781 167.738281 C 2.691406 163.601562 4.8125 159.457031 6.941406 155.3125 C 7.820312 153.433594 8.449219 152.921875 10.585938 153.15625 C 10.585938 139.023438 10.585938 124.960938 10.585938 110.921875 C 8.785156 110.5 5.742188 110.558594 6.265625 107.886719 C 6.625 101.496094 6.914062 95.101562 7.308594 88.714844 C 7.734375 81.859375 8.171875 75 8.769531 68.160156 C 9.460938 62.90625 10.769531 57.691406 10.910156 52.359375 C 10.441406 49.371094 10.203125 46.296875 10.308594 43.242188 C 10.414062 37.210938 10.175781 31.160156 10.597656 25.144531 C 9.097656 25.597656 4.988281 28.617188 3.953125 26.84375 C 3.558594 26.152344 3.949219 25.699219 4.414062 25.363281 C 5.808594 24.386719 7.207031 23.386719 8.660156 22.5 C 9.484375 22.054688 10.644531 21.800781 11.035156 21.109375 C 11.578125 16.921875 11.136719 12.261719 11.363281 7.960938 C 9.632812 7.300781 9.359375 9.179688 8.03125 9.707031 C 6 10.261719 5.890625 6.300781 6.625 5.164062 C 7.214844 3.71875 8.625 4.226562 9.484375 5.132812 C 9.882812 6.117188 10.683594 5.917969 11.472656 5.933594 C 13.914062 5.984375 16.351562 6.089844 18.792969 6.183594 C 19.410156 6.207031 19.894531 6.128906 20.378906 5.585938 C 21.460938 4.367188 23.109375 4.570312 23.972656 5.855469 C 24.121094 6.074219 24.558594 6.195312 24.863281 6.199219 C 29.554688 6.242188 34.246094 6.261719 38.9375 6.28125 C 42.886719 6.296875 46.832031 6.300781 50.777344 6.324219 C 51.269531 6.328125 51.613281 6.257812 51.9375 5.785156 C 52.664062 4.714844 54.433594 4.832031 55.59375 5.90625 C 55.839844 6.132812 56.234375 6.324219 56.5625 6.324219 C 66.855469 6.398438 77.152344 6.441406 87.445312 6.503906 C 87.9375 6.507812 88.214844 6.394531 88.460938 5.917969 C 88.984375 4.902344 90.75 4.09375 91.863281 4.289062 C 93.597656 4.476562 93.046875 6.574219 94.351562 6.53125 C 104.0625 6.113281 114.488281 7.523438 123.859375 6.152344 C 124.78125 4.605469 127.585938 4.550781 128.492188 6.125 C 128.753906 6.582031 129.054688 6.699219 129.542969 6.699219 C 138.054688 6.339844 147.054688 7.5625 155.335938 6.371094 C 156.664062 4.996094 158.875 4.984375 160.230469 6.359375 C 160.441406 6.574219 160.757812 6.808594 161.035156 6.820312 C 163.015625 6.910156 164.996094 6.941406 166.976562 7.003906 C 169.050781 6.835938 167.769531 4.40625 171.132812 5.035156 C 173.191406 5.710938 172.648438 9.078125 171.214844 10.308594 C 170.15625 11.421875 167.960938 10.484375 167.65625 8.921875 C 167.210938 8.96875 166.78125 9.015625 166.3125 9.066406 C 166.3125 13.179688 166.3125 17.242188 166.3125 21.203125 C 167.464844 21.734375 168.882812 21.890625 169.792969 22.707031 C 170.28125 23.710938 171.253906 23.84375 172.140625 23.96875 C 173.425781 24.148438 174.046875 24.859375 174.453125 26.023438 C 176.609375 33.644531 175.8125 41.714844 176.699219 49.527344 C 177.292969 56.75 178.339844 63.929688 179.421875 71.097656 C 179.816406 75.425781 174.597656 74.183594 172.164062 75.894531 C 171.113281 74.980469 170.703125 70.738281 171.605469 68.605469 C 171.738281 68.933594 171.835938 69.164062 171.925781 69.382812 C 173.039062 67.589844 173.230469 65.976562 172.582031 63.507812 C 172.582031 65.730469 172.996094 68.300781 170.375 69.007812 C 169.601562 69.269531 169.304688 69.628906 169.335938 70.464844 C 169.519531 75.398438 169.671875 80.332031 169.792969 85.269531 C 169.65625 88.503906 170.765625 92.683594 166.171875 93.261719 Z M 111.84375 33.585938 C 111.808594 30.253906 112.367188 30.433594 115.128906 28.960938 C 111.515625 27.015625 112.242188 24.695312 114.507812 22.246094 C 114.425781 22.214844 114.339844 22.183594 114.253906 22.152344 C 112.75 22.835938 111.246094 23.515625 109.796875 24.175781 C 113.871094 36.527344 112.113281 49.425781 111.230469 62.078125 C 119.085938 62.378906 116.972656 60.730469 117.179688 65.277344 C 117.632812 66.636719 116.144531 66.417969 115.359375 66.53125 C 113.882812 66.625 112.410156 66.710938 110.90625 66.800781 C 110.582031 70.46875 110.261719 74.125 109.9375 77.777344 C 110.019531 79.898438 109.292969 78.992188 109.144531 79.929688 C 109.359375 81.507812 108.234375 84.058594 110.175781 84.78125 C 113.433594 85.878906 116.386719 87.785156 119.945312 87.875 C 120.746094 81.84375 121.046875 75.617188 120.375 69.585938 C 116.511719 57.84375 114.972656 45.441406 111.84375 33.585938 Z M 12.941406 153.171875 C 63.011719 153.230469 113.183594 153.191406 163.148438 153.304688 C 163.308594 133.144531 163.46875 113.175781 163.628906 93.207031 C 158.476562 90.582031 155.691406 95.683594 151.40625 92.890625 C 150.5 92.253906 149.519531 91.917969 148.382812 91.972656 C 146.871094 92.011719 144.652344 91.851562 144.871094 89.820312 C 145.011719 86.089844 144.980469 82.523438 144.976562 78.71875 C 143.347656 79.070312 141.722656 79.417969 140.03125 79.78125 C 140.777344 83.378906 140.644531 83.125 139.648438 86.453125 C 139.605469 89.515625 142 94.808594 139.039062 96.820312 C 138.054688 98.664062 136.191406 99.007812 134.421875 99.445312 C 132.242188 99.996094 130.375 97.597656 128.1875 98.523438 C 124.550781 100.035156 124.457031 95.929688 120.828125 98.132812 C 117.375 99.574219 115.933594 95.015625 112.128906 94.933594 C 111.507812 94.867188 111.285156 94.347656 111.34375 93.683594 C 111.503906 91.84375 111.644531 90 111.726562 88.152344 C 112.371094 84.644531 108.101562 86.570312 108.371094 83.035156 C 108.511719 78.199219 109.628906 79.558594 105.96875 78.242188 C 109.820312 94.761719 111.410156 111.976562 118.0625 127.703125 C 119.785156 131.359375 117.675781 134.125 114.027344 135.28125 C 112.722656 136.359375 111.054688 136.253906 109.523438 136.734375 C 107.683594 137.644531 105.808594 136.261719 104.003906 135.847656 C 102.207031 135.570312 104.535156 138.085938 101.167969 139.441406 C 94.6875 141.996094 92.761719 135.59375 90.785156 136.945312 C 88.402344 138.289062 88.441406 140.945312 84.988281 140.375 C 80.851562 140.855469 78.199219 136.796875 74.1875 137.886719 C 72.472656 138.421875 70.773438 138.882812 68.996094 138.035156 C 67.84375 138.269531 68.28125 136.3125 68.015625 135.660156 C 66.785156 135.886719 65.664062 136.125 64.527344 136.296875 C 63.8125 136.40625 62.9375 135.914062 62.488281 136.90625 C 60.882812 137.445312 56.910156 137.652344 56.308594 135.640625 C 56.265625 129.226562 55.828125 122.875 54.734375 116.550781 C 54.53125 114.609375 54.71875 112.621094 54.476562 110.6875 C 52.894531 99.851562 53.628906 88.816406 52.457031 77.960938 C 52.742188 94.796875 53.054688 111.636719 54.925781 128.386719 C 55.085938 130.445312 55.15625 132.519531 55.101562 134.582031 C 55.054688 136.359375 54.53125 136.722656 52.808594 136.460938 C 50.378906 136.09375 47.957031 135.695312 45.539062 135.269531 C 44.945312 135.164062 44.417969 134.792969 44.371094 134.117188 C 43.347656 115.519531 41.894531 96.941406 40.21875 78.394531 C 40.042969 74.570312 39.957031 70.726562 41.007812 66.972656 C 39.953125 60.8125 41.066406 54.359375 40.878906 48.097656 C 39.148438 47.78125 37.550781 47.476562 35.949219 47.203125 C 35.15625 47.070312 34.777344 46.675781 34.898438 45.847656 C 35.777344 39.660156 36.636719 33.464844 37.691406 27.304688 C 37.78125 27.316406 37.867188 27.332031 37.957031 27.34375 C 38.625 32.4375 36.359375 37.203125 36.144531 42.222656 C 37.929688 43.082031 40.152344 42.398438 41.863281 44.125 C 41.9375 38.253906 41.46875 32.476562 40.382812 26.714844 C 40.304688 26.710938 40.222656 26.710938 40.144531 26.710938 C 39.640625 27.683594 38.785156 27.335938 38.171875 27.105469 C 35.742188 26.148438 33.265625 25.140625 30.921875 24.003906 C 31.082031 26.796875 30.53125 29.578125 31.261719 32.226562 C 34.226562 38.777344 30.472656 45.46875 31.265625 52.226562 C 31.828125 65.910156 35.035156 79.417969 34.726562 93.175781 C 34.617188 97.863281 34.640625 102.558594 34.636719 107.25 C 34.636719 108.664062 33.832031 109.5 32.65625 109.890625 C 23.433594 113.285156 21.136719 110.113281 13.222656 110.664062 C 13.128906 124.851562 13.035156 138.964844 12.941406 153.171875 Z M 63.226562 114.800781 C 63.265625 114.808594 63.304688 114.8125 63.34375 114.820312 C 68.996094 94.554688 72.160156 73.472656 79.828125 53.820312 C 80.5 52.402344 80.675781 51.011719 80.378906 49.503906 C 79.941406 44.6875 75.867188 36.59375 81.347656 33.574219 C 80.671875 30.519531 80.007812 27.519531 79.332031 24.460938 C 77.023438 25.515625 75.113281 27.402344 72.601562 27.972656 C 72.347656 28.019531 71.9375 27.6875 71.730469 27.425781 C 71.121094 26.535156 72.59375 25.941406 73.160156 25.492188 C 75.035156 24.4375 76.933594 23.429688 78.800781 22.367188 C 79.65625 21.570312 80.039062 20.953125 81.335938 21.082031 C 83.855469 19.941406 86.140625 18.503906 87.605469 16.046875 C 88.085938 15.40625 88.664062 15.179688 89.417969 14.546875 C 89.058594 12.699219 88.65625 10.632812 88.238281 8.472656 C 76.578125 8.472656 64.992188 8.472656 53.480469 8.472656 C 53.976562 10.238281 54.453125 11.960938 54.957031 13.671875 C 55.417969 14.28125 56.183594 14.714844 56.671875 15.324219 C 58.878906 17.96875 61.007812 20.898438 64.351562 22.195312 C 65.542969 22.582031 66.632812 23.410156 67.835938 23.582031 C 69.046875 23.753906 69.691406 24.390625 70.179688 25.273438 C 70.667969 26.152344 71.1875 27.109375 71.300781 28.078125 C 71.929688 32.832031 71.898438 37.695312 72.851562 42.402344 C 73.804688 46.019531 69.304688 46.144531 66.949219 47.0625 C 66.488281 47.199219 66.398438 47.457031 66.429688 47.921875 C 66.515625 54.246094 68.285156 60.820312 66.191406 66.96875 C 65.808594 67.953125 65.53125 69.050781 65.53125 70.097656 C 66.257812 85.015625 64.046875 99.914062 63.226562 114.800781 Z M 39.664062 24.492188 C 42.574219 27.519531 43.265625 43.007812 41.996094 47.144531 C 40.9375 52.992188 41.71875 59.035156 41.335938 64.957031 C 41.324219 65.613281 41.515625 65.917969 42.199219 65.941406 C 48.902344 66.453125 55.582031 65.746094 62.296875 66.027344 C 67.039062 66.40625 66.378906 60.996094 66.195312 57.75 C 66.492188 49.507812 63.765625 41.234375 66.078125 33.097656 C 66.851562 30.515625 67.265625 27.84375 67.691406 25.183594 C 67.566406 24.035156 65.714844 24.066406 64.855469 23.570312 C 63.488281 29.835938 60.769531 36.058594 55.503906 39.867188 C 53.785156 41.050781 52.582031 41.277344 50.710938 39.472656 C 46.179688 35.171875 45.296875 28.671875 43.425781 23.003906 C 42.296875 23.449219 41.007812 23.960938 39.664062 24.492188 Z M 146.367188 69.636719 C 146.738281 71.644531 147.058594 73.425781 147.402344 75.203125 C 147.695312 76.714844 147.441406 77.417969 146.132812 78.183594 C 145.652344 78.464844 145.542969 78.78125 145.546875 79.304688 C 145.558594 82.257812 145.511719 85.207031 145.523438 88.160156 C 144.710938 93.15625 148.539062 89.863281 151.488281 91.96875 C 155.359375 94.792969 158.117188 90.308594 162.609375 91.957031 C 163.542969 92.046875 164.539062 91.921875 165.613281 92.332031 C 169.945312 93.039062 168.972656 87.503906 169.019531 84.785156 C 168.992188 79.878906 168.441406 74.773438 168.769531 69.910156 C 167.074219 69.910156 165.453125 69.929688 163.832031 69.902344 C 162.125 69.878906 161.566406 69.238281 161.347656 67.757812 C 159.4375 53.523438 158.816406 38.207031 164.136719 24.628906 C 159.175781 27.695312 154.535156 26.90625 150.113281 23.605469 C 152.527344 28.316406 155.441406 32.929688 155.167969 38.453125 C 155.085938 42.503906 155.46875 46.558594 155.632812 50.601562 C 155.664062 55.867188 155.40625 61.128906 154.605469 66.339844 C 154.175781 69.910156 149.34375 70.457031 146.367188 69.636719 Z M 120.675781 19.640625 C 121.972656 18.554688 122.980469 17.375 123.652344 15.925781 C 124.007812 15.164062 124.371094 14.425781 125.402344 14.3125 C 125.007812 12.691406 124.277344 11.296875 123.890625 9.699219 C 123.710938 8.933594 123.445312 8.667969 122.648438 8.664062 C 111.816406 8.683594 101.007812 8.503906 90.171875 8.582031 C 90.660156 10.765625 91.121094 12.820312 91.585938 14.910156 C 92.628906 14.804688 93.265625 15.414062 93.707031 16.210938 C 95.046875 18.632812 97.375 19.953125 99.4375 21.570312 C 100.058594 20.90625 100.589844 20.96875 100.746094 21.777344 C 100.898438 22.585938 101.390625 22.941406 102.027344 23.242188 C 104.207031 24.273438 106.390625 25.304688 108.621094 26.363281 C 108.910156 25.476562 108.910156 24.433594 109.601562 23.828125 C 111.34375 22.84375 113.167969 21.996094 114.988281 21.164062 C 116.453125 20.464844 117.910156 19.742188 119.378906 19.054688 C 119.949219 18.789062 120.507812 18.6875 120.675781 19.640625 Z M 131.964844 65.632812 C 131.902344 65.628906 131.835938 65.621094 131.769531 65.617188 C 132.230469 57.121094 134.289062 48.820312 136.714844 40.695312 C 137.566406 37.925781 138.492188 35.1875 138.242188 32.210938 C 138.214844 28.84375 133.746094 30.058594 134.964844 28.429688 C 135.574219 27.421875 138.371094 24.566406 137.449219 23.566406 C 135.414062 21.871094 133.433594 20.070312 130.898438 19.164062 C 130.828125 19.257812 130.761719 19.351562 130.691406 19.445312 C 132.171875 20.640625 132.867188 20.921875 132.648438 22.976562 C 133.464844 39.640625 131.488281 56.390625 130.984375 73.0625 C 130.863281 78.40625 129.753906 83.675781 130.445312 89.019531 C 133.074219 87.910156 135.441406 86.496094 137.949219 85.171875 C 140.238281 84.160156 139.539062 81.742188 139.308594 79.703125 C 136.640625 79.109375 137.558594 75.761719 137.355469 73.757812 C 137.441406 70.164062 137.449219 66.652344 137.6875 63.050781 C 136.609375 63.050781 135.640625 63.050781 134.6875 63.050781 C 134.195312 65.101562 135.46875 65.914062 137.277344 66.445312 C 134.992188 66.976562 133.558594 65.144531 134.265625 62.578125 C 135.355469 62.53125 136.472656 62.480469 137.582031 62.429688 C 137.929688 60.230469 137.347656 44.257812 136.722656 42.71875 C 134.707031 50.464844 133.179688 57.824219 131.964844 65.632812 Z M 24.667969 8.527344 C 24.246094 8.191406 22.421875 8.03125 20.855469 8.320312 C 21.351562 10.207031 22.464844 12.027344 23.902344 13.457031 C 26.484375 16.363281 28.6875 19.753906 32.449219 21.300781 C 34.214844 22.082031 35.976562 22.871094 37.6875 23.753906 C 38.523438 24.1875 39.1875 24.351562 39.964844 23.683594 C 45.691406 21.757812 48.445312 18.953125 52.308594 14.550781 C 53.128906 14.113281 53.078125 13.523438 52.839844 12.816406 C 52.351562 11.355469 51.867188 9.894531 51.351562 8.332031 C 42.476562 8.5625 33.46875 7.769531 24.667969 8.527344 Z M 154.867188 8.824219 C 144.917969 8.824219 135.121094 8.824219 125.292969 8.824219 C 125.589844 10.605469 126.355469 12.34375 126.832031 14.101562 C 126.859375 14.1875 126.988281 14.238281 127.058594 14.316406 C 128.289062 15.3125 128.9375 16.707031 129.710938 18.042969 C 129.839844 18.257812 130.074219 18.496094 130.300781 18.546875 C 133.496094 19.261719 136.011719 21.0625 138.203125 23.402344 C 139.238281 24.167969 140.757812 24.394531 141.8125 24.886719 C 142.570312 24.503906 143.378906 24.253906 143.992188 23.757812 C 147.695312 21.171875 151.894531 21.289062 154.578125 16.867188 C 154.933594 15.632812 155.472656 15.257812 156.664062 14.660156 C 156.277344 12.605469 154.585938 11.160156 154.867188 8.824219 Z M 137.847656 74.339844 C 139.476562 73.917969 141.042969 73.53125 142.601562 73.109375 C 143.808594 72.632812 146.242188 72.671875 145.8125 70.78125 C 142.832031 57.378906 144.179688 43.515625 142.894531 29.917969 C 142.789062 28.398438 142.464844 26.929688 141.25 25.648438 C 140.660156 27.007812 140.105469 28.296875 139.546875 29.582031 C 139.46875 29.550781 139.390625 29.515625 139.308594 29.484375 C 139.847656 28.011719 140.390625 26.535156 140.921875 25.078125 C 140.160156 24.769531 139.351562 24.4375 138.753906 24.191406 C 137.734375 25.730469 136.785156 27.15625 135.78125 28.671875 C 136.9375 29.347656 138.730469 29.6875 138.867188 31.339844 C 139.304688 34.664062 138.480469 37.835938 137.398438 40.96875 C 137.332031 46.164062 138.378906 51.402344 138.316406 56.613281 C 138.472656 62.5 137.765625 68.464844 137.847656 74.339844 Z M 90.304688 18.425781 C 87.445312 20.101562 84.671875 21.726562 81.867188 23.367188 C 84.398438 36.679688 80.792969 30.902344 90.292969 38.480469 C 98.679688 29.660156 95.503906 39.394531 98.089844 24.269531 C 98.1875 23.699219 98.0625 23.453125 97.570312 23.171875 C 95.042969 21.71875 92.363281 20.496094 90.304688 18.425781 Z M 109.425781 73.78125 C 110.355469 57.617188 114.097656 40.875 109.695312 24.957031 C 109.332031 25.734375 108.683594 26.445312 109.589844 27.234375 C 109.921875 27.609375 110.050781 28.613281 109.605469 29.003906 C 109.117188 29.046875 108.683594 28.617188 108.164062 28.289062 C 107.195312 41.941406 105.964844 55.308594 103.996094 68.820312 C 103.425781 72.25 106.894531 72.921875 109.425781 73.78125 Z M 103.339844 67.25 C 103.394531 67.25 103.453125 67.253906 103.507812 67.257812 C 105.449219 54.261719 106.136719 41.15625 107.898438 28.148438 C 105.625 27.058594 103.371094 25.972656 101.160156 24.910156 C 100.335938 27.878906 99.535156 30.757812 98.726562 33.671875 C 99.914062 33.875 101.101562 34.328125 101.203125 35.667969 C 102.417969 40.851562 98.839844 45.519531 98.445312 50.46875 C 101.117188 55.703125 101.816406 61.628906 103.339844 67.25 Z M 13.242188 24.074219 C 14.246094 30.371094 18.621094 35.203125 22.660156 39.949219 C 24.175781 36.746094 25.921875 33.730469 27.894531 30.789062 C 29.234375 28.859375 29.667969 26.625 29.625 24.304688 C 29.71875 23.496094 29.46875 23.035156 28.703125 22.730469 C 18.359375 17.214844 25.699219 15.125 13.242188 24.074219 Z M 120.292969 66.46875 C 120.363281 66.464844 120.433594 66.457031 120.503906 66.453125 C 120.261719 55.398438 119.859375 44.34375 119.363281 33.296875 C 119.132812 28.664062 118.980469 24.101562 119.917969 19.511719 C 116.125 21.140625 115.910156 20.914062 113.667969 24.480469 C 112.078125 26.804688 114.984375 27.507812 115.867188 29.234375 C 113.636719 30.699219 111.945312 30.515625 112.839844 33.679688 C 115.636719 44.539062 117.023438 55.714844 120.292969 66.46875 Z M 26.164062 50.050781 C 22.59375 46.457031 18.640625 42.609375 16.378906 37.898438 C 20.363281 42.6875 24.488281 47.308594 29.660156 50.90625 C 29.648438 50.644531 29.558594 50.429688 29.398438 50.296875 C 25.832031 47.703125 23.007812 44.195312 20.625 40.496094 C 19.296875 38.34375 18.019531 36.152344 16.589844 34.066406 C 13.960938 30.644531 12.925781 26.546875 12.25 22.359375 C 12.1875 22.332031 12.125 22.300781 12.0625 22.273438 C 11.503906 23.347656 11.890625 24.578125 11.808594 25.734375 C 11.785156 29.183594 11.777344 32.628906 11.703125 36.074219 C 11.539062 38.734375 10.59375 49.738281 12.679688 51.144531 C 14.207031 51.617188 15.765625 51.984375 17.296875 52.445312 C 18.230469 52.917969 30.78125 55.089844 29.304688 53.0625 C 27.199219 53.523438 24.859375 52.890625 23.089844 51.691406 C 18.609375 48.140625 14.132812 44.007812 11.757812 38.703125 C 11.839844 38.664062 11.921875 38.628906 12.003906 38.589844 C 15.859375 43.597656 20.28125 47.894531 26.164062 50.050781 Z M 75.523438 121.292969 C 75.425781 121.261719 75.328125 121.226562 75.230469 121.191406 C 77.539062 110.726562 80.324219 100.363281 80.402344 89.582031 C 80.792969 77.914062 83.160156 66.546875 85.132812 55.097656 C 81.511719 67.355469 80.257812 80.035156 79.554688 92.742188 C 77.894531 107.902344 74.761719 122.914062 69.738281 137.316406 C 71.625 138.484375 72.625 137.175781 72.890625 135.3125 C 75.605469 123.628906 79.324219 112.1875 81.011719 100.273438 C 83.402344 85.652344 84.214844 70.847656 85.609375 56.125 C 83.832031 66.316406 81.804688 76.417969 81.363281 86.777344 C 80.898438 98.5 79.261719 110.140625 75.523438 121.292969 Z M 92.738281 55.035156 C 92.667969 55.042969 92.597656 55.050781 92.527344 55.058594 C 94.1875 81.507812 94.898438 108.09375 99.175781 134.296875 C 99.414062 135.78125 99.890625 137.234375 100.8125 138.472656 C 102.660156 137.933594 102.324219 136.363281 102.078125 134.925781 C 97.601562 108.453125 94.980469 81.765625 92.738281 55.035156 Z M 62.808594 23.757812 C 60.097656 22.394531 57.523438 20.96875 55.332031 18.847656 C 54.410156 17.949219 54.019531 17.9375 53.144531 18.855469 C 50.949219 21.296875 48.140625 22.59375 45.132812 23.820312 C 45.894531 25.171875 46.324219 28 47.71875 28.59375 C 50.511719 29.046875 53.3125 29.476562 56.125 29.789062 C 61.792969 30.097656 61.273438 28.382812 62.808594 23.757812 Z M 111.800781 135.367188 C 102.140625 108.625 103.226562 79.386719 94.757812 52.398438 C 94.675781 52.425781 94.59375 52.453125 94.507812 52.480469 C 97.503906 67.773438 99.703125 83.292969 102.292969 98.6875 C 104.511719 111.089844 105.210938 123.898438 109.96875 135.703125 C 110.574219 135.589844 111.269531 135.464844 111.800781 135.367188 Z M 89.300781 56.558594 C 89.238281 56.5625 89.175781 56.566406 89.113281 56.570312 C 89.425781 83.386719 87.492188 110.351562 88.777344 137.089844 C 88.902344 137.117188 89.027344 137.140625 89.148438 137.167969 C 90.105469 135.726562 90.039062 134.054688 90.0625 132.394531 C 89.957031 107.117188 90.28125 81.820312 89.300781 56.558594 Z M 65.710938 135.152344 C 65.800781 135.21875 65.890625 135.28125 65.980469 135.34375 C 66.71875 135.089844 67.804688 135.160156 68.191406 134.355469 C 76.574219 114.714844 77.847656 93.226562 79.273438 72.191406 C 76.125 87.265625 75.386719 102.699219 72.304688 117.785156 C 72.195312 118.859375 71.46875 118.222656 71.363281 119.535156 C 70.308594 125.054688 67.53125 129.910156 65.710938 135.152344 Z M 29.828125 49.265625 C 29.933594 49.238281 30.039062 49.210938 30.144531 49.183594 C 30.792969 42.742188 30.539062 36.339844 29.210938 29.875 C 22.484375 43.183594 20.308594 37.558594 29.828125 49.265625 Z M 47.296875 29.160156 C 48.238281 30.816406 51.824219 39.914062 53.910156 37.953125 C 56.546875 35.675781 59 33.230469 60.566406 30.066406 C 57.785156 31.253906 51.21875 30.402344 47.296875 29.160156 Z M 66.3125 43.851562 C 67.777344 43.375 69.203125 42.914062 70.539062 42.480469 C 70.648438 36.496094 70.980469 30.574219 68.332031 25.0625 C 68.011719 26.464844 68.269531 27.941406 67.878906 29.3125 C 67.171875 31.828125 66.34375 34.3125 66.316406 36.960938 C 66.292969 39.269531 66.3125 41.574219 66.3125 43.851562 Z M 157.328125 17.734375 C 156.21875 20.988281 153.335938 21.792969 150.457031 23.273438 C 155.011719 26.226562 161.742188 27.191406 165.238281 22.363281 C 161.1875 21.585938 159.914062 20.832031 157.328125 17.734375 Z M 14.164062 19.496094 C 16.34375 18.140625 18.226562 16.636719 19.535156 14.605469 C 20.09375 13.738281 20.515625 12.9375 21.808594 12.8125 C 20.550781 11.390625 19.535156 10.054688 19.492188 8.230469 C 17.644531 8.230469 15.894531 8.230469 14.164062 8.230469 C 14.164062 11.976562 14.164062 15.679688 14.164062 19.496094 Z M 164.003906 8.929688 C 161.558594 8.929688 159.125 8.929688 156.523438 8.929688 C 156.667969 9.6875 156.582031 10.53125 156.960938 10.984375 C 158.113281 12.355469 158.5 14.277344 160.097656 15.316406 C 161.027344 17.140625 161.976562 18.566406 164.003906 19.539062 C 164.003906 15.886719 164.003906 12.449219 164.003906 8.929688 Z M 146.015625 72.21875 C 144.414062 74.214844 138.671875 73.605469 137.949219 75.707031 C 138.175781 76.75 137.972656 79.015625 139.535156 78.863281 C 141.457031 78.542969 143.375 78.207031 145.289062 77.835938 C 148.070312 76.988281 146.566406 74.226562 146.015625 72.21875 Z M 99.371094 23.433594 C 99.636719 22.601562 99.464844 22.125 98.824219 21.699219 C 97.769531 21 96.699219 20.285156 95.804688 19.402344 C 94.546875 18.511719 93.070312 15.027344 91.550781 15.460938 C 90.839844 15.613281 90.070312 15.441406 89.328125 15.480469 C 89.0625 15.492188 88.75 15.652344 88.5625 15.847656 C 87.40625 17.046875 86.375 18.386719 85.109375 19.453125 C 84.140625 20.273438 82.917969 20.824219 81.75 21.375 C 80.976562 21.742188 80.742188 22.210938 81.011719 23.089844 C 82.605469 22.382812 84.140625 21.625 85.492188 20.523438 C 91.949219 14.976562 87.957031 17.824219 99.371094 23.433594 Z M 62.988281 22.9375 C 63.058594 22.847656 63.128906 22.761719 63.199219 22.671875 C 60.320312 20.769531 57.625 18.496094 55.839844 15.433594 C 55.640625 15.078125 55.070312 14.816406 54.628906 14.730469 C 52.003906 14.304688 51.015625 17.695312 49.148438 18.964844 C 47.785156 20.191406 46.277344 21.257812 44.738281 22.46875 C 44.800781 22.644531 44.910156 22.957031 45.023438 23.273438 C 51.496094 21.289062 53.082031 15.859375 55.660156 18.117188 C 58.039062 19.808594 60.347656 21.667969 62.988281 22.9375 Z M 13.410156 23.042969 C 14.933594 22.179688 21.691406 15.386719 22.808594 17.53125 C 24.648438 19.558594 27.03125 21.226562 29.546875 22.359375 C 30.605469 20.425781 25.914062 20.371094 23.460938 14.964844 C 23.21875 14.625 20.246094 14.730469 20.035156 15.09375 C 18.863281 17.097656 17.191406 18.59375 15.253906 19.804688 C 14.074219 20.542969 13.609375 21.675781 13.410156 23.042969 Z M 121.234375 22.484375 C 122.609375 24.984375 128.746094 25.808594 130.558594 23.25 C 124.664062 19.269531 127.089844 18.363281 121.234375 22.484375 Z M 131.746094 22.179688 C 129.667969 20.492188 128.359375 18.257812 127.050781 16.027344 C 126.429688 14.765625 124.710938 14.726562 124.367188 16.167969 C 123.558594 17.90625 122.40625 19.339844 120.796875 20.414062 C 120.480469 20.628906 120.347656 21.117188 120.128906 21.476562 C 120.207031 21.574219 120.289062 21.667969 120.367188 21.761719 C 121.8125 21.410156 122.96875 20.628906 124.042969 19.625 C 126.980469 17.375 128.683594 22.691406 131.746094 22.179688 Z M 45.101562 26.25 C 46.355469 30.011719 48.046875 35.695312 51.460938 38.957031 C 52.785156 40.386719 53.449219 40.382812 55.082031 39.246094 C 59.980469 35.59375 62.597656 29.894531 63.996094 24.117188 C 63.910156 24.054688 63.820312 23.988281 63.730469 23.921875 C 63.554688 24.113281 63.296875 24.273438 63.21875 24.496094 C 62.582031 26.34375 62.125 28.269531 61.328125 30.042969 C 59.679688 33.726562 57.050781 36.632812 53.714844 38.890625 C 51.160156 41.628906 46.011719 27.546875 45.101562 26.25 Z M 120.179688 22.542969 C 118.320312 28.210938 134.042969 29.234375 132.035156 23.054688 C 127.882812 26.871094 123.964844 26.332031 120.179688 22.542969 Z M 116.582031 62.742188 C 114.792969 62.742188 113.015625 62.742188 111.148438 62.742188 C 111.082031 63.828125 111.011719 64.933594 110.9375 66.152344 C 112.886719 66.03125 114.707031 65.914062 116.582031 65.796875 C 116.582031 64.742188 116.582031 63.808594 116.582031 62.742188 Z M 109.066406 78.492188 C 109.480469 72.65625 109.914062 74.921875 104.765625 72.539062 C 105.753906 75.992188 104.558594 77.96875 109.066406 78.492188 Z M 29.523438 55.039062 C 29.503906 54.933594 29.484375 54.824219 29.464844 54.714844 C 23.425781 54.96875 17.617188 53.875 11.972656 51.8125 C 11.714844 52.914062 11.710938 52.929688 12.65625 53.332031 C 18.03125 54.992188 23.9375 56.003906 29.523438 55.039062 Z M 157.167969 15.882812 C 158.367188 20.441406 167.207031 23.292969 164.949219 21.085938 C 163.058594 19.726562 160.90625 18.65625 159.765625 16.457031 C 159.058594 15.96875 158.070312 16.113281 157.167969 15.882812 Z M 149.335938 22.195312 C 149.574219 23.644531 152.113281 21.519531 152.960938 21.378906 C 154.746094 20.597656 156.015625 19.265625 157.023438 17.644531 C 157.246094 16.898438 156.703125 16.417969 156.457031 15.488281 C 156.046875 15.90625 155.640625 16.171875 155.445312 16.546875 C 154.207031 19.234375 151.839844 20.765625 149.335938 22.195312 Z M 35.914062 43.394531 C 35.953125 44.488281 35.292969 45.804688 36.117188 46.351562 C 37.597656 46.648438 39.085938 46.914062 40.578125 47.132812 C 41.480469 47.121094 41.28125 45.847656 41.351562 45.34375 C 39.550781 44.699219 37.820312 44.078125 35.914062 43.394531 Z M 125.359375 97.78125 C 125.421875 97.765625 125.484375 97.753906 125.546875 97.738281 C 125.425781 90.292969 124.773438 82.839844 125.328125 75.390625 C 125.335938 75.167969 125.089844 74.9375 124.960938 74.710938 C 124.804688 74.902344 124.515625 75.085938 124.511719 75.277344 C 124.324219 82.773438 124.328125 90.371094 125.359375 97.78125 Z M 71.875 42.558594 C 71.136719 42.859375 70.464844 43.160156 69.769531 43.40625 C 68.304688 43.9375 65.113281 44.304688 66.425781 46.550781 C 67.851562 46.070312 69.257812 45.601562 70.660156 45.125 C 72.191406 44.605469 72.414062 44.125 71.875 42.558594 Z M 121.054688 87.753906 C 120.613281 88.308594 119.761719 88.148438 119.769531 89.003906 C 119.867188 91.871094 119.667969 94.792969 119.910156 97.628906 C 121.425781 97.679688 121.019531 96.5 121.054688 95.445312 C 121.054688 92.945312 121.054688 90.449219 121.054688 87.753906 Z M 136.445312 97.898438 C 137.277344 97.523438 137.328125 96.945312 137.226562 96.21875 C 137.011719 94.664062 136.875 93.101562 136.710938 91.539062 C 136.59375 90.417969 136.539062 89.285156 136.351562 88.175781 C 136.195312 87.257812 135.96875 87.199219 135.066406 87.5625 C 135.523438 91 135.984375 94.433594 136.445312 97.898438 Z M 48.800781 71.730469 C 49.378906 69.316406 45.863281 66.617188 43.015625 67.34375 C 44.699219 68.367188 46.894531 68.695312 47.78125 70.546875 C 46.214844 70.917969 44.617188 70.015625 43.097656 69.789062 C 44.113281 71.90625 46.777344 71.339844 48.800781 71.730469 Z M 127.285156 75.375 C 127.191406 75.375 127.09375 75.375 126.996094 75.375 C 126.558594 76.464844 127.496094 95.089844 128.164062 97.890625 C 128.972656 97.050781 128.320312 95.8125 128.386719 94.765625 C 127.992188 88.304688 127.125 81.855469 127.285156 75.375 Z M 39.417969 26.570312 C 39.457031 26.460938 39.5 26.351562 39.542969 26.242188 C 36.929688 24.238281 33.648438 23.457031 30.730469 21.988281 C 30.371094 23.277344 31.707031 23.484375 32.523438 24.015625 C 34.820312 24.820312 36.976562 26.371094 39.417969 26.570312 Z M 165.917969 26.84375 C 165.886719 26.855469 165.855469 26.867188 165.824219 26.882812 C 166.289062 28.546875 168.40625 30.214844 167.363281 31.96875 C 165.265625 35.667969 163.382812 39.476562 162.046875 43.527344 C 162.128906 43.570312 162.214844 43.613281 162.300781 43.65625 C 163.753906 40.65625 164.492188 37.324219 166.59375 34.597656 C 167.210938 33.6875 167.824219 32.761719 168.296875 31.773438 C 169.03125 29.859375 166.761719 28.375 165.917969 26.84375 Z M 11.210938 22.023438 C 9.070312 23.308594 7.042969 24.507812 5.035156 25.742188 C 4.804688 25.886719 4.6875 26.214844 4.519531 26.460938 C 6.113281 26.714844 8.320312 24.871094 9.988281 24.417969 C 11.109375 23.980469 11.148438 23.136719 11.210938 22.023438 Z M 97.140625 33.683594 C 97.222656 33.738281 97.304688 33.789062 97.390625 33.84375 C 97.542969 33.667969 97.800781 33.511719 97.835938 33.316406 C 98.375 30.425781 98.894531 27.527344 99.375 24.625 C 99.414062 24.375 99.136719 24.070312 99.003906 23.789062 C 98.878906 23.816406 98.753906 23.84375 98.628906 23.871094 C 98.132812 27.140625 97.636719 30.414062 97.140625 33.683594 Z M 128.140625 74.722656 C 128.03125 74.757812 127.917969 74.789062 127.808594 74.824219 C 128.226562 79.859375 127.4375 84.964844 128.761719 89.949219 C 128.496094 85.21875 128.648438 80.476562 128.59375 75.742188 C 128.589844 75.398438 128.296875 75.0625 128.140625 74.722656 Z M 79.335938 22.6875 C 77.355469 23.644531 75.578125 24.859375 73.679688 25.949219 C 73.148438 26.332031 72.417969 26.542969 72.175781 27.203125 C 73.179688 27.972656 77.324219 24.628906 78.710938 24.148438 C 79.371094 23.808594 79.480469 23.398438 79.335938 22.6875 Z M 123.726562 75.347656 C 123.65625 75.351562 123.589844 75.359375 123.519531 75.363281 C 123.628906 82.496094 123.738281 89.625 123.847656 96.855469 C 123.949219 96.894531 124.179688 96.988281 124.367188 97.0625 C 124.152344 89.777344 123.9375 82.5625 123.726562 75.347656 Z M 109.210938 28.082031 C 109.265625 28.046875 109.316406 28.015625 109.371094 27.980469 C 109.125 27.691406 108.941406 27.292969 108.628906 27.136719 C 106.148438 25.863281 103.640625 24.632812 101.117188 23.378906 C 100.9375 23.9375 101.089844 24.25 101.613281 24.496094 C 104.15625 25.671875 106.679688 26.882812 109.210938 28.082031 Z M 132.082031 89.023438 C 131.851562 89.234375 131.238281 89.128906 131.386719 89.882812 C 131.933594 92.664062 132.425781 95.453125 132.960938 98.238281 C 133 98.4375 133.234375 98.601562 133.378906 98.78125 C 133.425781 98.738281 133.46875 98.691406 133.515625 98.648438 C 133.039062 95.453125 132.5625 92.257812 132.082031 89.023438 Z M 118.929688 88.488281 C 118.808594 88.527344 118.6875 88.5625 118.566406 88.597656 C 118.566406 91.429688 118.550781 94.261719 118.59375 97.089844 C 118.597656 97.316406 118.980469 97.539062 119.25 97.828125 C 119.371094 97.542969 119.414062 97.492188 119.410156 97.445312 C 119.152344 94.496094 119.613281 91.328125 118.929688 88.488281 Z M 44.28125 93.753906 C 44.851562 96.199219 45.90625 98.414062 47.175781 100.527344 C 47.320312 100.464844 47.460938 100.398438 47.605469 100.335938 C 46.636719 98.070312 45.511719 95.886719 44.28125 93.753906 Z M 116.375 95.664062 C 116.203125 92.984375 116.742188 90.390625 116.128906 87.976562 C 115.914062 88.214844 115.890625 88.398438 115.875 88.582031 C 115.710938 90.578125 115.585938 92.578125 115.359375 94.566406 C 115.285156 95.222656 115.632812 95.359375 116.375 95.664062 Z M 84.992188 49.542969 C 85.675781 49.628906 86.449219 49.730469 87.160156 49.820312 C 85.867188 48.394531 84.566406 46.964844 83.316406 45.59375 C 83.835938 46.816406 84.398438 48.140625 84.992188 49.542969 Z M 162.121094 34.550781 C 162.859375 32.101562 163.578125 29.5625 164.398438 27.054688 C 164.835938 25.300781 165.988281 23.679688 166.160156 21.894531 C 166.078125 21.882812 166 21.871094 165.917969 21.859375 C 164.558594 26.097656 162.671875 30.179688 162.121094 34.550781 Z M 61.988281 119.683594 C 60.476562 123.335938 59 126.902344 57.566406 130.367188 C 59.636719 127.160156 60.996094 123.539062 61.988281 119.683594 Z M 150.875 37.71875 C 149.730469 36.292969 148.878906 34.59375 147.238281 33.507812 C 146.730469 33.171875 146.394531 32.585938 146.003906 32.140625 C 145.511719 33.109375 145.511719 33.105469 146.515625 33.710938 C 148.125 34.84375 149.421875 36.433594 150.875 37.71875 Z M 58.296875 68.628906 C 58.625 69.222656 58.898438 69.605469 59.550781 69.519531 C 61.039062 69.300781 62.582031 69.359375 63.960938 68.664062 C 63.933594 68.550781 63.910156 68.4375 63.882812 68.328125 C 62.089844 69.109375 60.253906 68.464844 58.296875 68.628906 Z M 81.226562 23.6875 C 81.113281 23.707031 81 23.726562 80.886719 23.746094 C 81.125 26.691406 81.726562 29.574219 82.570312 32.417969 C 82.121094 29.507812 81.671875 26.597656 81.226562 23.6875 Z M 144.515625 24.589844 C 144.4375 24.597656 144.363281 24.605469 144.289062 24.617188 C 144.738281 26 145.074219 27.902344 146.078125 28.9375 C 146.398438 28.957031 146.742188 28.65625 147.074219 28.492188 C 147.078125 28.410156 147.078125 28.328125 147.082031 28.246094 C 145.070312 28.0625 145.183594 25.980469 144.515625 24.589844 Z M 167.816406 26.914062 C 168.5625 25.890625 169.714844 25.179688 169.683594 23.769531 C 168.679688 24.648438 168.746094 26.601562 166.886719 26.128906 C 167.296875 26.472656 167.503906 26.648438 167.816406 26.914062 Z M 80.707031 63.355469 C 80.621094 63.339844 80.539062 63.320312 80.453125 63.300781 C 80.054688 65.117188 79.65625 66.929688 79.257812 68.742188 C 79.335938 68.761719 79.417969 68.777344 79.5 68.796875 C 79.902344 66.984375 80.304688 65.167969 80.707031 63.355469 Z M 131.585938 94.96875 C 131.519531 94.980469 131.457031 94.988281 131.390625 95 C 131.535156 96.09375 131.679688 97.191406 131.828125 98.289062 C 131.941406 98.273438 132.054688 98.257812 132.171875 98.242188 C 131.976562 97.152344 131.78125 96.058594 131.585938 94.96875 Z M 172.109375 29.714844 C 172.199219 29.746094 172.289062 29.78125 172.375 29.816406 C 172.652344 28.828125 172.925781 27.84375 173.203125 26.859375 C 173.132812 26.835938 173.0625 26.816406 172.992188 26.796875 C 172.699219 27.769531 172.40625 28.742188 172.109375 29.714844 Z M 172.109375 29.714844 "/></g></g></svg>