<svg xmlns="http://www.w3.org/2000/svg" xmlns:xlink="http://www.w3.org/1999/xlink" width="500" zoomAndPan="magnify" viewBox="0 0 375 374.999991" height="500" preserveAspectRatio="xMidYMid meet" version="1.0"><defs><g/><clipPath id="0aa9faa2b5"><path d="M 60 99 L 315 99 L 315 205.09375 L 60 205.09375 Z M 60 99 " clip-rule="nonzero"/></clipPath><clipPath id="4f7e9275b9"><path d="M 263.652344 179.480469 L 315 179.480469 L 315 231 L 263.652344 231 Z M 263.652344 179.480469 " clip-rule="nonzero"/></clipPath><clipPath id="c8dc0e86e9"><path d="M 60 177.1875 L 108.363281 177.1875 L 108.363281 231 L 60 231 Z M 60 177.1875 " clip-rule="nonzero"/></clipPath></defs><rect x="-37.5" width="450" fill="#ffffff" y="-37.499999" height="449.999989" fill-opacity="1"/><rect x="-37.5" width="450" fill="#1b1b1b" y="-37.499999" height="449.999989" fill-opacity="1"/><g fill="#fffafa" fill-opacity="1"><g transform="translate(112.943339, 226.921567)"><g><path d="M 0 0 L 0 -19.59375 L 2.171875 -19.59375 L 2.171875 -0.390625 C 3.578125 -0.390625 4.820312 -0.445312 5.90625 -0.5625 C 7 -0.675781 7.988281 -0.820312 8.875 -1 C 9.769531 -1.1875 10.625 -1.378906 11.4375 -1.578125 C 12.257812 -1.773438 13.109375 -1.972656 13.984375 -2.171875 L 13.984375 0 Z M 0 0 "/></g></g></g><g fill="#fffafa" fill-opacity="1"><g transform="translate(128.746543, 226.921567)"><g><path d="M 9.484375 -19.59375 C 10.785156 -19.59375 12.007812 -19.335938 13.15625 -18.828125 C 14.3125 -18.328125 15.320312 -17.628906 16.1875 -16.734375 C 17.0625 -15.835938 17.742188 -14.796875 18.234375 -13.609375 C 18.722656 -12.421875 18.96875 -11.148438 18.96875 -9.796875 C 18.96875 -8.441406 18.722656 -7.171875 18.234375 -5.984375 C 17.742188 -4.796875 17.0625 -3.753906 16.1875 -2.859375 C 15.320312 -1.960938 14.3125 -1.257812 13.15625 -0.75 C 12.007812 -0.25 10.785156 0 9.484375 0 C 8.179688 0 6.953125 -0.25 5.796875 -0.75 C 4.648438 -1.257812 3.644531 -1.960938 2.78125 -2.859375 C 1.914062 -3.753906 1.234375 -4.796875 0.734375 -5.984375 C 0.242188 -7.171875 0 -8.441406 0 -9.796875 C 0 -11.148438 0.242188 -12.421875 0.734375 -13.609375 C 1.234375 -14.796875 1.914062 -15.835938 2.78125 -16.734375 C 3.644531 -17.628906 4.648438 -18.328125 5.796875 -18.828125 C 6.953125 -19.335938 8.179688 -19.59375 9.484375 -19.59375 Z M 9.484375 -19.171875 C 8.472656 -19.171875 7.523438 -18.925781 6.640625 -18.4375 C 5.765625 -17.957031 4.988281 -17.285156 4.3125 -16.421875 C 3.644531 -15.554688 3.117188 -14.554688 2.734375 -13.421875 C 2.359375 -12.296875 2.171875 -11.085938 2.171875 -9.796875 C 2.171875 -8.492188 2.359375 -7.273438 2.734375 -6.140625 C 3.117188 -5.003906 3.644531 -4.003906 4.3125 -3.140625 C 4.988281 -2.285156 5.765625 -1.613281 6.640625 -1.125 C 7.523438 -0.632812 8.472656 -0.390625 9.484375 -0.390625 C 10.492188 -0.390625 11.441406 -0.632812 12.328125 -1.125 C 13.210938 -1.613281 13.988281 -2.285156 14.65625 -3.140625 C 15.332031 -4.003906 15.859375 -5.003906 16.234375 -6.140625 C 16.609375 -7.273438 16.796875 -8.492188 16.796875 -9.796875 C 16.796875 -11.085938 16.609375 -12.296875 16.234375 -13.421875 C 15.859375 -14.554688 15.332031 -15.554688 14.65625 -16.421875 C 13.988281 -17.285156 13.210938 -17.957031 12.328125 -18.4375 C 11.441406 -18.925781 10.492188 -19.171875 9.484375 -19.171875 Z M 9.484375 -19.171875 "/></g></g></g><g fill="#fffafa" fill-opacity="1"><g transform="translate(150.061312, 226.921567)"><g><path d="M 9.484375 -19.59375 C 10.785156 -19.59375 12.007812 -19.335938 13.15625 -18.828125 C 14.3125 -18.328125 15.320312 -17.628906 16.1875 -16.734375 C 17.0625 -15.835938 17.742188 -14.796875 18.234375 -13.609375 C 18.722656 -12.421875 18.96875 -11.148438 18.96875 -9.796875 C 18.96875 -8.441406 18.722656 -7.171875 18.234375 -5.984375 C 17.742188 -4.796875 17.0625 -3.753906 16.1875 -2.859375 C 15.320312 -1.960938 14.3125 -1.257812 13.15625 -0.75 C 12.007812 -0.25 10.785156 0 9.484375 0 C 8.179688 0 6.953125 -0.25 5.796875 -0.75 C 4.648438 -1.257812 3.644531 -1.960938 2.78125 -2.859375 C 1.914062 -3.753906 1.234375 -4.796875 0.734375 -5.984375 C 0.242188 -7.171875 0 -8.441406 0 -9.796875 C 0 -11.148438 0.242188 -12.421875 0.734375 -13.609375 C 1.234375 -14.796875 1.914062 -15.835938 2.78125 -16.734375 C 3.644531 -17.628906 4.648438 -18.328125 5.796875 -18.828125 C 6.953125 -19.335938 8.179688 -19.59375 9.484375 -19.59375 Z M 9.484375 -19.171875 C 8.472656 -19.171875 7.523438 -18.925781 6.640625 -18.4375 C 5.765625 -17.957031 4.988281 -17.285156 4.3125 -16.421875 C 3.644531 -15.554688 3.117188 -14.554688 2.734375 -13.421875 C 2.359375 -12.296875 2.171875 -11.085938 2.171875 -9.796875 C 2.171875 -8.492188 2.359375 -7.273438 2.734375 -6.140625 C 3.117188 -5.003906 3.644531 -4.003906 4.3125 -3.140625 C 4.988281 -2.285156 5.765625 -1.613281 6.640625 -1.125 C 7.523438 -0.632812 8.472656 -0.390625 9.484375 -0.390625 C 10.492188 -0.390625 11.441406 -0.632812 12.328125 -1.125 C 13.210938 -1.613281 13.988281 -2.285156 14.65625 -3.140625 C 15.332031 -4.003906 15.859375 -5.003906 16.234375 -6.140625 C 16.609375 -7.273438 16.796875 -8.492188 16.796875 -9.796875 C 16.796875 -11.085938 16.609375 -12.296875 16.234375 -13.421875 C 15.859375 -14.554688 15.332031 -15.554688 14.65625 -16.421875 C 13.988281 -17.285156 13.210938 -17.957031 12.328125 -18.4375 C 11.441406 -18.925781 10.492188 -19.171875 9.484375 -19.171875 Z M 9.484375 -19.171875 "/></g></g></g><g fill="#fffafa" fill-opacity="1"><g transform="translate(171.376084, 226.921567)"><g><path d="M 0 -19.59375 L 2.171875 -19.59375 L 2.171875 -8.28125 C 4.085938 -10.113281 5.945312 -11.953125 7.75 -13.796875 C 9.550781 -15.640625 11.320312 -17.570312 13.0625 -19.59375 L 15.234375 -19.59375 L 5.859375 -11.046875 C 6.222656 -11.191406 6.601562 -11.300781 7 -11.375 C 7.40625 -11.457031 7.796875 -11.472656 8.171875 -11.421875 C 8.734375 -11.367188 9.195312 -11.222656 9.5625 -10.984375 C 9.925781 -10.753906 10.238281 -10.453125 10.5 -10.078125 C 10.90625 -9.546875 11.265625 -8.894531 11.578125 -8.125 C 11.898438 -7.351562 12.207031 -6.539062 12.5 -5.6875 C 12.789062 -4.84375 13.085938 -4.003906 13.390625 -3.171875 C 13.691406 -2.347656 14.035156 -1.597656 14.421875 -0.921875 C 14.546875 -0.742188 14.675781 -0.566406 14.8125 -0.390625 C 14.945312 -0.210938 15.085938 -0.0820312 15.234375 0 L 13.34375 0 C 12.8125 0 12.460938 -0.113281 12.296875 -0.34375 C 12.140625 -0.582031 11.96875 -0.90625 11.78125 -1.3125 C 11.550781 -1.832031 11.316406 -2.441406 11.078125 -3.140625 C 10.835938 -3.847656 10.585938 -4.578125 10.328125 -5.328125 C 10.078125 -6.078125 9.8125 -6.796875 9.53125 -7.484375 C 9.257812 -8.171875 8.960938 -8.769531 8.640625 -9.28125 C 8.085938 -10.144531 7.441406 -10.613281 6.703125 -10.6875 C 5.972656 -10.769531 5.226562 -10.460938 4.46875 -9.765625 L 2.171875 -7.6875 L 2.171875 0 L 0 0 Z M 0 -19.59375 "/></g></g></g><g fill="#fffafa" fill-opacity="1"><g transform="translate(188.093532, 226.921567)"><g><path d="M 6.84375 0 C 6.132812 0 5.421875 -0.0625 4.703125 -0.1875 C 3.984375 -0.320312 3.304688 -0.539062 2.671875 -0.84375 C 2.242188 -1.03125 1.804688 -1.285156 1.359375 -1.609375 C 0.921875 -1.929688 0.550781 -2.304688 0.25 -2.734375 C -0.0390625 -3.171875 -0.1875 -3.644531 -0.1875 -4.15625 C -0.1875 -4.726562 0.00390625 -5.207031 0.390625 -5.59375 C 0.773438 -5.988281 1.332031 -6.1875 2.0625 -6.1875 C 1.78125 -5.375 1.722656 -4.601562 1.890625 -3.875 C 2.054688 -3.15625 2.382812 -2.535156 2.875 -2.015625 C 3.425781 -1.421875 4.128906 -0.992188 4.984375 -0.734375 C 5.835938 -0.472656 6.734375 -0.363281 7.671875 -0.40625 C 8.617188 -0.445312 9.515625 -0.625 10.359375 -0.9375 C 11.203125 -1.25 11.894531 -1.664062 12.4375 -2.1875 C 13.007812 -2.769531 13.359375 -3.375 13.484375 -4 C 13.617188 -4.625 13.566406 -5.234375 13.328125 -5.828125 C 13.097656 -6.421875 12.71875 -6.953125 12.1875 -7.421875 C 11.65625 -7.890625 11.023438 -8.253906 10.296875 -8.515625 C 9.578125 -8.773438 8.785156 -8.976562 7.921875 -9.125 C 7.066406 -9.28125 6.203125 -9.445312 5.328125 -9.625 C 4.453125 -9.8125 3.632812 -10.070312 2.875 -10.40625 C 2.125 -10.75 1.488281 -11.234375 0.96875 -11.859375 C 0.425781 -12.523438 0.109375 -13.28125 0.015625 -14.125 C -0.0664062 -14.976562 0.0820312 -15.773438 0.46875 -16.515625 C 0.78125 -17.140625 1.21875 -17.648438 1.78125 -18.046875 C 2.351562 -18.453125 2.984375 -18.765625 3.671875 -18.984375 C 4.359375 -19.210938 5.0625 -19.367188 5.78125 -19.453125 C 6.507812 -19.546875 7.1875 -19.59375 7.8125 -19.59375 C 8.519531 -19.59375 9.234375 -19.523438 9.953125 -19.390625 C 10.671875 -19.265625 11.347656 -19.050781 11.984375 -18.75 C 12.410156 -18.5625 12.84375 -18.300781 13.28125 -17.96875 C 13.726562 -17.644531 14.097656 -17.269531 14.390625 -16.84375 C 14.691406 -16.414062 14.84375 -15.945312 14.84375 -15.4375 C 14.84375 -14.84375 14.648438 -14.347656 14.265625 -13.953125 C 13.878906 -13.566406 13.320312 -13.382812 12.59375 -13.40625 C 12.851562 -14.132812 12.925781 -14.828125 12.8125 -15.484375 C 12.695312 -16.148438 12.441406 -16.738281 12.046875 -17.25 C 11.609375 -17.832031 11.015625 -18.28125 10.265625 -18.59375 C 9.515625 -18.914062 8.707031 -19.101562 7.84375 -19.15625 C 6.988281 -19.21875 6.160156 -19.15625 5.359375 -18.96875 C 4.765625 -18.84375 4.179688 -18.628906 3.609375 -18.328125 C 3.046875 -18.023438 2.566406 -17.632812 2.171875 -17.15625 C 1.785156 -16.6875 1.554688 -16.125 1.484375 -15.46875 C 1.421875 -14.738281 1.578125 -14.132812 1.953125 -13.65625 C 2.335938 -13.175781 2.847656 -12.789062 3.484375 -12.5 C 4.117188 -12.207031 4.769531 -11.976562 5.4375 -11.8125 C 6.25 -11.613281 7.125 -11.441406 8.0625 -11.296875 C 9.007812 -11.148438 9.929688 -10.945312 10.828125 -10.6875 C 11.722656 -10.425781 12.503906 -10.023438 13.171875 -9.484375 C 13.816406 -8.960938 14.300781 -8.347656 14.625 -7.640625 C 14.957031 -6.929688 15.113281 -6.195312 15.09375 -5.4375 C 15.082031 -4.6875 14.894531 -3.960938 14.53125 -3.265625 C 14.164062 -2.566406 13.613281 -1.972656 12.875 -1.484375 C 12.019531 -0.910156 11.039062 -0.519531 9.9375 -0.3125 C 8.832031 -0.101562 7.800781 0 6.84375 0 Z M 6.84375 0 "/></g></g></g><g fill="#fffafa" fill-opacity="1"><g transform="translate(205.437887, 226.921567)"><g><path d="M 2.171875 -11.1875 C 2.566406 -11.664062 3.0625 -12.003906 3.65625 -12.203125 C 4.25 -12.410156 4.847656 -12.5 5.453125 -12.46875 C 6.117188 -12.425781 6.765625 -12.28125 7.390625 -12.03125 C 8.015625 -11.78125 8.640625 -11.523438 9.265625 -11.265625 C 9.898438 -11.015625 10.546875 -10.859375 11.203125 -10.796875 C 11.691406 -10.753906 12.125 -10.84375 12.5 -11.0625 C 12.875 -11.28125 13.0625 -11.648438 13.0625 -12.171875 L 13.0625 -19.59375 L 15.234375 -19.59375 L 15.234375 0 L 13.0625 0 L 13.0625 -10.921875 C 12.832031 -10.273438 12.445312 -9.800781 11.90625 -9.5 C 11.375 -9.195312 10.789062 -9.035156 10.15625 -9.015625 C 9.519531 -8.992188 8.921875 -9.097656 8.359375 -9.328125 C 7.804688 -9.554688 7.273438 -9.820312 6.765625 -10.125 C 6.265625 -10.425781 5.765625 -10.691406 5.265625 -10.921875 C 4.765625 -11.160156 4.242188 -11.28125 3.703125 -11.28125 C 3.378906 -11.28125 3.039062 -11.203125 2.6875 -11.046875 C 2.34375 -10.890625 2.171875 -10.613281 2.171875 -10.21875 L 2.171875 0 L 0 0 L 0 -19.59375 L 2.171875 -19.59375 Z M 2.171875 -11.1875 "/></g></g></g><g fill="#fffafa" fill-opacity="1"><g transform="translate(223.04346, 226.921567)"><g><path d="M 9.484375 -19.59375 C 10.785156 -19.59375 12.007812 -19.335938 13.15625 -18.828125 C 14.3125 -18.328125 15.320312 -17.628906 16.1875 -16.734375 C 17.0625 -15.835938 17.742188 -14.796875 18.234375 -13.609375 C 18.722656 -12.421875 18.96875 -11.148438 18.96875 -9.796875 C 18.96875 -8.441406 18.722656 -7.171875 18.234375 -5.984375 C 17.742188 -4.796875 17.0625 -3.753906 16.1875 -2.859375 C 15.320312 -1.960938 14.3125 -1.257812 13.15625 -0.75 C 12.007812 -0.25 10.785156 0 9.484375 0 C 8.179688 0 6.953125 -0.25 5.796875 -0.75 C 4.648438 -1.257812 3.644531 -1.960938 2.78125 -2.859375 C 1.914062 -3.753906 1.234375 -4.796875 0.734375 -5.984375 C 0.242188 -7.171875 0 -8.441406 0 -9.796875 C 0 -11.148438 0.242188 -12.421875 0.734375 -13.609375 C 1.234375 -14.796875 1.914062 -15.835938 2.78125 -16.734375 C 3.644531 -17.628906 4.648438 -18.328125 5.796875 -18.828125 C 6.953125 -19.335938 8.179688 -19.59375 9.484375 -19.59375 Z M 9.484375 -19.171875 C 8.472656 -19.171875 7.523438 -18.925781 6.640625 -18.4375 C 5.765625 -17.957031 4.988281 -17.285156 4.3125 -16.421875 C 3.644531 -15.554688 3.117188 -14.554688 2.734375 -13.421875 C 2.359375 -12.296875 2.171875 -11.085938 2.171875 -9.796875 C 2.171875 -8.492188 2.359375 -7.273438 2.734375 -6.140625 C 3.117188 -5.003906 3.644531 -4.003906 4.3125 -3.140625 C 4.988281 -2.285156 5.765625 -1.613281 6.640625 -1.125 C 7.523438 -0.632812 8.472656 -0.390625 9.484375 -0.390625 C 10.492188 -0.390625 11.441406 -0.632812 12.328125 -1.125 C 13.210938 -1.613281 13.988281 -2.285156 14.65625 -3.140625 C 15.332031 -4.003906 15.859375 -5.003906 16.234375 -6.140625 C 16.609375 -7.273438 16.796875 -8.492188 16.796875 -9.796875 C 16.796875 -11.085938 16.609375 -12.296875 16.234375 -13.421875 C 15.859375 -14.554688 15.332031 -15.554688 14.65625 -16.421875 C 13.988281 -17.285156 13.210938 -17.957031 12.328125 -18.4375 C 11.441406 -18.925781 10.492188 -19.171875 9.484375 -19.171875 Z M 9.484375 -19.171875 "/></g></g></g><g fill="#fffafa" fill-opacity="1"><g transform="translate(244.358228, 226.921567)"><g><path d="M 0 -19.59375 L 9.453125 -19.59375 C 10.398438 -19.59375 11.273438 -19.382812 12.078125 -18.96875 C 12.890625 -18.5625 13.546875 -17.984375 14.046875 -17.234375 C 14.554688 -16.492188 14.8125 -15.59375 14.8125 -14.53125 C 14.8125 -13.46875 14.550781 -12.5625 14.03125 -11.8125 C 13.507812 -11.0625 12.828125 -10.484375 11.984375 -10.078125 C 11.148438 -9.679688 10.265625 -9.484375 9.328125 -9.484375 L 2.171875 -9.484375 L 2.171875 0 L 0 0 Z M 2.171875 -19.171875 L 2.171875 -9.875 L 8 -9.875 C 9.5625 -9.875 10.722656 -10.304688 11.484375 -11.171875 C 12.242188 -12.035156 12.625 -13.15625 12.625 -14.53125 C 12.625 -15.445312 12.398438 -16.253906 11.953125 -16.953125 C 11.503906 -17.648438 10.925781 -18.191406 10.21875 -18.578125 C 9.519531 -18.972656 8.769531 -19.171875 7.96875 -19.171875 Z M 2.171875 -19.171875 "/></g></g></g><g clip-path="url(#0aa9faa2b5)"><path fill="#fffafa" d="M 310.582031 214.40625 C 306.339844 208.085938 297.273438 203.789062 292.152344 199.328125 C 286.167969 197.980469 281 194.992188 275.816406 192.625 C 270.339844 190.125 264.933594 188.082031 259.480469 185.921875 C 242.914062 179.359375 227.128906 171.933594 215.917969 160.375 C 212.039062 156.375 208.664062 151.453125 206.285156 146.96875 C 204.84375 144.25 203.734375 139.390625 201.679688 138.175781 C 198.183594 136.101562 191.746094 137.964844 188.273438 136.5 C 191.523438 124.914062 178.816406 120.746094 179.480469 111.367188 C 180.117188 102.304688 190.640625 102.507812 194.976562 107.597656 C 196.386719 109.253906 197.234375 113.730469 201.257812 112.207031 C 202.648438 109.832031 199.769531 107.214844 198.328125 105.503906 C 196.527344 103.367188 194.347656 101.222656 191.625 100.476562 C 184.652344 98.566406 176.453125 102.394531 175.710938 110.53125 C 174.617188 122.507812 186.457031 123.136719 184.925781 136.5 C 179.65625 137.871094 173.230469 136.203125 170.265625 138.175781 C 168.441406 139.386719 165.746094 146.949219 163.980469 149.902344 C 161.632812 153.835938 158.476562 158.164062 156.023438 160.792969 C 143.050781 174.699219 122.964844 180.199219 104.085938 188.4375 C 97.324219 191.386719 90.460938 194.90625 83.5625 198.488281 C 74.257812 203.320312 63.976562 208.019531 60.945312 217.339844 C 60.128906 219.839844 58.851562 226.046875 62.199219 229.066406 C 67.023438 230.378906 71.550781 223.550781 76.859375 222.363281 C 79.484375 221.777344 84.292969 222.363281 88.589844 222.363281 L 103.25 222.363281 C 149.484375 222.363281 213.589844 222.78125 269.53125 222.78125 C 279.109375 222.78125 289.976562 221.648438 297.175781 223.199219 C 302.433594 224.335938 305.941406 230.960938 312.253906 230.320312 C 316.085938 225.097656 313.242188 218.371094 310.578125 214.40625 Z M 197.910156 108.855469 C 195.539062 105.917969 193.558594 102.59375 188.691406 102.152344 C 193.253906 101.226562 196.382812 105.351562 197.910156 108.855469 Z M 184.921875 101.734375 C 185.796875 101.5 188.125 101.535156 188.273438 101.734375 C 188.6875 102.28125 186.140625 101.984375 185.761719 102.152344 C 184.242188 102.835938 179.980469 104.742188 178.640625 106.761719 C 180.046875 103.941406 183.257812 102.179688 184.921875 101.734375 Z M 177.804688 107.597656 C 179.488281 107.761719 177.488281 110.703125 177.382812 111.785156 C 179.695312 120.769531 187.898438 125.671875 187.019531 136.5 C 184.953125 134.660156 186.1875 133.292969 185.761719 131.054688 C 184.160156 122.648438 174.4375 118.597656 177.804688 107.597656 Z M 201.257812 139.429688 C 206.335938 149.304688 210.597656 157.808594 218.433594 164.980469 C 230.800781 176.304688 252.144531 183.421875 269.535156 190.949219 C 277.550781 194.421875 283.269531 197.511719 291.3125 200.582031 C 298.4375 206.023438 307.382812 209.644531 310.164062 219.433594 C 291.964844 192.671875 243.007812 189.570312 218.433594 168.332031 C 210.402344 161.390625 205.582031 153.023438 200.421875 142.363281 C 193.453125 139.964844 182.332031 138.351562 174.871094 141.105469 C 170.28125 142.800781 170.273438 147.253906 167.332031 150.320312 C 165.636719 149.691406 168.566406 146.945312 169.007812 145.714844 C 167.707031 134.257812 191.316406 137.480469 201.257812 139.429688 Z M 71.835938 206.027344 C 100.65625 186.183594 148.351562 181.625 165.65625 149.484375 C 166.996094 151.246094 164.523438 153.113281 163.5625 154.929688 C 165.457031 154.589844 165.703125 152.601562 166.496094 151.160156 C 158.769531 169.730469 140.125 177.078125 120.003906 185.503906 C 110.761719 189.375 101.285156 193.527344 91.519531 198.070312 C 80.296875 203.289062 67.597656 208.582031 63.039062 219.847656 C 62.820312 213.789062 67.6875 208.882812 71.835938 206.027344 Z M 69.320312 224.457031 C 69.085938 225.203125 68.15625 224.519531 68.902344 224.457031 C 92.703125 211.261719 115.917969 197.472656 140.105469 184.667969 C 116.90625 198.324219 93.234375 211.511719 69.320312 224.457031 Z M 185.761719 160.792969 C 189.675781 161.746094 191.183594 162.265625 196.53125 165.796875 C 200.632812 168.5 203.941406 170.503906 207.542969 172.519531 C 233.601562 187.113281 261.375 201.921875 286.707031 217.757812 C 264.597656 217.011719 236.738281 217.699219 213.460938 217.808594 L 199.9375 217.699219 C 168.035156 216.863281 129.367188 217.167969 86.492188 216.917969 C 119.007812 197.632812 153.078125 179.910156 185.757812 160.792969 Z M 140.527344 184.667969 C 143.992188 182.269531 147.671875 180.082031 151.835938 178.382812 C 150.417969 179.515625 144.109375 182.917969 140.527344 184.667969 Z M 152.671875 177.964844 C 155.910156 175.476562 159.6875 173.53125 163.5625 171.679688 C 160.3125 174.15625 156.472656 176.042969 152.671875 177.964844 Z M 82.722656 220.6875 C 84.683594 220.910156 90.972656 219.074219 93.195312 221.105469 C 90.519531 220.621094 84.273438 221.757812 82.722656 220.6875 Z M 93.613281 220.269531 C 99.175781 220.546875 101.648438 220.457031 106.179688 220.6875 C 103.082031 221.128906 96.023438 221.914062 93.613281 220.269531 Z M 107.019531 220.6875 L 109.53125 220.6875 C 140.925781 220.410156 174.484375 221.257812 206.703125 220.269531 C 174.441406 220.058594 129.675781 220.429688 82.722656 219.429688 C 85.828125 217.257812 94.679688 217.578125 101.574219 217.757812 C 121.558594 218.277344 150.191406 218.410156 177.789062 218.125 L 178.039062 218.242188 L 228.558594 218.660156 L 228.484375 218.53125 C 242.78125 218.753906 256.800781 218.722656 269.113281 218.59375 C 276.273438 218.519531 283.929688 217.664062 290.476562 219.847656 C 259.199219 220.71875 234.714844 219.726562 207.121094 220.269531 C 237.5 221.367188 269.683594 220.171875 292.570312 221.105469 C 223.601562 221.753906 166.652344 221.875 107.015625 220.6875 Z M 311 228.226562 C 276.761719 208.988281 242.886719 189.390625 208.800781 170.007812 L 205.867188 170.007812 C 200.058594 165.761719 193.097656 162.671875 186.601562 159.117188 C 179.578125 162.5625 173.132812 166.59375 166.496094 170.425781 C 156.238281 172.855469 146.453125 180.007812 137.59375 185.085938 C 112.621094 199.394531 87.101562 212.800781 62.199219 226.554688 C 66.144531 208.214844 86.535156 200.351562 102.828125 193.460938 C 116.097656 187.851562 129.628906 182.96875 140.945312 177.128906 C 141.890625 178.101562 138.449219 178.242188 138.433594 179.640625 C 148.9375 173.8125 160.15625 164.847656 167.332031 152.414062 C 169.246094 149.101562 172.035156 142.238281 175.289062 141.945312 C 180.050781 141.511719 182.257812 147.179688 187.019531 147.808594 C 186.527344 146.066406 184.339844 146.019531 183.25 144.875 C 185.699219 144.664062 188.441406 147.777344 191.207031 148.644531 C 188.988281 145.699219 185.054688 144.464844 181.574219 142.78125 C 181.285156 143.90625 182.441406 143.589844 182.832031 144.039062 C 181.429688 144.726562 179.695312 142.160156 177.804688 141.945312 C 184.78125 139.847656 194.367188 140.320312 200.003906 143.199219 C 203.453125 150.402344 206.675781 156.90625 211.3125 162.46875 C 230.4375 185.417969 269.613281 188.132812 293.40625 206.445312 L 295.5 206.445312 C 300.441406 211.140625 306.605469 214.609375 309.324219 221.523438 C 307.519531 221.234375 306.75 219.910156 305.136719 219.429688 C 307.035156 222.320312 312.492188 223.273438 311 228.226562 Z M 311 228.226562 " fill-opacity="1" fill-rule="nonzero"/></g><g clip-path="url(#4f7e9275b9)"><path fill="#fffafa" d="M 310.582031 214.40625 C 306.339844 208.085938 297.273438 203.789062 292.152344 199.328125 C 286.167969 197.980469 281 194.992188 275.816406 192.625 C 270.339844 190.125 264.933594 188.082031 259.480469 185.921875 C 242.914062 179.359375 227.128906 171.933594 215.917969 160.375 C 212.039062 156.375 208.664062 151.453125 206.285156 146.96875 C 204.84375 144.25 203.734375 139.390625 201.679688 138.175781 C 198.183594 136.101562 191.746094 137.964844 188.273438 136.5 C 191.523438 124.914062 178.816406 120.746094 179.480469 111.367188 C 180.117188 102.304688 190.640625 102.507812 194.976562 107.597656 C 196.386719 109.253906 197.234375 113.730469 201.257812 112.207031 C 202.648438 109.832031 199.769531 107.214844 198.328125 105.503906 C 196.527344 103.367188 194.347656 101.222656 191.625 100.476562 C 184.652344 98.566406 176.453125 102.394531 175.710938 110.53125 C 174.617188 122.507812 186.457031 123.136719 184.925781 136.5 C 179.65625 137.871094 173.230469 136.203125 170.265625 138.175781 C 168.441406 139.386719 165.746094 146.949219 163.980469 149.902344 C 161.632812 153.835938 158.476562 158.164062 156.023438 160.792969 C 143.050781 174.699219 122.964844 180.199219 104.085938 188.4375 C 97.324219 191.386719 90.460938 194.90625 83.5625 198.488281 C 74.257812 203.320312 63.976562 208.019531 60.945312 217.339844 C 60.128906 219.839844 58.851562 226.046875 62.199219 229.066406 C 67.023438 230.378906 71.550781 223.550781 76.859375 222.363281 C 79.484375 221.777344 84.292969 222.363281 88.589844 222.363281 L 103.25 222.363281 C 149.484375 222.363281 213.589844 222.78125 269.53125 222.78125 C 279.109375 222.78125 289.976562 221.648438 297.175781 223.199219 C 302.433594 224.335938 305.941406 230.960938 312.253906 230.320312 C 316.085938 225.097656 313.242188 218.371094 310.578125 214.40625 Z M 197.910156 108.855469 C 195.539062 105.917969 193.558594 102.59375 188.691406 102.152344 C 193.253906 101.226562 196.382812 105.351562 197.910156 108.855469 Z M 184.921875 101.734375 C 185.796875 101.5 188.125 101.535156 188.273438 101.734375 C 188.6875 102.28125 186.140625 101.984375 185.761719 102.152344 C 184.242188 102.835938 179.980469 104.742188 178.640625 106.761719 C 180.046875 103.941406 183.257812 102.179688 184.921875 101.734375 Z M 177.804688 107.597656 C 179.488281 107.761719 177.488281 110.703125 177.382812 111.785156 C 179.695312 120.769531 187.898438 125.671875 187.019531 136.5 C 184.953125 134.660156 186.1875 133.292969 185.761719 131.054688 C 184.160156 122.648438 174.4375 118.597656 177.804688 107.597656 Z M 201.257812 139.429688 C 206.335938 149.304688 210.597656 157.808594 218.433594 164.980469 C 230.800781 176.304688 252.144531 183.421875 269.535156 190.949219 C 277.550781 194.421875 283.269531 197.511719 291.3125 200.582031 C 298.4375 206.023438 307.382812 209.644531 310.164062 219.433594 C 291.964844 192.671875 243.007812 189.570312 218.433594 168.332031 C 210.402344 161.390625 205.582031 153.023438 200.421875 142.363281 C 193.453125 139.964844 182.332031 138.351562 174.871094 141.105469 C 170.28125 142.800781 170.273438 147.253906 167.332031 150.320312 C 165.636719 149.691406 168.566406 146.945312 169.007812 145.714844 C 167.707031 134.257812 191.316406 137.480469 201.257812 139.429688 Z M 71.835938 206.027344 C 100.65625 186.183594 148.351562 181.625 165.65625 149.484375 C 166.996094 151.246094 164.523438 153.113281 163.5625 154.929688 C 165.457031 154.589844 165.703125 152.601562 166.496094 151.160156 C 158.769531 169.730469 140.125 177.078125 120.003906 185.503906 C 110.761719 189.375 101.285156 193.527344 91.519531 198.070312 C 80.296875 203.289062 67.597656 208.582031 63.039062 219.847656 C 62.820312 213.789062 67.6875 208.882812 71.835938 206.027344 Z M 69.320312 224.457031 C 69.085938 225.203125 68.15625 224.519531 68.902344 224.457031 C 92.703125 211.261719 115.917969 197.472656 140.105469 184.667969 C 116.90625 198.324219 93.234375 211.511719 69.320312 224.457031 Z M 185.761719 160.792969 C 189.675781 161.746094 191.183594 162.265625 196.53125 165.796875 C 200.632812 168.5 203.941406 170.503906 207.542969 172.519531 C 233.601562 187.113281 261.375 201.921875 286.707031 217.757812 C 264.597656 217.011719 236.738281 217.699219 213.460938 217.808594 L 199.9375 217.699219 C 168.035156 216.863281 129.367188 217.167969 86.492188 216.917969 C 119.007812 197.632812 153.078125 179.910156 185.757812 160.792969 Z M 140.527344 184.667969 C 143.992188 182.269531 147.671875 180.082031 151.835938 178.382812 C 150.417969 179.515625 144.109375 182.917969 140.527344 184.667969 Z M 152.671875 177.964844 C 155.910156 175.476562 159.6875 173.53125 163.5625 171.679688 C 160.3125 174.15625 156.472656 176.042969 152.671875 177.964844 Z M 82.722656 220.6875 C 84.683594 220.910156 90.972656 219.074219 93.195312 221.105469 C 90.519531 220.621094 84.273438 221.757812 82.722656 220.6875 Z M 93.613281 220.269531 C 99.175781 220.546875 101.648438 220.457031 106.179688 220.6875 C 103.082031 221.128906 96.023438 221.914062 93.613281 220.269531 Z M 107.019531 220.6875 L 109.53125 220.6875 C 140.925781 220.410156 174.484375 221.257812 206.703125 220.269531 C 174.441406 220.058594 129.675781 220.429688 82.722656 219.429688 C 85.828125 217.257812 94.679688 217.578125 101.574219 217.757812 C 121.558594 218.277344 150.191406 218.410156 177.789062 218.125 L 178.039062 218.242188 L 228.558594 218.660156 L 228.484375 218.53125 C 242.78125 218.753906 256.800781 218.722656 269.113281 218.59375 C 276.273438 218.519531 283.929688 217.664062 290.476562 219.847656 C 259.199219 220.71875 234.714844 219.726562 207.121094 220.269531 C 237.5 221.367188 269.683594 220.171875 292.570312 221.105469 C 223.601562 221.753906 166.652344 221.875 107.015625 220.6875 Z M 311 228.226562 C 276.761719 208.988281 242.886719 189.390625 208.800781 170.007812 L 205.867188 170.007812 C 200.058594 165.761719 193.097656 162.671875 186.601562 159.117188 C 179.578125 162.5625 173.132812 166.59375 166.496094 170.425781 C 156.238281 172.855469 146.453125 180.007812 137.59375 185.085938 C 112.621094 199.394531 87.101562 212.800781 62.199219 226.554688 C 66.144531 208.214844 86.535156 200.351562 102.828125 193.460938 C 116.097656 187.851562 129.628906 182.96875 140.945312 177.128906 C 141.890625 178.101562 138.449219 178.242188 138.433594 179.640625 C 148.9375 173.8125 160.15625 164.847656 167.332031 152.414062 C 169.246094 149.101562 172.035156 142.238281 175.289062 141.945312 C 180.050781 141.511719 182.257812 147.179688 187.019531 147.808594 C 186.527344 146.066406 184.339844 146.019531 183.25 144.875 C 185.699219 144.664062 188.441406 147.777344 191.207031 148.644531 C 188.988281 145.699219 185.054688 144.464844 181.574219 142.78125 C 181.285156 143.90625 182.441406 143.589844 182.832031 144.039062 C 181.429688 144.726562 179.695312 142.160156 177.804688 141.945312 C 184.78125 139.847656 194.367188 140.320312 200.003906 143.199219 C 203.453125 150.402344 206.675781 156.90625 211.3125 162.46875 C 230.4375 185.417969 269.613281 188.132812 293.40625 206.445312 L 295.5 206.445312 C 300.441406 211.140625 306.605469 214.609375 309.324219 221.523438 C 307.519531 221.234375 306.75 219.910156 305.136719 219.429688 C 307.035156 222.320312 312.492188 223.273438 311 228.226562 Z M 311 228.226562 " fill-opacity="1" fill-rule="nonzero"/></g><g clip-path="url(#c8dc0e86e9)"><path fill="#fffafa" d="M 310.582031 214.40625 C 306.339844 208.085938 297.273438 203.789062 292.152344 199.328125 C 286.167969 197.980469 281 194.992188 275.816406 192.625 C 270.339844 190.125 264.933594 188.082031 259.480469 185.921875 C 242.914062 179.359375 227.128906 171.933594 215.917969 160.375 C 212.039062 156.375 208.664062 151.453125 206.285156 146.96875 C 204.84375 144.25 203.734375 139.390625 201.679688 138.175781 C 198.183594 136.101562 191.746094 137.964844 188.273438 136.5 C 191.523438 124.914062 178.816406 120.746094 179.480469 111.367188 C 180.117188 102.304688 190.640625 102.507812 194.976562 107.597656 C 196.386719 109.253906 197.234375 113.730469 201.257812 112.207031 C 202.648438 109.832031 199.769531 107.214844 198.328125 105.503906 C 196.527344 103.367188 194.347656 101.222656 191.625 100.476562 C 184.652344 98.566406 176.453125 102.394531 175.710938 110.53125 C 174.617188 122.507812 186.457031 123.136719 184.925781 136.5 C 179.65625 137.871094 173.230469 136.203125 170.265625 138.175781 C 168.441406 139.386719 165.746094 146.945312 163.980469 149.902344 C 161.632812 153.835938 158.476562 158.164062 156.023438 160.792969 C 143.050781 174.699219 122.964844 180.199219 104.085938 188.4375 C 97.324219 191.386719 90.460938 194.90625 83.5625 198.488281 C 74.257812 203.320312 63.976562 208.019531 60.945312 217.339844 C 60.128906 219.839844 58.851562 226.046875 62.199219 229.066406 C 67.023438 230.378906 71.550781 223.550781 76.859375 222.363281 C 79.484375 221.777344 84.292969 222.363281 88.589844 222.363281 L 103.25 222.363281 C 149.484375 222.363281 213.589844 222.78125 269.53125 222.78125 C 279.109375 222.78125 289.976562 221.648438 297.175781 223.199219 C 302.433594 224.335938 305.941406 230.960938 312.253906 230.320312 C 316.085938 225.097656 313.242188 218.371094 310.578125 214.40625 Z M 197.910156 108.855469 C 195.539062 105.917969 193.558594 102.59375 188.691406 102.152344 C 193.253906 101.226562 196.382812 105.351562 197.910156 108.855469 Z M 184.921875 101.734375 C 185.796875 101.5 188.125 101.535156 188.273438 101.734375 C 188.6875 102.28125 186.140625 101.984375 185.761719 102.152344 C 184.242188 102.835938 179.980469 104.742188 178.640625 106.761719 C 180.046875 103.941406 183.257812 102.179688 184.921875 101.734375 Z M 177.804688 107.597656 C 179.488281 107.761719 177.488281 110.703125 177.382812 111.785156 C 179.695312 120.769531 187.898438 125.671875 187.019531 136.5 C 184.953125 134.660156 186.1875 133.292969 185.761719 131.054688 C 184.160156 122.648438 174.4375 118.597656 177.804688 107.597656 Z M 201.257812 139.429688 C 206.335938 149.304688 210.597656 157.808594 218.433594 164.980469 C 230.800781 176.300781 252.144531 183.421875 269.535156 190.949219 C 277.550781 194.421875 283.269531 197.511719 291.3125 200.582031 C 298.4375 206.023438 307.382812 209.644531 310.164062 219.433594 C 291.964844 192.671875 243.007812 189.570312 218.433594 168.332031 C 210.402344 161.390625 205.582031 153.023438 200.421875 142.363281 C 193.453125 139.964844 182.332031 138.351562 174.871094 141.105469 C 170.28125 142.800781 170.273438 147.253906 167.332031 150.320312 C 165.636719 149.691406 168.566406 146.945312 169.007812 145.714844 C 167.707031 134.257812 191.316406 137.480469 201.257812 139.429688 Z M 71.835938 206.027344 C 100.65625 186.183594 148.351562 181.625 165.65625 149.484375 C 166.996094 151.246094 164.523438 153.113281 163.5625 154.929688 C 165.457031 154.589844 165.703125 152.601562 166.496094 151.160156 C 158.769531 169.730469 140.125 177.078125 120.003906 185.503906 C 110.761719 189.375 101.285156 193.527344 91.519531 198.070312 C 80.296875 203.289062 67.597656 208.582031 63.039062 219.847656 C 62.820312 213.789062 67.6875 208.882812 71.835938 206.027344 Z M 69.320312 224.457031 C 69.085938 225.203125 68.15625 224.519531 68.902344 224.457031 C 92.703125 211.261719 115.917969 197.472656 140.105469 184.667969 C 116.90625 198.324219 93.234375 211.511719 69.320312 224.457031 Z M 185.761719 160.792969 C 189.675781 161.746094 191.183594 162.265625 196.53125 165.796875 C 200.632812 168.5 203.941406 170.503906 207.542969 172.519531 C 233.601562 187.113281 261.375 201.921875 286.707031 217.757812 C 264.597656 217.011719 236.738281 217.699219 213.460938 217.808594 L 199.9375 217.699219 C 168.035156 216.863281 129.367188 217.167969 86.492188 216.917969 C 119.007812 197.632812 153.078125 179.910156 185.757812 160.792969 Z M 140.527344 184.667969 C 143.992188 182.269531 147.671875 180.082031 151.835938 178.382812 C 150.417969 179.515625 144.109375 182.917969 140.527344 184.667969 Z M 152.671875 177.964844 C 155.910156 175.476562 159.6875 173.53125 163.5625 171.679688 C 160.3125 174.15625 156.472656 176.042969 152.671875 177.964844 Z M 82.722656 220.6875 C 84.683594 220.910156 90.972656 219.074219 93.195312 221.105469 C 90.519531 220.621094 84.273438 221.757812 82.722656 220.6875 Z M 93.613281 220.269531 C 99.175781 220.546875 101.648438 220.457031 106.179688 220.6875 C 103.082031 221.128906 96.023438 221.914062 93.613281 220.269531 Z M 107.019531 220.6875 L 109.53125 220.6875 C 140.925781 220.410156 174.484375 221.257812 206.703125 220.269531 C 174.441406 220.058594 129.675781 220.429688 82.722656 219.429688 C 85.828125 217.257812 94.679688 217.578125 101.574219 217.757812 C 121.558594 218.277344 150.191406 218.410156 177.789062 218.125 L 178.039062 218.242188 L 228.558594 218.660156 L 228.484375 218.53125 C 242.78125 218.753906 256.800781 218.722656 269.113281 218.59375 C 276.273438 218.519531 283.929688 217.664062 290.476562 219.847656 C 259.199219 220.71875 234.714844 219.726562 207.121094 220.269531 C 237.5 221.367188 269.683594 220.171875 292.570312 221.105469 C 223.601562 221.753906 166.652344 221.875 107.015625 220.6875 Z M 311 228.226562 C 276.761719 208.988281 242.886719 189.390625 208.800781 170.007812 L 205.867188 170.007812 C 200.058594 165.761719 193.097656 162.671875 186.601562 159.117188 C 179.578125 162.5625 173.132812 166.59375 166.496094 170.425781 C 156.238281 172.855469 146.453125 180.007812 137.59375 185.085938 C 112.621094 199.394531 87.101562 212.800781 62.199219 226.554688 C 66.144531 208.214844 86.535156 200.351562 102.828125 193.460938 C 116.097656 187.851562 129.628906 182.96875 140.945312 177.128906 C 141.890625 178.101562 138.449219 178.242188 138.433594 179.640625 C 148.9375 173.8125 160.15625 164.847656 167.332031 152.414062 C 169.246094 149.101562 172.035156 142.238281 175.289062 141.945312 C 180.050781 141.511719 182.257812 147.179688 187.019531 147.808594 C 186.527344 146.066406 184.339844 146.019531 183.25 144.875 C 185.699219 144.664062 188.441406 147.777344 191.207031 148.644531 C 188.988281 145.699219 185.054688 144.464844 181.574219 142.78125 C 181.285156 143.90625 182.441406 143.589844 182.832031 144.039062 C 181.429688 144.726562 179.695312 142.160156 177.804688 141.945312 C 184.78125 139.847656 194.367188 140.320312 200.003906 143.199219 C 203.453125 150.402344 206.675781 156.90625 211.3125 162.46875 C 230.4375 185.417969 269.613281 188.132812 293.40625 206.445312 L 295.5 206.445312 C 300.441406 211.140625 306.605469 214.609375 309.324219 221.523438 C 307.519531 221.234375 306.75 219.910156 305.136719 219.429688 C 307.035156 222.320312 312.492188 223.273438 311 228.226562 Z M 311 228.226562 " fill-opacity="1" fill-rule="nonzero"/></g><path stroke-linecap="butt" transform="matrix(0, -0.75, 0.75, 0, 263.83323, 222.536937)" fill="none" stroke-linejoin="miter" d="M 0.00237485 0.498401 L 6.2055 0.498401 " stroke="#fffafa" stroke-width="1" stroke-opacity="1" stroke-miterlimit="4"/><path stroke-linecap="butt" transform="matrix(0, -0.75, 0.75, 0, 108.35424, 222.53477)" fill="none" stroke-linejoin="miter" d="M -0.000514751 0.501639 L 6.947402 0.501639 " stroke="#fffafa" stroke-width="1" stroke-opacity="1" stroke-miterlimit="4"/><g fill="#fffafa" fill-opacity="1"><g transform="translate(125.876929, 249.5568)"><g><path d="M 1.515625 -0.046875 C 1.429688 -0.0664062 1.335938 -0.09375 1.234375 -0.125 C 1.128906 -0.164062 1.0625 -0.1875 1.03125 -0.1875 L 0.96875 -0.1875 C 0.863281 -0.1875 0.785156 -0.128906 0.734375 -0.015625 C 0.734375 -0.00390625 0.734375 0 0.734375 0 L 0.59375 0 C 0.582031 0 0.570312 -0.00390625 0.5625 -0.015625 L 0.1875 -1.3125 C 0.175781 -1.375 0.222656 -1.40625 0.328125 -1.40625 C 0.367188 -1.40625 0.394531 -1.394531 0.40625 -1.375 C 0.414062 -1.363281 0.425781 -1.351562 0.4375 -1.34375 C 0.445312 -1.34375 0.460938 -1.328125 0.484375 -1.296875 C 0.867188 -0.816406 1.429688 -0.578125 2.171875 -0.578125 C 2.566406 -0.578125 2.894531 -0.679688 3.15625 -0.890625 C 3.414062 -1.097656 3.546875 -1.398438 3.546875 -1.796875 C 3.546875 -2.066406 3.5 -2.269531 3.40625 -2.40625 C 3.320312 -2.539062 3.253906 -2.640625 3.203125 -2.703125 C 3.085938 -2.847656 2.804688 -3.046875 2.359375 -3.296875 C 1.910156 -3.546875 1.550781 -3.769531 1.28125 -3.96875 C 0.582031 -4.476562 0.234375 -5 0.234375 -5.53125 C 0.234375 -6.070312 0.398438 -6.488281 0.734375 -6.78125 C 1.066406 -7.070312 1.507812 -7.21875 2.0625 -7.21875 C 2.375 -7.21875 2.703125 -7.132812 3.046875 -6.96875 C 3.210938 -6.882812 3.332031 -6.828125 3.40625 -6.796875 C 3.476562 -6.773438 3.53125 -6.789062 3.5625 -6.84375 C 3.59375 -6.90625 3.613281 -6.9375 3.625 -6.9375 C 3.75 -6.957031 3.8125 -6.9375 3.8125 -6.875 L 3.953125 -5.46875 C 3.953125 -5.445312 3.882812 -5.4375 3.75 -5.4375 C 3.726562 -5.4375 3.707031 -5.460938 3.6875 -5.515625 C 3.601562 -5.804688 3.394531 -6.050781 3.0625 -6.25 C 2.726562 -6.445312 2.394531 -6.546875 2.0625 -6.546875 C 1.34375 -6.546875 0.984375 -6.253906 0.984375 -5.671875 C 0.984375 -5.242188 1.367188 -4.820312 2.140625 -4.40625 L 2.984375 -3.953125 C 3.492188 -3.671875 3.847656 -3.363281 4.046875 -3.03125 C 4.253906 -2.707031 4.359375 -2.359375 4.359375 -1.984375 L 4.359375 -1.9375 C 4.285156 -1.425781 4.203125 -1.082031 4.109375 -0.90625 C 3.929688 -0.601562 3.6875 -0.363281 3.375 -0.1875 C 3.0625 -0.0078125 2.707031 0.078125 2.3125 0.078125 C 2.09375 0.078125 1.910156 0.0546875 1.765625 0.015625 Z M 1.515625 -0.046875 "/></g></g></g><g fill="#fffafa" fill-opacity="1"><g transform="translate(130.7315, 249.5568)"><g><path d="M 3.390625 -3.046875 C 3.210938 -3.546875 2.835938 -3.796875 2.265625 -3.796875 C 2.003906 -3.796875 1.765625 -3.722656 1.546875 -3.578125 C 1.328125 -3.441406 1.160156 -3.265625 1.046875 -3.046875 C 0.929688 -2.835938 0.875 -2.632812 0.875 -2.4375 C 0.875 -2.25 0.878906 -2.160156 0.890625 -2.171875 L 3.375 -3.03125 L 3.375 -3.0625 Z M 0.984375 -1.703125 C 1.109375 -1.359375 1.320312 -1.085938 1.625 -0.890625 C 1.925781 -0.691406 2.265625 -0.59375 2.640625 -0.59375 C 3.128906 -0.59375 3.570312 -0.820312 3.96875 -1.28125 C 4.03125 -1.332031 4.117188 -1.300781 4.234375 -1.1875 C 4.242188 -1.175781 4.242188 -1.160156 4.234375 -1.140625 C 3.898438 -0.679688 3.640625 -0.382812 3.453125 -0.25 C 3.140625 -0.03125 2.78125 0.078125 2.375 0.078125 C 2.09375 0.078125 1.820312 0.0195312 1.5625 -0.09375 C 1.03125 -0.320312 0.648438 -0.695312 0.421875 -1.21875 C 0.296875 -1.476562 0.234375 -1.785156 0.234375 -2.140625 C 0.234375 -2.503906 0.328125 -2.851562 0.515625 -3.1875 C 0.703125 -3.53125 0.96875 -3.796875 1.3125 -3.984375 C 1.65625 -4.179688 2.054688 -4.28125 2.515625 -4.28125 C 3.054688 -4.28125 3.546875 -4.023438 3.984375 -3.515625 C 4.191406 -3.253906 4.296875 -3.050781 4.296875 -2.90625 Z M 0.984375 -1.703125 "/></g></g></g><g fill="#fffafa" fill-opacity="1"><g transform="translate(135.638806, 249.5568)"><g><path d="M 0.40625 -3.453125 L 0.421875 -3.53125 C 0.421875 -3.539062 0.519531 -3.628906 0.71875 -3.796875 C 0.925781 -3.960938 1.109375 -4.09375 1.265625 -4.1875 L 1.484375 -4.1875 C 1.492188 -4.164062 1.5 -4.117188 1.5 -4.046875 L 1.5 -1.359375 C 1.5 -1.179688 1.554688 -1.019531 1.671875 -0.875 C 1.910156 -0.59375 2.242188 -0.453125 2.671875 -0.453125 C 2.960938 -0.453125 3.289062 -0.550781 3.65625 -0.75 L 3.859375 -0.84375 L 3.859375 -3.5625 C 3.859375 -3.769531 3.785156 -3.90625 3.640625 -3.96875 C 3.597656 -3.976562 3.566406 -3.988281 3.546875 -4 C 3.523438 -4.019531 3.515625 -4.054688 3.515625 -4.109375 C 3.515625 -4.160156 3.53125 -4.1875 3.5625 -4.1875 L 4.5625 -4.1875 C 4.570312 -4.1875 4.578125 -3.710938 4.578125 -2.765625 L 4.578125 -1.03125 C 4.578125 -0.875 4.628906 -0.75 4.734375 -0.65625 C 4.753906 -0.632812 4.789062 -0.625 4.84375 -0.625 C 4.894531 -0.625 4.925781 -0.613281 4.9375 -0.59375 C 4.957031 -0.582031 4.96875 -0.550781 4.96875 -0.5 C 4.96875 -0.445312 4.960938 -0.414062 4.953125 -0.40625 L 4.09375 0.046875 C 4.082031 0.0546875 4.046875 0.0625 3.984375 0.0625 C 3.921875 0.0625 3.878906 0.0507812 3.859375 0.03125 C 3.847656 0.0195312 3.84375 -0.015625 3.84375 -0.078125 L 3.84375 -0.46875 C 3.84375 -0.46875 3.820312 -0.445312 3.78125 -0.40625 C 3.226562 -0.0507812 2.769531 0.125 2.40625 0.125 C 2.15625 0.125 1.898438 0.0625 1.640625 -0.0625 C 1.390625 -0.1875 1.179688 -0.359375 1.015625 -0.578125 C 0.859375 -0.796875 0.78125 -1.019531 0.78125 -1.25 L 0.78125 -3.015625 C 0.78125 -3.140625 0.753906 -3.226562 0.703125 -3.28125 C 0.660156 -3.332031 0.609375 -3.359375 0.546875 -3.359375 C 0.492188 -3.367188 0.460938 -3.378906 0.453125 -3.390625 C 0.421875 -3.410156 0.40625 -3.429688 0.40625 -3.453125 Z M 0.40625 -3.453125 "/></g></g></g><g fill="#fffafa" fill-opacity="1"><g transform="translate(141.22287, 249.5568)"><g/></g></g><g fill="#fffafa" fill-opacity="1"><g transform="translate(143.787891, 249.5568)"><g><path d="M 1.65625 -7.203125 C 1.6875 -7.203125 1.710938 -7.1875 1.734375 -7.15625 L 6.640625 -1.953125 L 6.671875 -1.953125 L 6.671875 -6.421875 C 6.671875 -6.640625 6.597656 -6.820312 6.453125 -6.96875 C 6.441406 -6.976562 6.414062 -6.988281 6.375 -7 C 6.34375 -7.019531 6.328125 -7.054688 6.328125 -7.109375 C 6.328125 -7.171875 6.347656 -7.203125 6.390625 -7.203125 L 7.828125 -7.203125 C 7.859375 -7.203125 7.875 -7.175781 7.875 -7.125 C 7.875 -7.070312 7.867188 -7.039062 7.859375 -7.03125 C 7.847656 -7.019531 7.828125 -7.007812 7.796875 -7 C 7.773438 -6.988281 7.742188 -6.960938 7.703125 -6.921875 C 7.671875 -6.890625 7.632812 -6.820312 7.59375 -6.71875 C 7.550781 -6.625 7.53125 -6.523438 7.53125 -6.421875 L 7.53125 -0.234375 C 7.53125 -0.128906 7.515625 -0.0625 7.484375 -0.03125 C 7.453125 -0.0078125 7.40625 0 7.34375 0 C 7.289062 0 7.242188 -0.015625 7.203125 -0.046875 L 1.671875 -5.921875 L 1.671875 -0.765625 C 1.671875 -0.546875 1.738281 -0.367188 1.875 -0.234375 C 1.882812 -0.222656 1.90625 -0.207031 1.9375 -0.1875 C 1.976562 -0.175781 2 -0.140625 2 -0.078125 C 2 -0.0234375 1.984375 0 1.953125 0 L 0.53125 0 C 0.488281 0 0.46875 -0.0234375 0.46875 -0.078125 C 0.46875 -0.128906 0.472656 -0.160156 0.484375 -0.171875 C 0.503906 -0.179688 0.523438 -0.191406 0.546875 -0.203125 C 0.566406 -0.210938 0.585938 -0.222656 0.609375 -0.234375 C 0.753906 -0.378906 0.828125 -0.554688 0.828125 -0.765625 L 0.828125 -6.421875 C 0.828125 -6.640625 0.757812 -6.820312 0.625 -6.96875 C 0.613281 -6.976562 0.585938 -6.988281 0.546875 -7 C 0.503906 -7.019531 0.484375 -7.054688 0.484375 -7.109375 C 0.484375 -7.171875 0.503906 -7.203125 0.546875 -7.203125 Z M 1.65625 -7.203125 "/></g></g></g><g fill="#fffafa" fill-opacity="1"><g transform="translate(152.544805, 249.5568)"><g><path d="M 1.421875 -3.5 C 1.234375 -3.382812 1.09375 -3.226562 1 -3.03125 C 0.914062 -2.832031 0.875 -2.582031 0.875 -2.28125 C 0.875 -1.988281 0.957031 -1.691406 1.125 -1.390625 C 1.289062 -1.085938 1.515625 -0.847656 1.796875 -0.671875 C 2.085938 -0.503906 2.375 -0.421875 2.65625 -0.421875 C 2.945312 -0.421875 3.179688 -0.484375 3.359375 -0.609375 C 3.546875 -0.742188 3.6875 -0.910156 3.78125 -1.109375 C 3.875 -1.316406 3.921875 -1.546875 3.921875 -1.796875 C 3.921875 -2.316406 3.753906 -2.757812 3.421875 -3.125 C 3.097656 -3.5 2.65625 -3.6875 2.09375 -3.6875 C 1.84375 -3.6875 1.617188 -3.625 1.421875 -3.5 Z M 0.890625 -0.53125 C 0.691406 -0.71875 0.53125 -0.941406 0.40625 -1.203125 C 0.289062 -1.472656 0.234375 -1.785156 0.234375 -2.140625 C 0.234375 -2.503906 0.328125 -2.851562 0.515625 -3.1875 C 0.703125 -3.53125 0.96875 -3.796875 1.3125 -3.984375 C 1.65625 -4.179688 2.015625 -4.28125 2.390625 -4.28125 C 3.066406 -4.28125 3.601562 -4.066406 4 -3.640625 C 4.40625 -3.210938 4.609375 -2.691406 4.609375 -2.078125 C 4.617188 -1.472656 4.410156 -0.960938 3.984375 -0.546875 C 3.554688 -0.128906 3.019531 0.078125 2.375 0.078125 C 2.09375 0.078125 1.820312 0.0234375 1.5625 -0.078125 C 1.3125 -0.191406 1.085938 -0.34375 0.890625 -0.53125 Z M 0.890625 -0.53125 "/></g></g></g><g fill="#fffafa" fill-opacity="1"><g transform="translate(157.711389, 249.5568)"><g><path d="M 4.421875 -4.1875 C 4.460938 -4.1875 4.484375 -4.160156 4.484375 -4.109375 C 4.484375 -4.046875 4.46875 -3.988281 4.4375 -3.9375 L 2.671875 -0.390625 C 2.578125 -0.203125 2.503906 -0.0859375 2.453125 -0.046875 C 2.398438 -0.015625 2.359375 0 2.328125 0 C 2.296875 0 2.265625 -0.00390625 2.234375 -0.015625 C 2.203125 -0.0351562 2.171875 -0.0625 2.140625 -0.09375 C 2.109375 -0.132812 2.082031 -0.164062 2.0625 -0.1875 C 2.050781 -0.21875 2.03125 -0.257812 2 -0.3125 C 1.976562 -0.363281 1.960938 -0.398438 1.953125 -0.421875 L 0.15625 -3.859375 C 0.101562 -3.953125 0.078125 -4.03125 0.078125 -4.09375 C 0.078125 -4.15625 0.0976562 -4.1875 0.140625 -4.1875 L 1.28125 -4.1875 C 1.320312 -4.1875 1.34375 -4.160156 1.34375 -4.109375 C 1.34375 -4.054688 1.320312 -4.019531 1.28125 -4 C 1.164062 -3.945312 1.101562 -3.898438 1.09375 -3.859375 C 1.09375 -3.773438 1.097656 -3.726562 1.109375 -3.71875 L 2.359375 -1.3125 L 2.484375 -1.3125 L 3.6875 -3.71875 C 3.695312 -3.726562 3.703125 -3.757812 3.703125 -3.8125 C 3.703125 -3.882812 3.660156 -3.9375 3.578125 -3.96875 C 3.503906 -4 3.46875 -4.03125 3.46875 -4.0625 C 3.46875 -4.144531 3.488281 -4.1875 3.53125 -4.1875 Z M 4.421875 -4.1875 "/></g></g></g><g fill="#fffafa" fill-opacity="1"><g transform="translate(162.583539, 249.5568)"><g><path d="M 1.421875 -3.5 C 1.234375 -3.382812 1.09375 -3.226562 1 -3.03125 C 0.914062 -2.832031 0.875 -2.582031 0.875 -2.28125 C 0.875 -1.988281 0.957031 -1.691406 1.125 -1.390625 C 1.289062 -1.085938 1.515625 -0.847656 1.796875 -0.671875 C 2.085938 -0.503906 2.375 -0.421875 2.65625 -0.421875 C 2.945312 -0.421875 3.179688 -0.484375 3.359375 -0.609375 C 3.546875 -0.742188 3.6875 -0.910156 3.78125 -1.109375 C 3.875 -1.316406 3.921875 -1.546875 3.921875 -1.796875 C 3.921875 -2.316406 3.753906 -2.757812 3.421875 -3.125 C 3.097656 -3.5 2.65625 -3.6875 2.09375 -3.6875 C 1.84375 -3.6875 1.617188 -3.625 1.421875 -3.5 Z M 0.890625 -0.53125 C 0.691406 -0.71875 0.53125 -0.941406 0.40625 -1.203125 C 0.289062 -1.472656 0.234375 -1.785156 0.234375 -2.140625 C 0.234375 -2.503906 0.328125 -2.851562 0.515625 -3.1875 C 0.703125 -3.53125 0.96875 -3.796875 1.3125 -3.984375 C 1.65625 -4.179688 2.015625 -4.28125 2.390625 -4.28125 C 3.066406 -4.28125 3.601562 -4.066406 4 -3.640625 C 4.40625 -3.210938 4.609375 -2.691406 4.609375 -2.078125 C 4.617188 -1.472656 4.410156 -0.960938 3.984375 -0.546875 C 3.554688 -0.128906 3.019531 0.078125 2.375 0.078125 C 2.09375 0.078125 1.820312 0.0234375 1.5625 -0.078125 C 1.3125 -0.191406 1.085938 -0.34375 0.890625 -0.53125 Z M 0.890625 -0.53125 "/></g></g></g><g fill="#fffafa" fill-opacity="1"><g transform="translate(167.750123, 249.5568)"><g/></g></g><g fill="#fffafa" fill-opacity="1"><g transform="translate(170.315144, 249.5568)"><g><path d="M 0.84375 -0.765625 L 0.84375 -6.421875 C 0.84375 -6.640625 0.773438 -6.820312 0.640625 -6.96875 C 0.628906 -6.976562 0.601562 -6.988281 0.5625 -7 C 0.519531 -7.019531 0.5 -7.054688 0.5 -7.109375 C 0.5 -7.171875 0.519531 -7.203125 0.5625 -7.203125 L 1.984375 -7.203125 C 2.023438 -7.203125 2.046875 -7.175781 2.046875 -7.125 C 2.046875 -7.070312 2.035156 -7.039062 2.015625 -7.03125 C 2.003906 -7.019531 1.988281 -7.007812 1.96875 -7 C 1.945312 -6.988281 1.914062 -6.960938 1.875 -6.921875 C 1.84375 -6.890625 1.804688 -6.820312 1.765625 -6.71875 C 1.722656 -6.625 1.703125 -6.523438 1.703125 -6.421875 L 1.703125 -0.71875 L 4.625 -0.71875 C 4.945312 -0.71875 5.160156 -0.753906 5.265625 -0.828125 C 5.316406 -0.859375 5.359375 -0.894531 5.390625 -0.9375 C 5.421875 -0.988281 5.441406 -1.015625 5.453125 -1.015625 C 5.472656 -1.015625 5.503906 -1.003906 5.546875 -0.984375 C 5.585938 -0.972656 5.609375 -0.960938 5.609375 -0.953125 C 5.609375 -0.941406 5.585938 -0.882812 5.546875 -0.78125 L 5.40625 -0.421875 C 5.351562 -0.296875 5.316406 -0.195312 5.296875 -0.125 C 5.273438 -0.0507812 5.25 -0.0078125 5.21875 0 L 0.5625 0 C 0.519531 0 0.5 -0.0234375 0.5 -0.078125 C 0.5 -0.128906 0.503906 -0.160156 0.515625 -0.171875 C 0.535156 -0.179688 0.554688 -0.191406 0.578125 -0.203125 C 0.597656 -0.210938 0.625 -0.234375 0.65625 -0.265625 C 0.695312 -0.304688 0.738281 -0.375 0.78125 -0.46875 C 0.820312 -0.570312 0.84375 -0.671875 0.84375 -0.765625 Z M 0.84375 -0.765625 "/></g></g></g><g fill="#fffafa" fill-opacity="1"><g transform="translate(176.347447, 249.5568)"><g><path d="M 1.421875 -3.5 C 1.234375 -3.382812 1.09375 -3.226562 1 -3.03125 C 0.914062 -2.832031 0.875 -2.582031 0.875 -2.28125 C 0.875 -1.988281 0.957031 -1.691406 1.125 -1.390625 C 1.289062 -1.085938 1.515625 -0.847656 1.796875 -0.671875 C 2.085938 -0.503906 2.375 -0.421875 2.65625 -0.421875 C 2.945312 -0.421875 3.179688 -0.484375 3.359375 -0.609375 C 3.546875 -0.742188 3.6875 -0.910156 3.78125 -1.109375 C 3.875 -1.316406 3.921875 -1.546875 3.921875 -1.796875 C 3.921875 -2.316406 3.753906 -2.757812 3.421875 -3.125 C 3.097656 -3.5 2.65625 -3.6875 2.09375 -3.6875 C 1.84375 -3.6875 1.617188 -3.625 1.421875 -3.5 Z M 0.890625 -0.53125 C 0.691406 -0.71875 0.53125 -0.941406 0.40625 -1.203125 C 0.289062 -1.472656 0.234375 -1.785156 0.234375 -2.140625 C 0.234375 -2.503906 0.328125 -2.851562 0.515625 -3.1875 C 0.703125 -3.53125 0.96875 -3.796875 1.3125 -3.984375 C 1.65625 -4.179688 2.015625 -4.28125 2.390625 -4.28125 C 3.066406 -4.28125 3.601562 -4.066406 4 -3.640625 C 4.40625 -3.210938 4.609375 -2.691406 4.609375 -2.078125 C 4.617188 -1.472656 4.410156 -0.960938 3.984375 -0.546875 C 3.554688 -0.128906 3.019531 0.078125 2.375 0.078125 C 2.09375 0.078125 1.820312 0.0234375 1.5625 -0.078125 C 1.3125 -0.191406 1.085938 -0.34375 0.890625 -0.53125 Z M 0.890625 -0.53125 "/></g></g></g><g fill="#fffafa" fill-opacity="1"><g transform="translate(181.514031, 249.5568)"><g><path d="M 1.421875 -3.5 C 1.234375 -3.382812 1.09375 -3.226562 1 -3.03125 C 0.914062 -2.832031 0.875 -2.582031 0.875 -2.28125 C 0.875 -1.988281 0.957031 -1.691406 1.125 -1.390625 C 1.289062 -1.085938 1.515625 -0.847656 1.796875 -0.671875 C 2.085938 -0.503906 2.375 -0.421875 2.65625 -0.421875 C 2.945312 -0.421875 3.179688 -0.484375 3.359375 -0.609375 C 3.546875 -0.742188 3.6875 -0.910156 3.78125 -1.109375 C 3.875 -1.316406 3.921875 -1.546875 3.921875 -1.796875 C 3.921875 -2.316406 3.753906 -2.757812 3.421875 -3.125 C 3.097656 -3.5 2.65625 -3.6875 2.09375 -3.6875 C 1.84375 -3.6875 1.617188 -3.625 1.421875 -3.5 Z M 0.890625 -0.53125 C 0.691406 -0.71875 0.53125 -0.941406 0.40625 -1.203125 C 0.289062 -1.472656 0.234375 -1.785156 0.234375 -2.140625 C 0.234375 -2.503906 0.328125 -2.851562 0.515625 -3.1875 C 0.703125 -3.53125 0.96875 -3.796875 1.3125 -3.984375 C 1.65625 -4.179688 2.015625 -4.28125 2.390625 -4.28125 C 3.066406 -4.28125 3.601562 -4.066406 4 -3.640625 C 4.40625 -3.210938 4.609375 -2.691406 4.609375 -2.078125 C 4.617188 -1.472656 4.410156 -0.960938 3.984375 -0.546875 C 3.554688 -0.128906 3.019531 0.078125 2.375 0.078125 C 2.09375 0.078125 1.820312 0.0234375 1.5625 -0.078125 C 1.3125 -0.191406 1.085938 -0.34375 0.890625 -0.53125 Z M 0.890625 -0.53125 "/></g></g></g><g fill="#fffafa" fill-opacity="1"><g transform="translate(186.680615, 249.5568)"><g><path d="M 1.5 -0.765625 L 1.5 -0.578125 C 1.5 -0.515625 1.515625 -0.445312 1.546875 -0.375 C 1.578125 -0.300781 1.632812 -0.25 1.71875 -0.21875 C 1.800781 -0.1875 1.84375 -0.15625 1.84375 -0.125 C 1.84375 -0.0390625 1.820312 0 1.78125 0 L 0.5 0 C 0.457031 0 0.4375 -0.0234375 0.4375 -0.078125 C 0.4375 -0.128906 0.445312 -0.160156 0.46875 -0.171875 C 0.488281 -0.191406 0.515625 -0.207031 0.546875 -0.21875 C 0.585938 -0.238281 0.617188 -0.257812 0.640625 -0.28125 C 0.671875 -0.300781 0.691406 -0.320312 0.703125 -0.34375 C 0.722656 -0.375 0.738281 -0.398438 0.75 -0.421875 C 0.757812 -0.441406 0.765625 -0.46875 0.765625 -0.5 C 0.773438 -0.539062 0.78125 -0.566406 0.78125 -0.578125 L 0.78125 -6.109375 C 0.78125 -6.203125 0.753906 -6.269531 0.703125 -6.3125 C 0.660156 -6.351562 0.613281 -6.375 0.5625 -6.375 C 0.507812 -6.375 0.472656 -6.382812 0.453125 -6.40625 C 0.429688 -6.414062 0.421875 -6.4375 0.421875 -6.46875 L 0.421875 -6.546875 C 0.421875 -6.554688 0.425781 -6.566406 0.4375 -6.578125 C 0.457031 -6.585938 0.46875 -6.59375 0.46875 -6.59375 L 1.265625 -7.1875 C 1.273438 -7.195312 1.304688 -7.203125 1.359375 -7.203125 C 1.410156 -7.203125 1.445312 -7.191406 1.46875 -7.171875 C 1.488281 -7.160156 1.5 -7.125 1.5 -7.0625 L 1.5 -2.34375 L 1.515625 -2.34375 L 2.9375 -3.703125 C 2.988281 -3.753906 3.015625 -3.804688 3.015625 -3.859375 C 3.015625 -3.929688 2.976562 -3.972656 2.90625 -3.984375 C 2.84375 -4.003906 2.8125 -4.03125 2.8125 -4.0625 C 2.8125 -4.144531 2.832031 -4.1875 2.875 -4.1875 L 3.875 -4.1875 C 3.914062 -4.1875 3.9375 -4.160156 3.9375 -4.109375 C 3.9375 -4.054688 3.925781 -4.019531 3.90625 -4 C 3.894531 -3.976562 3.867188 -3.953125 3.828125 -3.921875 C 3.796875 -3.890625 3.769531 -3.867188 3.75 -3.859375 L 2.4375 -2.59375 L 2.4375 -2.578125 L 3.75 -0.703125 C 4 -0.390625 4.125 -0.191406 4.125 -0.109375 C 4.125 -0.0351562 4.101562 0 4.0625 0 L 2.96875 0 C 2.925781 0 2.90625 -0.0234375 2.90625 -0.078125 C 2.90625 -0.128906 2.925781 -0.164062 2.96875 -0.1875 C 3.082031 -0.257812 3.140625 -0.3125 3.140625 -0.34375 C 3.140625 -0.40625 3.128906 -0.441406 3.109375 -0.453125 L 1.953125 -2.125 L 1.921875 -2.125 L 1.5 -1.71875 Z M 1.5 -0.765625 "/></g></g></g><g fill="#fffafa" fill-opacity="1"><g transform="translate(191.192413, 249.5568)"><g/></g></g><g fill="#fffafa" fill-opacity="1"><g transform="translate(193.757435, 249.5568)"><g><path d="M 1.65625 -7.203125 C 1.6875 -7.203125 1.710938 -7.1875 1.734375 -7.15625 L 6.640625 -1.953125 L 6.671875 -1.953125 L 6.671875 -6.421875 C 6.671875 -6.640625 6.597656 -6.820312 6.453125 -6.96875 C 6.441406 -6.976562 6.414062 -6.988281 6.375 -7 C 6.34375 -7.019531 6.328125 -7.054688 6.328125 -7.109375 C 6.328125 -7.171875 6.347656 -7.203125 6.390625 -7.203125 L 7.828125 -7.203125 C 7.859375 -7.203125 7.875 -7.175781 7.875 -7.125 C 7.875 -7.070312 7.867188 -7.039062 7.859375 -7.03125 C 7.847656 -7.019531 7.828125 -7.007812 7.796875 -7 C 7.773438 -6.988281 7.742188 -6.960938 7.703125 -6.921875 C 7.671875 -6.890625 7.632812 -6.820312 7.59375 -6.71875 C 7.550781 -6.625 7.53125 -6.523438 7.53125 -6.421875 L 7.53125 -0.234375 C 7.53125 -0.128906 7.515625 -0.0625 7.484375 -0.03125 C 7.453125 -0.0078125 7.40625 0 7.34375 0 C 7.289062 0 7.242188 -0.015625 7.203125 -0.046875 L 1.671875 -5.921875 L 1.671875 -0.765625 C 1.671875 -0.546875 1.738281 -0.367188 1.875 -0.234375 C 1.882812 -0.222656 1.90625 -0.207031 1.9375 -0.1875 C 1.976562 -0.175781 2 -0.140625 2 -0.078125 C 2 -0.0234375 1.984375 0 1.953125 0 L 0.53125 0 C 0.488281 0 0.46875 -0.0234375 0.46875 -0.078125 C 0.46875 -0.128906 0.472656 -0.160156 0.484375 -0.171875 C 0.503906 -0.179688 0.523438 -0.191406 0.546875 -0.203125 C 0.566406 -0.210938 0.585938 -0.222656 0.609375 -0.234375 C 0.753906 -0.378906 0.828125 -0.554688 0.828125 -0.765625 L 0.828125 -6.421875 C 0.828125 -6.640625 0.757812 -6.820312 0.625 -6.96875 C 0.613281 -6.976562 0.585938 -6.988281 0.546875 -7 C 0.503906 -7.019531 0.484375 -7.054688 0.484375 -7.109375 C 0.484375 -7.171875 0.503906 -7.203125 0.546875 -7.203125 Z M 1.65625 -7.203125 "/></g></g></g><g fill="#fffafa" fill-opacity="1"><g transform="translate(202.51435, 249.5568)"><g><path d="M 0.9375 -1.109375 C 0.9375 -0.910156 1.019531 -0.757812 1.1875 -0.65625 C 1.351562 -0.5625 1.523438 -0.515625 1.703125 -0.515625 C 1.878906 -0.515625 2.007812 -0.519531 2.09375 -0.53125 C 2.1875 -0.550781 2.273438 -0.582031 2.359375 -0.625 C 2.535156 -0.695312 2.6875 -0.769531 2.8125 -0.84375 C 2.8125 -0.84375 2.882812 -0.878906 3.03125 -0.953125 L 2.765625 -2.125 C 2.660156 -2.082031 2.53125 -2.035156 2.375 -1.984375 L 1.953125 -1.859375 C 1.273438 -1.648438 0.9375 -1.398438 0.9375 -1.109375 Z M 2.6875 -2.578125 C 2.59375 -3.378906 2.359375 -3.78125 1.984375 -3.78125 C 1.753906 -3.78125 1.550781 -3.695312 1.375 -3.53125 C 1.207031 -3.363281 1.125 -3.171875 1.125 -2.953125 L 1.171875 -2.765625 C 1.171875 -2.742188 1.140625 -2.707031 1.078125 -2.65625 C 1.023438 -2.613281 0.988281 -2.597656 0.96875 -2.609375 L 0.453125 -3.265625 C 0.453125 -3.304688 0.484375 -3.347656 0.546875 -3.390625 C 0.617188 -3.441406 0.675781 -3.488281 0.71875 -3.53125 L 0.828125 -3.640625 C 0.984375 -3.796875 1.085938 -3.890625 1.140625 -3.921875 L 1.359375 -4.0625 C 1.566406 -4.207031 1.800781 -4.28125 2.0625 -4.28125 C 2.4375 -4.28125 2.722656 -4.175781 2.921875 -3.96875 C 3.054688 -3.820312 3.148438 -3.679688 3.203125 -3.546875 C 3.253906 -3.410156 3.296875 -3.300781 3.328125 -3.21875 C 3.367188 -3.039062 3.410156 -2.832031 3.453125 -2.59375 L 3.5 -2.25 C 3.507812 -2.113281 3.523438 -1.988281 3.546875 -1.875 C 3.566406 -1.757812 3.578125 -1.675781 3.578125 -1.625 C 3.585938 -1.582031 3.601562 -1.507812 3.625 -1.40625 C 3.65625 -1.300781 3.679688 -1.210938 3.703125 -1.140625 C 3.753906 -0.929688 3.820312 -0.773438 3.90625 -0.671875 C 3.988281 -0.566406 4.082031 -0.515625 4.1875 -0.515625 C 4.289062 -0.515625 4.363281 -0.546875 4.40625 -0.609375 C 4.476562 -0.722656 4.53125 -0.78125 4.5625 -0.78125 C 4.582031 -0.78125 4.613281 -0.757812 4.65625 -0.71875 C 4.695312 -0.675781 4.71875 -0.644531 4.71875 -0.625 C 4.71875 -0.601562 4.671875 -0.53125 4.578125 -0.40625 C 4.484375 -0.289062 4.378906 -0.175781 4.265625 -0.0625 C 4.148438 0.0390625 4.066406 0.09375 4.015625 0.09375 C 3.828125 0.09375 3.648438 0.0195312 3.484375 -0.125 C 3.316406 -0.28125 3.210938 -0.4375 3.171875 -0.59375 C 3.078125 -0.507812 2.914062 -0.40625 2.6875 -0.28125 C 2.226562 -0.03125 1.859375 0.09375 1.578125 0.09375 C 1.304688 0.09375 1.078125 0.0546875 0.890625 -0.015625 C 0.703125 -0.0976562 0.546875 -0.222656 0.421875 -0.390625 C 0.296875 -0.554688 0.234375 -0.726562 0.234375 -0.90625 C 0.234375 -1.082031 0.253906 -1.226562 0.296875 -1.34375 C 0.347656 -1.46875 0.410156 -1.570312 0.484375 -1.65625 C 0.566406 -1.75 0.664062 -1.832031 0.78125 -1.90625 C 0.90625 -1.976562 1.023438 -2.039062 1.140625 -2.09375 C 1.398438 -2.195312 1.679688 -2.285156 1.984375 -2.359375 C 2.285156 -2.441406 2.519531 -2.515625 2.6875 -2.578125 Z M 2.6875 -2.578125 "/></g></g></g><g fill="#fffafa" fill-opacity="1"><g transform="translate(207.672145, 249.5568)"><g/></g></g><g fill="#fffafa" fill-opacity="1"><g transform="translate(210.237166, 249.5568)"><g><path d="M 1.515625 -0.046875 C 1.429688 -0.0664062 1.335938 -0.09375 1.234375 -0.125 C 1.128906 -0.164062 1.0625 -0.1875 1.03125 -0.1875 L 0.96875 -0.1875 C 0.863281 -0.1875 0.785156 -0.128906 0.734375 -0.015625 C 0.734375 -0.00390625 0.734375 0 0.734375 0 L 0.59375 0 C 0.582031 0 0.570312 -0.00390625 0.5625 -0.015625 L 0.1875 -1.3125 C 0.175781 -1.375 0.222656 -1.40625 0.328125 -1.40625 C 0.367188 -1.40625 0.394531 -1.394531 0.40625 -1.375 C 0.414062 -1.363281 0.425781 -1.351562 0.4375 -1.34375 C 0.445312 -1.34375 0.460938 -1.328125 0.484375 -1.296875 C 0.867188 -0.816406 1.429688 -0.578125 2.171875 -0.578125 C 2.566406 -0.578125 2.894531 -0.679688 3.15625 -0.890625 C 3.414062 -1.097656 3.546875 -1.398438 3.546875 -1.796875 C 3.546875 -2.066406 3.5 -2.269531 3.40625 -2.40625 C 3.320312 -2.539062 3.253906 -2.640625 3.203125 -2.703125 C 3.085938 -2.847656 2.804688 -3.046875 2.359375 -3.296875 C 1.910156 -3.546875 1.550781 -3.769531 1.28125 -3.96875 C 0.582031 -4.476562 0.234375 -5 0.234375 -5.53125 C 0.234375 -6.070312 0.398438 -6.488281 0.734375 -6.78125 C 1.066406 -7.070312 1.507812 -7.21875 2.0625 -7.21875 C 2.375 -7.21875 2.703125 -7.132812 3.046875 -6.96875 C 3.210938 -6.882812 3.332031 -6.828125 3.40625 -6.796875 C 3.476562 -6.773438 3.53125 -6.789062 3.5625 -6.84375 C 3.59375 -6.90625 3.613281 -6.9375 3.625 -6.9375 C 3.75 -6.957031 3.8125 -6.9375 3.8125 -6.875 L 3.953125 -5.46875 C 3.953125 -5.445312 3.882812 -5.4375 3.75 -5.4375 C 3.726562 -5.4375 3.707031 -5.460938 3.6875 -5.515625 C 3.601562 -5.804688 3.394531 -6.050781 3.0625 -6.25 C 2.726562 -6.445312 2.394531 -6.546875 2.0625 -6.546875 C 1.34375 -6.546875 0.984375 -6.253906 0.984375 -5.671875 C 0.984375 -5.242188 1.367188 -4.820312 2.140625 -4.40625 L 2.984375 -3.953125 C 3.492188 -3.671875 3.847656 -3.363281 4.046875 -3.03125 C 4.253906 -2.707031 4.359375 -2.359375 4.359375 -1.984375 L 4.359375 -1.9375 C 4.285156 -1.425781 4.203125 -1.082031 4.109375 -0.90625 C 3.929688 -0.601562 3.6875 -0.363281 3.375 -0.1875 C 3.0625 -0.0078125 2.707031 0.078125 2.3125 0.078125 C 2.09375 0.078125 1.910156 0.0546875 1.765625 0.015625 Z M 1.515625 -0.046875 "/></g></g></g><g fill="#fffafa" fill-opacity="1"><g transform="translate(215.091738, 249.5568)"><g><path d="M 0.40625 -3.453125 L 0.421875 -3.53125 C 0.421875 -3.539062 0.519531 -3.628906 0.71875 -3.796875 C 0.925781 -3.960938 1.109375 -4.09375 1.265625 -4.1875 L 1.484375 -4.1875 C 1.492188 -4.164062 1.5 -4.117188 1.5 -4.046875 L 1.5 -1.359375 C 1.5 -1.179688 1.554688 -1.019531 1.671875 -0.875 C 1.910156 -0.59375 2.242188 -0.453125 2.671875 -0.453125 C 2.960938 -0.453125 3.289062 -0.550781 3.65625 -0.75 L 3.859375 -0.84375 L 3.859375 -3.5625 C 3.859375 -3.769531 3.785156 -3.90625 3.640625 -3.96875 C 3.597656 -3.976562 3.566406 -3.988281 3.546875 -4 C 3.523438 -4.019531 3.515625 -4.054688 3.515625 -4.109375 C 3.515625 -4.160156 3.53125 -4.1875 3.5625 -4.1875 L 4.5625 -4.1875 C 4.570312 -4.1875 4.578125 -3.710938 4.578125 -2.765625 L 4.578125 -1.03125 C 4.578125 -0.875 4.628906 -0.75 4.734375 -0.65625 C 4.753906 -0.632812 4.789062 -0.625 4.84375 -0.625 C 4.894531 -0.625 4.925781 -0.613281 4.9375 -0.59375 C 4.957031 -0.582031 4.96875 -0.550781 4.96875 -0.5 C 4.96875 -0.445312 4.960938 -0.414062 4.953125 -0.40625 L 4.09375 0.046875 C 4.082031 0.0546875 4.046875 0.0625 3.984375 0.0625 C 3.921875 0.0625 3.878906 0.0507812 3.859375 0.03125 C 3.847656 0.0195312 3.84375 -0.015625 3.84375 -0.078125 L 3.84375 -0.46875 C 3.84375 -0.46875 3.820312 -0.445312 3.78125 -0.40625 C 3.226562 -0.0507812 2.769531 0.125 2.40625 0.125 C 2.15625 0.125 1.898438 0.0625 1.640625 -0.0625 C 1.390625 -0.1875 1.179688 -0.359375 1.015625 -0.578125 C 0.859375 -0.796875 0.78125 -1.019531 0.78125 -1.25 L 0.78125 -3.015625 C 0.78125 -3.140625 0.753906 -3.226562 0.703125 -3.28125 C 0.660156 -3.332031 0.609375 -3.359375 0.546875 -3.359375 C 0.492188 -3.367188 0.460938 -3.378906 0.453125 -3.390625 C 0.421875 -3.410156 0.40625 -3.429688 0.40625 -3.453125 Z M 0.40625 -3.453125 "/></g></g></g><g fill="#fffafa" fill-opacity="1"><g transform="translate(220.675802, 249.5568)"><g><path d="M 0.9375 -1.109375 C 0.9375 -0.910156 1.019531 -0.757812 1.1875 -0.65625 C 1.351562 -0.5625 1.523438 -0.515625 1.703125 -0.515625 C 1.878906 -0.515625 2.007812 -0.519531 2.09375 -0.53125 C 2.1875 -0.550781 2.273438 -0.582031 2.359375 -0.625 C 2.535156 -0.695312 2.6875 -0.769531 2.8125 -0.84375 C 2.8125 -0.84375 2.882812 -0.878906 3.03125 -0.953125 L 2.765625 -2.125 C 2.660156 -2.082031 2.53125 -2.035156 2.375 -1.984375 L 1.953125 -1.859375 C 1.273438 -1.648438 0.9375 -1.398438 0.9375 -1.109375 Z M 2.6875 -2.578125 C 2.59375 -3.378906 2.359375 -3.78125 1.984375 -3.78125 C 1.753906 -3.78125 1.550781 -3.695312 1.375 -3.53125 C 1.207031 -3.363281 1.125 -3.171875 1.125 -2.953125 L 1.171875 -2.765625 C 1.171875 -2.742188 1.140625 -2.707031 1.078125 -2.65625 C 1.023438 -2.613281 0.988281 -2.597656 0.96875 -2.609375 L 0.453125 -3.265625 C 0.453125 -3.304688 0.484375 -3.347656 0.546875 -3.390625 C 0.617188 -3.441406 0.675781 -3.488281 0.71875 -3.53125 L 0.828125 -3.640625 C 0.984375 -3.796875 1.085938 -3.890625 1.140625 -3.921875 L 1.359375 -4.0625 C 1.566406 -4.207031 1.800781 -4.28125 2.0625 -4.28125 C 2.4375 -4.28125 2.722656 -4.175781 2.921875 -3.96875 C 3.054688 -3.820312 3.148438 -3.679688 3.203125 -3.546875 C 3.253906 -3.410156 3.296875 -3.300781 3.328125 -3.21875 C 3.367188 -3.039062 3.410156 -2.832031 3.453125 -2.59375 L 3.5 -2.25 C 3.507812 -2.113281 3.523438 -1.988281 3.546875 -1.875 C 3.566406 -1.757812 3.578125 -1.675781 3.578125 -1.625 C 3.585938 -1.582031 3.601562 -1.507812 3.625 -1.40625 C 3.65625 -1.300781 3.679688 -1.210938 3.703125 -1.140625 C 3.753906 -0.929688 3.820312 -0.773438 3.90625 -0.671875 C 3.988281 -0.566406 4.082031 -0.515625 4.1875 -0.515625 C 4.289062 -0.515625 4.363281 -0.546875 4.40625 -0.609375 C 4.476562 -0.722656 4.53125 -0.78125 4.5625 -0.78125 C 4.582031 -0.78125 4.613281 -0.757812 4.65625 -0.71875 C 4.695312 -0.675781 4.71875 -0.644531 4.71875 -0.625 C 4.71875 -0.601562 4.671875 -0.53125 4.578125 -0.40625 C 4.484375 -0.289062 4.378906 -0.175781 4.265625 -0.0625 C 4.148438 0.0390625 4.066406 0.09375 4.015625 0.09375 C 3.828125 0.09375 3.648438 0.0195312 3.484375 -0.125 C 3.316406 -0.28125 3.210938 -0.4375 3.171875 -0.59375 C 3.078125 -0.507812 2.914062 -0.40625 2.6875 -0.28125 C 2.226562 -0.03125 1.859375 0.09375 1.578125 0.09375 C 1.304688 0.09375 1.078125 0.0546875 0.890625 -0.015625 C 0.703125 -0.0976562 0.546875 -0.222656 0.421875 -0.390625 C 0.296875 -0.554688 0.234375 -0.726562 0.234375 -0.90625 C 0.234375 -1.082031 0.253906 -1.226562 0.296875 -1.34375 C 0.347656 -1.46875 0.410156 -1.570312 0.484375 -1.65625 C 0.566406 -1.75 0.664062 -1.832031 0.78125 -1.90625 C 0.90625 -1.976562 1.023438 -2.039062 1.140625 -2.09375 C 1.398438 -2.195312 1.679688 -2.285156 1.984375 -2.359375 C 2.285156 -2.441406 2.519531 -2.515625 2.6875 -2.578125 Z M 2.6875 -2.578125 "/></g></g></g><g fill="#fffafa" fill-opacity="1"><g transform="translate(225.833591, 249.5568)"><g/></g></g><g fill="#fffafa" fill-opacity="1"><g transform="translate(228.398612, 249.5568)"><g><path d="M 7.5 -7.203125 C 7.53125 -7.203125 7.554688 -7.160156 7.578125 -7.078125 C 7.597656 -7.003906 7.632812 -6.898438 7.6875 -6.765625 C 7.6875 -6.765625 7.734375 -6.648438 7.828125 -6.421875 C 7.867188 -6.316406 7.890625 -6.257812 7.890625 -6.25 C 7.890625 -6.238281 7.867188 -6.222656 7.828125 -6.203125 C 7.785156 -6.191406 7.757812 -6.1875 7.75 -6.1875 C 7.726562 -6.1875 7.703125 -6.207031 7.671875 -6.25 C 7.640625 -6.289062 7.582031 -6.335938 7.5 -6.390625 C 7.425781 -6.453125 7.226562 -6.484375 6.90625 -6.484375 L 4.421875 -6.484375 L 4.421875 -0.765625 C 4.421875 -0.554688 4.492188 -0.378906 4.640625 -0.234375 C 4.648438 -0.222656 4.671875 -0.207031 4.703125 -0.1875 C 4.742188 -0.175781 4.765625 -0.140625 4.765625 -0.078125 C 4.765625 -0.0234375 4.75 0 4.71875 0 L 3.28125 0 C 3.25 0 3.234375 -0.0234375 3.234375 -0.078125 C 3.234375 -0.128906 3.238281 -0.160156 3.25 -0.171875 C 3.257812 -0.179688 3.273438 -0.191406 3.296875 -0.203125 C 3.328125 -0.210938 3.359375 -0.234375 3.390625 -0.265625 C 3.429688 -0.304688 3.472656 -0.375 3.515625 -0.46875 C 3.554688 -0.570312 3.578125 -0.671875 3.578125 -0.765625 L 3.578125 -6.484375 L 1.09375 -6.484375 C 0.6875 -6.484375 0.441406 -6.414062 0.359375 -6.28125 C 0.316406 -6.21875 0.285156 -6.1875 0.265625 -6.1875 C 0.242188 -6.1875 0.210938 -6.191406 0.171875 -6.203125 C 0.128906 -6.222656 0.109375 -6.238281 0.109375 -6.25 C 0.109375 -6.257812 0.128906 -6.316406 0.171875 -6.421875 L 0.3125 -6.765625 C 0.363281 -6.898438 0.398438 -7 0.421875 -7.0625 C 0.441406 -7.132812 0.46875 -7.179688 0.5 -7.203125 Z M 7.5 -7.203125 "/></g></g></g><g fill="#fffafa" fill-opacity="1"><g transform="translate(236.71168, 249.5568)"><g><path d="M 3.390625 -3.046875 C 3.210938 -3.546875 2.835938 -3.796875 2.265625 -3.796875 C 2.003906 -3.796875 1.765625 -3.722656 1.546875 -3.578125 C 1.328125 -3.441406 1.160156 -3.265625 1.046875 -3.046875 C 0.929688 -2.835938 0.875 -2.632812 0.875 -2.4375 C 0.875 -2.25 0.878906 -2.160156 0.890625 -2.171875 L 3.375 -3.03125 L 3.375 -3.0625 Z M 0.984375 -1.703125 C 1.109375 -1.359375 1.320312 -1.085938 1.625 -0.890625 C 1.925781 -0.691406 2.265625 -0.59375 2.640625 -0.59375 C 3.128906 -0.59375 3.570312 -0.820312 3.96875 -1.28125 C 4.03125 -1.332031 4.117188 -1.300781 4.234375 -1.1875 C 4.242188 -1.175781 4.242188 -1.160156 4.234375 -1.140625 C 3.898438 -0.679688 3.640625 -0.382812 3.453125 -0.25 C 3.140625 -0.03125 2.78125 0.078125 2.375 0.078125 C 2.09375 0.078125 1.820312 0.0195312 1.5625 -0.09375 C 1.03125 -0.320312 0.648438 -0.695312 0.421875 -1.21875 C 0.296875 -1.476562 0.234375 -1.785156 0.234375 -2.140625 C 0.234375 -2.503906 0.328125 -2.851562 0.515625 -3.1875 C 0.703125 -3.53125 0.96875 -3.796875 1.3125 -3.984375 C 1.65625 -4.179688 2.054688 -4.28125 2.515625 -4.28125 C 3.054688 -4.28125 3.546875 -4.023438 3.984375 -3.515625 C 4.191406 -3.253906 4.296875 -3.050781 4.296875 -2.90625 Z M 0.984375 -1.703125 "/></g></g></g><g fill="#fffafa" fill-opacity="1"><g transform="translate(241.618987, 249.5568)"><g><path d="M 0.40625 -6.46875 L 0.421875 -6.546875 C 0.421875 -6.554688 0.425781 -6.566406 0.4375 -6.578125 C 0.457031 -6.585938 0.46875 -6.59375 0.46875 -6.59375 L 1.265625 -7.1875 C 1.273438 -7.195312 1.289062 -7.203125 1.3125 -7.203125 C 1.4375 -7.203125 1.5 -7.15625 1.5 -7.0625 L 1.5 -0.765625 C 1.5 -0.742188 1.5 -0.710938 1.5 -0.671875 C 1.5 -0.628906 1.5 -0.597656 1.5 -0.578125 C 1.507812 -0.390625 1.566406 -0.273438 1.671875 -0.234375 C 1.785156 -0.191406 1.84375 -0.15625 1.84375 -0.125 C 1.84375 -0.0390625 1.820312 0 1.78125 0 L 0.484375 0 C 0.453125 0 0.4375 -0.0234375 0.4375 -0.078125 C 0.4375 -0.128906 0.445312 -0.160156 0.46875 -0.171875 C 0.488281 -0.191406 0.515625 -0.207031 0.546875 -0.21875 C 0.585938 -0.238281 0.617188 -0.257812 0.640625 -0.28125 C 0.671875 -0.300781 0.691406 -0.320312 0.703125 -0.34375 C 0.722656 -0.375 0.738281 -0.398438 0.75 -0.421875 C 0.757812 -0.441406 0.765625 -0.46875 0.765625 -0.5 C 0.773438 -0.539062 0.78125 -0.566406 0.78125 -0.578125 L 0.78125 -6.109375 C 0.78125 -6.203125 0.753906 -6.269531 0.703125 -6.3125 C 0.660156 -6.351562 0.613281 -6.375 0.5625 -6.375 C 0.507812 -6.375 0.472656 -6.382812 0.453125 -6.40625 C 0.421875 -6.414062 0.40625 -6.4375 0.40625 -6.46875 Z M 0.40625 -6.46875 "/></g></g></g><g fill="#fffafa" fill-opacity="1"><g transform="translate(244.26311, 249.5568)"><g><path d="M 0.9375 -1.109375 C 0.9375 -0.910156 1.019531 -0.757812 1.1875 -0.65625 C 1.351562 -0.5625 1.523438 -0.515625 1.703125 -0.515625 C 1.878906 -0.515625 2.007812 -0.519531 2.09375 -0.53125 C 2.1875 -0.550781 2.273438 -0.582031 2.359375 -0.625 C 2.535156 -0.695312 2.6875 -0.769531 2.8125 -0.84375 C 2.8125 -0.84375 2.882812 -0.878906 3.03125 -0.953125 L 2.765625 -2.125 C 2.660156 -2.082031 2.53125 -2.035156 2.375 -1.984375 L 1.953125 -1.859375 C 1.273438 -1.648438 0.9375 -1.398438 0.9375 -1.109375 Z M 2.6875 -2.578125 C 2.59375 -3.378906 2.359375 -3.78125 1.984375 -3.78125 C 1.753906 -3.78125 1.550781 -3.695312 1.375 -3.53125 C 1.207031 -3.363281 1.125 -3.171875 1.125 -2.953125 L 1.171875 -2.765625 C 1.171875 -2.742188 1.140625 -2.707031 1.078125 -2.65625 C 1.023438 -2.613281 0.988281 -2.597656 0.96875 -2.609375 L 0.453125 -3.265625 C 0.453125 -3.304688 0.484375 -3.347656 0.546875 -3.390625 C 0.617188 -3.441406 0.675781 -3.488281 0.71875 -3.53125 L 0.828125 -3.640625 C 0.984375 -3.796875 1.085938 -3.890625 1.140625 -3.921875 L 1.359375 -4.0625 C 1.566406 -4.207031 1.800781 -4.28125 2.0625 -4.28125 C 2.4375 -4.28125 2.722656 -4.175781 2.921875 -3.96875 C 3.054688 -3.820312 3.148438 -3.679688 3.203125 -3.546875 C 3.253906 -3.410156 3.296875 -3.300781 3.328125 -3.21875 C 3.367188 -3.039062 3.410156 -2.832031 3.453125 -2.59375 L 3.5 -2.25 C 3.507812 -2.113281 3.523438 -1.988281 3.546875 -1.875 C 3.566406 -1.757812 3.578125 -1.675781 3.578125 -1.625 C 3.585938 -1.582031 3.601562 -1.507812 3.625 -1.40625 C 3.65625 -1.300781 3.679688 -1.210938 3.703125 -1.140625 C 3.753906 -0.929688 3.820312 -0.773438 3.90625 -0.671875 C 3.988281 -0.566406 4.082031 -0.515625 4.1875 -0.515625 C 4.289062 -0.515625 4.363281 -0.546875 4.40625 -0.609375 C 4.476562 -0.722656 4.53125 -0.78125 4.5625 -0.78125 C 4.582031 -0.78125 4.613281 -0.757812 4.65625 -0.71875 C 4.695312 -0.675781 4.71875 -0.644531 4.71875 -0.625 C 4.71875 -0.601562 4.671875 -0.53125 4.578125 -0.40625 C 4.484375 -0.289062 4.378906 -0.175781 4.265625 -0.0625 C 4.148438 0.0390625 4.066406 0.09375 4.015625 0.09375 C 3.828125 0.09375 3.648438 0.0195312 3.484375 -0.125 C 3.316406 -0.28125 3.210938 -0.4375 3.171875 -0.59375 C 3.078125 -0.507812 2.914062 -0.40625 2.6875 -0.28125 C 2.226562 -0.03125 1.859375 0.09375 1.578125 0.09375 C 1.304688 0.09375 1.078125 0.0546875 0.890625 -0.015625 C 0.703125 -0.0976562 0.546875 -0.222656 0.421875 -0.390625 C 0.296875 -0.554688 0.234375 -0.726562 0.234375 -0.90625 C 0.234375 -1.082031 0.253906 -1.226562 0.296875 -1.34375 C 0.347656 -1.46875 0.410156 -1.570312 0.484375 -1.65625 C 0.566406 -1.75 0.664062 -1.832031 0.78125 -1.90625 C 0.90625 -1.976562 1.023438 -2.039062 1.140625 -2.09375 C 1.398438 -2.195312 1.679688 -2.285156 1.984375 -2.359375 C 2.285156 -2.441406 2.519531 -2.515625 2.6875 -2.578125 Z M 2.6875 -2.578125 "/></g></g></g></svg>