<svg xmlns="http://www.w3.org/2000/svg" xmlns:xlink="http://www.w3.org/1999/xlink" width="500" zoomAndPan="magnify" viewBox="0 0 375 374.999991" height="500" preserveAspectRatio="xMidYMid meet" version="1.0"><defs><g/><clipPath id="cf6a324884"><path d="M 60 99 L 315 99 L 315 205.09375 L 60 205.09375 Z M 60 99 " clip-rule="nonzero"/></clipPath><clipPath id="4bd777feee"><path d="M 263.652344 179.480469 L 315 179.480469 L 315 231 L 263.652344 231 Z M 263.652344 179.480469 " clip-rule="nonzero"/></clipPath><clipPath id="2998c2cb33"><path d="M 60 177.1875 L 108.363281 177.1875 L 108.363281 231 L 60 231 Z M 60 177.1875 " clip-rule="nonzero"/></clipPath></defs><rect x="-37.5" width="450" fill="#ffffff" y="-37.499999" height="449.999989" fill-opacity="1"/><rect x="-37.5" width="450" fill="#fffafa" y="-37.499999" height="449.999989" fill-opacity="1"/><g fill="#000000" fill-opacity="1"><g transform="translate(112.943339, 226.921581)"><g><path d="M 0 0 L 0 -19.59375 L 2.171875 -19.59375 L 2.171875 -0.390625 C 3.578125 -0.390625 4.820312 -0.445312 5.90625 -0.5625 C 7 -0.675781 7.988281 -0.820312 8.875 -1 C 9.769531 -1.1875 10.625 -1.378906 11.4375 -1.578125 C 12.257812 -1.773438 13.109375 -1.972656 13.984375 -2.171875 L 13.984375 0 Z M 0 0 "/></g></g></g><g fill="#000000" fill-opacity="1"><g transform="translate(128.746541, 226.921581)"><g><path d="M 9.484375 -19.59375 C 10.785156 -19.59375 12.007812 -19.335938 13.15625 -18.828125 C 14.3125 -18.328125 15.320312 -17.628906 16.1875 -16.734375 C 17.0625 -15.835938 17.742188 -14.796875 18.234375 -13.609375 C 18.722656 -12.421875 18.96875 -11.148438 18.96875 -9.796875 C 18.96875 -8.441406 18.722656 -7.171875 18.234375 -5.984375 C 17.742188 -4.796875 17.0625 -3.753906 16.1875 -2.859375 C 15.320312 -1.960938 14.3125 -1.257812 13.15625 -0.75 C 12.007812 -0.25 10.785156 0 9.484375 0 C 8.179688 0 6.953125 -0.25 5.796875 -0.75 C 4.648438 -1.257812 3.644531 -1.960938 2.78125 -2.859375 C 1.914062 -3.753906 1.234375 -4.796875 0.734375 -5.984375 C 0.242188 -7.171875 0 -8.441406 0 -9.796875 C 0 -11.148438 0.242188 -12.421875 0.734375 -13.609375 C 1.234375 -14.796875 1.914062 -15.835938 2.78125 -16.734375 C 3.644531 -17.628906 4.648438 -18.328125 5.796875 -18.828125 C 6.953125 -19.335938 8.179688 -19.59375 9.484375 -19.59375 Z M 9.484375 -19.171875 C 8.472656 -19.171875 7.523438 -18.925781 6.640625 -18.4375 C 5.765625 -17.957031 4.988281 -17.285156 4.3125 -16.421875 C 3.644531 -15.554688 3.117188 -14.554688 2.734375 -13.421875 C 2.359375 -12.296875 2.171875 -11.085938 2.171875 -9.796875 C 2.171875 -8.492188 2.359375 -7.273438 2.734375 -6.140625 C 3.117188 -5.003906 3.644531 -4.003906 4.3125 -3.140625 C 4.988281 -2.285156 5.765625 -1.613281 6.640625 -1.125 C 7.523438 -0.632812 8.472656 -0.390625 9.484375 -0.390625 C 10.492188 -0.390625 11.441406 -0.632812 12.328125 -1.125 C 13.210938 -1.613281 13.988281 -2.285156 14.65625 -3.140625 C 15.332031 -4.003906 15.859375 -5.003906 16.234375 -6.140625 C 16.609375 -7.273438 16.796875 -8.492188 16.796875 -9.796875 C 16.796875 -11.085938 16.609375 -12.296875 16.234375 -13.421875 C 15.859375 -14.554688 15.332031 -15.554688 14.65625 -16.421875 C 13.988281 -17.285156 13.210938 -17.957031 12.328125 -18.4375 C 11.441406 -18.925781 10.492188 -19.171875 9.484375 -19.171875 Z M 9.484375 -19.171875 "/></g></g></g><g fill="#000000" fill-opacity="1"><g transform="translate(150.061309, 226.921581)"><g><path d="M 9.484375 -19.59375 C 10.785156 -19.59375 12.007812 -19.335938 13.15625 -18.828125 C 14.3125 -18.328125 15.320312 -17.628906 16.1875 -16.734375 C 17.0625 -15.835938 17.742188 -14.796875 18.234375 -13.609375 C 18.722656 -12.421875 18.96875 -11.148438 18.96875 -9.796875 C 18.96875 -8.441406 18.722656 -7.171875 18.234375 -5.984375 C 17.742188 -4.796875 17.0625 -3.753906 16.1875 -2.859375 C 15.320312 -1.960938 14.3125 -1.257812 13.15625 -0.75 C 12.007812 -0.25 10.785156 0 9.484375 0 C 8.179688 0 6.953125 -0.25 5.796875 -0.75 C 4.648438 -1.257812 3.644531 -1.960938 2.78125 -2.859375 C 1.914062 -3.753906 1.234375 -4.796875 0.734375 -5.984375 C 0.242188 -7.171875 0 -8.441406 0 -9.796875 C 0 -11.148438 0.242188 -12.421875 0.734375 -13.609375 C 1.234375 -14.796875 1.914062 -15.835938 2.78125 -16.734375 C 3.644531 -17.628906 4.648438 -18.328125 5.796875 -18.828125 C 6.953125 -19.335938 8.179688 -19.59375 9.484375 -19.59375 Z M 9.484375 -19.171875 C 8.472656 -19.171875 7.523438 -18.925781 6.640625 -18.4375 C 5.765625 -17.957031 4.988281 -17.285156 4.3125 -16.421875 C 3.644531 -15.554688 3.117188 -14.554688 2.734375 -13.421875 C 2.359375 -12.296875 2.171875 -11.085938 2.171875 -9.796875 C 2.171875 -8.492188 2.359375 -7.273438 2.734375 -6.140625 C 3.117188 -5.003906 3.644531 -4.003906 4.3125 -3.140625 C 4.988281 -2.285156 5.765625 -1.613281 6.640625 -1.125 C 7.523438 -0.632812 8.472656 -0.390625 9.484375 -0.390625 C 10.492188 -0.390625 11.441406 -0.632812 12.328125 -1.125 C 13.210938 -1.613281 13.988281 -2.285156 14.65625 -3.140625 C 15.332031 -4.003906 15.859375 -5.003906 16.234375 -6.140625 C 16.609375 -7.273438 16.796875 -8.492188 16.796875 -9.796875 C 16.796875 -11.085938 16.609375 -12.296875 16.234375 -13.421875 C 15.859375 -14.554688 15.332031 -15.554688 14.65625 -16.421875 C 13.988281 -17.285156 13.210938 -17.957031 12.328125 -18.4375 C 11.441406 -18.925781 10.492188 -19.171875 9.484375 -19.171875 Z M 9.484375 -19.171875 "/></g></g></g><g fill="#000000" fill-opacity="1"><g transform="translate(171.376078, 226.921581)"><g><path d="M 0 -19.59375 L 2.171875 -19.59375 L 2.171875 -8.28125 C 4.085938 -10.113281 5.945312 -11.953125 7.75 -13.796875 C 9.550781 -15.640625 11.320312 -17.570312 13.0625 -19.59375 L 15.234375 -19.59375 L 5.859375 -11.046875 C 6.222656 -11.191406 6.601562 -11.300781 7 -11.375 C 7.40625 -11.457031 7.796875 -11.472656 8.171875 -11.421875 C 8.734375 -11.367188 9.195312 -11.222656 9.5625 -10.984375 C 9.925781 -10.753906 10.238281 -10.453125 10.5 -10.078125 C 10.90625 -9.546875 11.265625 -8.894531 11.578125 -8.125 C 11.898438 -7.351562 12.207031 -6.539062 12.5 -5.6875 C 12.789062 -4.84375 13.085938 -4.003906 13.390625 -3.171875 C 13.691406 -2.347656 14.035156 -1.597656 14.421875 -0.921875 C 14.546875 -0.742188 14.675781 -0.566406 14.8125 -0.390625 C 14.945312 -0.210938 15.085938 -0.0820312 15.234375 0 L 13.34375 0 C 12.8125 0 12.460938 -0.113281 12.296875 -0.34375 C 12.140625 -0.582031 11.96875 -0.90625 11.78125 -1.3125 C 11.550781 -1.832031 11.316406 -2.441406 11.078125 -3.140625 C 10.835938 -3.847656 10.585938 -4.578125 10.328125 -5.328125 C 10.078125 -6.078125 9.8125 -6.796875 9.53125 -7.484375 C 9.257812 -8.171875 8.960938 -8.769531 8.640625 -9.28125 C 8.085938 -10.144531 7.441406 -10.613281 6.703125 -10.6875 C 5.972656 -10.769531 5.226562 -10.460938 4.46875 -9.765625 L 2.171875 -7.6875 L 2.171875 0 L 0 0 Z M 0 -19.59375 "/></g></g></g><g fill="#000000" fill-opacity="1"><g transform="translate(188.093526, 226.921581)"><g><path d="M 6.84375 0 C 6.132812 0 5.421875 -0.0625 4.703125 -0.1875 C 3.984375 -0.320312 3.304688 -0.539062 2.671875 -0.84375 C 2.242188 -1.03125 1.804688 -1.285156 1.359375 -1.609375 C 0.921875 -1.929688 0.550781 -2.304688 0.25 -2.734375 C -0.0390625 -3.171875 -0.1875 -3.644531 -0.1875 -4.15625 C -0.1875 -4.726562 0.00390625 -5.207031 0.390625 -5.59375 C 0.773438 -5.988281 1.332031 -6.1875 2.0625 -6.1875 C 1.78125 -5.375 1.722656 -4.601562 1.890625 -3.875 C 2.054688 -3.15625 2.382812 -2.535156 2.875 -2.015625 C 3.425781 -1.421875 4.128906 -0.992188 4.984375 -0.734375 C 5.835938 -0.472656 6.734375 -0.363281 7.671875 -0.40625 C 8.617188 -0.445312 9.515625 -0.625 10.359375 -0.9375 C 11.203125 -1.25 11.894531 -1.664062 12.4375 -2.1875 C 13.007812 -2.769531 13.359375 -3.375 13.484375 -4 C 13.617188 -4.625 13.566406 -5.234375 13.328125 -5.828125 C 13.097656 -6.421875 12.71875 -6.953125 12.1875 -7.421875 C 11.65625 -7.890625 11.023438 -8.253906 10.296875 -8.515625 C 9.578125 -8.773438 8.785156 -8.976562 7.921875 -9.125 C 7.066406 -9.28125 6.203125 -9.445312 5.328125 -9.625 C 4.453125 -9.8125 3.632812 -10.070312 2.875 -10.40625 C 2.125 -10.75 1.488281 -11.234375 0.96875 -11.859375 C 0.425781 -12.523438 0.109375 -13.28125 0.015625 -14.125 C -0.0664062 -14.976562 0.0820312 -15.773438 0.46875 -16.515625 C 0.78125 -17.140625 1.21875 -17.648438 1.78125 -18.046875 C 2.351562 -18.453125 2.984375 -18.765625 3.671875 -18.984375 C 4.359375 -19.210938 5.0625 -19.367188 5.78125 -19.453125 C 6.507812 -19.546875 7.1875 -19.59375 7.8125 -19.59375 C 8.519531 -19.59375 9.234375 -19.523438 9.953125 -19.390625 C 10.671875 -19.265625 11.347656 -19.050781 11.984375 -18.75 C 12.410156 -18.5625 12.84375 -18.300781 13.28125 -17.96875 C 13.726562 -17.644531 14.097656 -17.269531 14.390625 -16.84375 C 14.691406 -16.414062 14.84375 -15.945312 14.84375 -15.4375 C 14.84375 -14.84375 14.648438 -14.347656 14.265625 -13.953125 C 13.878906 -13.566406 13.320312 -13.382812 12.59375 -13.40625 C 12.851562 -14.132812 12.925781 -14.828125 12.8125 -15.484375 C 12.695312 -16.148438 12.441406 -16.738281 12.046875 -17.25 C 11.609375 -17.832031 11.015625 -18.28125 10.265625 -18.59375 C 9.515625 -18.914062 8.707031 -19.101562 7.84375 -19.15625 C 6.988281 -19.21875 6.160156 -19.15625 5.359375 -18.96875 C 4.765625 -18.84375 4.179688 -18.628906 3.609375 -18.328125 C 3.046875 -18.023438 2.566406 -17.632812 2.171875 -17.15625 C 1.785156 -16.6875 1.554688 -16.125 1.484375 -15.46875 C 1.421875 -14.738281 1.578125 -14.132812 1.953125 -13.65625 C 2.335938 -13.175781 2.847656 -12.789062 3.484375 -12.5 C 4.117188 -12.207031 4.769531 -11.976562 5.4375 -11.8125 C 6.25 -11.613281 7.125 -11.441406 8.0625 -11.296875 C 9.007812 -11.148438 9.929688 -10.945312 10.828125 -10.6875 C 11.722656 -10.425781 12.503906 -10.023438 13.171875 -9.484375 C 13.816406 -8.960938 14.300781 -8.347656 14.625 -7.640625 C 14.957031 -6.929688 15.113281 -6.195312 15.09375 -5.4375 C 15.082031 -4.6875 14.894531 -3.960938 14.53125 -3.265625 C 14.164062 -2.566406 13.613281 -1.972656 12.875 -1.484375 C 12.019531 -0.910156 11.039062 -0.519531 9.9375 -0.3125 C 8.832031 -0.101562 7.800781 0 6.84375 0 Z M 6.84375 0 "/></g></g></g><g fill="#000000" fill-opacity="1"><g transform="translate(205.437881, 226.921581)"><g><path d="M 2.171875 -11.1875 C 2.566406 -11.664062 3.0625 -12.003906 3.65625 -12.203125 C 4.25 -12.410156 4.847656 -12.5 5.453125 -12.46875 C 6.117188 -12.425781 6.765625 -12.28125 7.390625 -12.03125 C 8.015625 -11.78125 8.640625 -11.523438 9.265625 -11.265625 C 9.898438 -11.015625 10.546875 -10.859375 11.203125 -10.796875 C 11.691406 -10.753906 12.125 -10.84375 12.5 -11.0625 C 12.875 -11.28125 13.0625 -11.648438 13.0625 -12.171875 L 13.0625 -19.59375 L 15.234375 -19.59375 L 15.234375 0 L 13.0625 0 L 13.0625 -10.921875 C 12.832031 -10.273438 12.445312 -9.800781 11.90625 -9.5 C 11.375 -9.195312 10.789062 -9.035156 10.15625 -9.015625 C 9.519531 -8.992188 8.921875 -9.097656 8.359375 -9.328125 C 7.804688 -9.554688 7.273438 -9.820312 6.765625 -10.125 C 6.265625 -10.425781 5.765625 -10.691406 5.265625 -10.921875 C 4.765625 -11.160156 4.242188 -11.28125 3.703125 -11.28125 C 3.378906 -11.28125 3.039062 -11.203125 2.6875 -11.046875 C 2.34375 -10.890625 2.171875 -10.613281 2.171875 -10.21875 L 2.171875 0 L 0 0 L 0 -19.59375 L 2.171875 -19.59375 Z M 2.171875 -11.1875 "/></g></g></g><g fill="#000000" fill-opacity="1"><g transform="translate(223.043448, 226.921581)"><g><path d="M 9.484375 -19.59375 C 10.785156 -19.59375 12.007812 -19.335938 13.15625 -18.828125 C 14.3125 -18.328125 15.320312 -17.628906 16.1875 -16.734375 C 17.0625 -15.835938 17.742188 -14.796875 18.234375 -13.609375 C 18.722656 -12.421875 18.96875 -11.148438 18.96875 -9.796875 C 18.96875 -8.441406 18.722656 -7.171875 18.234375 -5.984375 C 17.742188 -4.796875 17.0625 -3.753906 16.1875 -2.859375 C 15.320312 -1.960938 14.3125 -1.257812 13.15625 -0.75 C 12.007812 -0.25 10.785156 0 9.484375 0 C 8.179688 0 6.953125 -0.25 5.796875 -0.75 C 4.648438 -1.257812 3.644531 -1.960938 2.78125 -2.859375 C 1.914062 -3.753906 1.234375 -4.796875 0.734375 -5.984375 C 0.242188 -7.171875 0 -8.441406 0 -9.796875 C 0 -11.148438 0.242188 -12.421875 0.734375 -13.609375 C 1.234375 -14.796875 1.914062 -15.835938 2.78125 -16.734375 C 3.644531 -17.628906 4.648438 -18.328125 5.796875 -18.828125 C 6.953125 -19.335938 8.179688 -19.59375 9.484375 -19.59375 Z M 9.484375 -19.171875 C 8.472656 -19.171875 7.523438 -18.925781 6.640625 -18.4375 C 5.765625 -17.957031 4.988281 -17.285156 4.3125 -16.421875 C 3.644531 -15.554688 3.117188 -14.554688 2.734375 -13.421875 C 2.359375 -12.296875 2.171875 -11.085938 2.171875 -9.796875 C 2.171875 -8.492188 2.359375 -7.273438 2.734375 -6.140625 C 3.117188 -5.003906 3.644531 -4.003906 4.3125 -3.140625 C 4.988281 -2.285156 5.765625 -1.613281 6.640625 -1.125 C 7.523438 -0.632812 8.472656 -0.390625 9.484375 -0.390625 C 10.492188 -0.390625 11.441406 -0.632812 12.328125 -1.125 C 13.210938 -1.613281 13.988281 -2.285156 14.65625 -3.140625 C 15.332031 -4.003906 15.859375 -5.003906 16.234375 -6.140625 C 16.609375 -7.273438 16.796875 -8.492188 16.796875 -9.796875 C 16.796875 -11.085938 16.609375 -12.296875 16.234375 -13.421875 C 15.859375 -14.554688 15.332031 -15.554688 14.65625 -16.421875 C 13.988281 -17.285156 13.210938 -17.957031 12.328125 -18.4375 C 11.441406 -18.925781 10.492188 -19.171875 9.484375 -19.171875 Z M 9.484375 -19.171875 "/></g></g></g><g fill="#000000" fill-opacity="1"><g transform="translate(244.358217, 226.921581)"><g><path d="M 0 -19.59375 L 9.453125 -19.59375 C 10.398438 -19.59375 11.273438 -19.382812 12.078125 -18.96875 C 12.890625 -18.5625 13.546875 -17.984375 14.046875 -17.234375 C 14.554688 -16.492188 14.8125 -15.59375 14.8125 -14.53125 C 14.8125 -13.46875 14.550781 -12.5625 14.03125 -11.8125 C 13.507812 -11.0625 12.828125 -10.484375 11.984375 -10.078125 C 11.148438 -9.679688 10.265625 -9.484375 9.328125 -9.484375 L 2.171875 -9.484375 L 2.171875 0 L 0 0 Z M 2.171875 -19.171875 L 2.171875 -9.875 L 8 -9.875 C 9.5625 -9.875 10.722656 -10.304688 11.484375 -11.171875 C 12.242188 -12.035156 12.625 -13.15625 12.625 -14.53125 C 12.625 -15.445312 12.398438 -16.253906 11.953125 -16.953125 C 11.503906 -17.648438 10.925781 -18.191406 10.21875 -18.578125 C 9.519531 -18.972656 8.769531 -19.171875 7.96875 -19.171875 Z M 2.171875 -19.171875 "/></g></g></g><g clip-path="url(#cf6a324884)"><path fill="#000000" d="M 310.558594 214.734375 C 306.316406 208.398438 297.253906 204.085938 292.128906 199.613281 C 286.148438 198.261719 280.980469 195.265625 275.796875 192.890625 C 270.320312 190.382812 264.914062 188.335938 259.460938 186.171875 C 242.898438 179.589844 227.113281 172.140625 215.90625 160.546875 C 212.027344 156.535156 208.652344 151.601562 206.273438 147.105469 C 204.832031 144.378906 203.71875 139.507812 201.664062 138.285156 C 198.171875 136.207031 191.734375 138.074219 188.261719 136.605469 C 191.511719 124.988281 178.808594 120.8125 179.46875 111.402344 C 180.109375 102.3125 190.628906 102.515625 194.964844 107.625 C 196.375 109.285156 197.222656 113.773438 201.246094 112.242188 C 202.636719 109.863281 199.757812 107.238281 198.316406 105.523438 C 196.515625 103.382812 194.332031 101.230469 191.613281 100.484375 C 184.640625 98.5625 176.441406 102.40625 175.699219 110.5625 C 174.605469 122.574219 186.445312 123.207031 184.914062 136.605469 C 179.644531 137.980469 173.21875 136.308594 170.253906 138.285156 C 168.433594 139.5 165.738281 147.085938 163.972656 150.046875 C 161.621094 153.992188 158.464844 158.332031 156.015625 160.96875 C 143.042969 174.914062 122.957031 180.429688 104.082031 188.691406 C 97.320312 191.652344 90.457031 195.179688 83.558594 198.773438 C 74.257812 203.617188 63.976562 208.332031 60.945312 217.675781 C 60.128906 220.183594 58.851562 226.410156 62.199219 229.4375 C 67.023438 230.75 71.550781 223.902344 76.859375 222.714844 C 79.484375 222.125 84.289062 222.714844 88.585938 222.714844 L 103.242188 222.714844 C 149.476562 222.714844 213.574219 223.132812 269.511719 223.132812 C 279.085938 223.132812 289.953125 221.996094 297.15625 223.554688 C 302.410156 224.691406 305.917969 231.335938 312.234375 230.695312 C 316.0625 225.457031 313.21875 218.707031 310.554688 214.734375 Z M 197.894531 108.882812 C 195.527344 105.9375 193.542969 102.605469 188.679688 102.164062 C 193.242188 101.234375 196.371094 105.371094 197.894531 108.882812 Z M 184.910156 101.742188 C 185.785156 101.507812 188.113281 101.546875 188.261719 101.742188 C 188.675781 102.292969 186.128906 101.992188 185.75 102.164062 C 184.230469 102.847656 179.96875 104.761719 178.628906 106.785156 C 180.039062 103.957031 183.246094 102.191406 184.910156 101.742188 Z M 177.792969 107.625 C 179.480469 107.789062 177.480469 110.738281 177.375 111.824219 C 179.683594 120.832031 187.886719 125.746094 187.007812 136.605469 C 184.945312 134.761719 186.175781 133.390625 185.75 131.144531 C 184.148438 122.714844 174.425781 118.65625 177.792969 107.625 Z M 201.246094 139.546875 C 206.320312 149.445312 210.585938 157.976562 218.417969 165.167969 C 230.785156 176.523438 252.125 183.660156 269.515625 191.210938 C 277.53125 194.691406 283.246094 197.792969 291.292969 200.871094 C 298.417969 206.328125 307.363281 209.957031 310.140625 219.773438 C 291.941406 192.9375 242.992188 189.828125 218.417969 168.527344 C 210.390625 161.570312 205.570312 153.175781 200.410156 142.488281 C 193.4375 140.082031 182.320312 138.464844 174.863281 141.226562 C 170.269531 142.925781 170.265625 147.394531 167.324219 150.46875 C 165.628906 149.835938 168.554688 147.082031 169 145.847656 C 167.699219 134.359375 191.304688 137.589844 201.246094 139.546875 Z M 71.832031 206.332031 C 100.652344 186.433594 148.34375 181.859375 165.648438 149.628906 C 166.988281 151.394531 164.515625 153.265625 163.554688 155.085938 C 165.449219 154.75 165.691406 152.753906 166.484375 151.308594 C 158.757812 169.933594 140.117188 177.300781 119.996094 185.75 C 110.753906 189.632812 101.28125 193.796875 91.515625 198.351562 C 80.292969 203.585938 67.59375 208.894531 63.039062 220.191406 C 62.820312 214.117188 67.6875 209.195312 71.832031 206.332031 Z M 69.320312 224.8125 C 69.082031 225.5625 68.15625 224.875 68.902344 224.8125 C 92.699219 211.578125 115.910156 197.753906 140.101562 184.910156 C 116.898438 198.605469 93.230469 211.832031 69.320312 224.8125 Z M 185.75 160.96875 C 189.664062 161.925781 191.167969 162.445312 196.519531 165.988281 C 200.621094 168.695312 203.929688 170.707031 207.527344 172.730469 C 233.585938 187.363281 261.355469 202.214844 286.683594 218.09375 C 264.578125 217.347656 236.71875 218.035156 213.449219 218.148438 L 199.925781 218.039062 C 168.023438 217.199219 129.359375 217.503906 86.488281 217.253906 C 119 197.914062 153.070312 180.140625 185.746094 160.96875 Z M 140.519531 184.910156 C 143.984375 182.507812 147.660156 180.3125 151.828125 178.609375 C 150.410156 179.742188 144.101562 183.15625 140.519531 184.910156 Z M 152.664062 178.1875 C 155.902344 175.695312 159.679688 173.742188 163.554688 171.886719 C 160.304688 174.371094 156.464844 176.261719 152.664062 178.1875 Z M 82.722656 221.03125 C 84.679688 221.257812 90.96875 219.414062 93.191406 221.453125 C 90.515625 220.964844 84.269531 222.109375 82.722656 221.03125 Z M 93.609375 220.613281 C 99.171875 220.894531 101.644531 220.800781 106.175781 221.03125 C 103.078125 221.476562 96.019531 222.261719 93.609375 220.613281 Z M 107.011719 221.03125 L 109.527344 221.03125 C 140.917969 220.757812 174.472656 221.605469 206.691406 220.613281 C 174.429688 220.402344 129.667969 220.773438 82.722656 219.773438 C 85.824219 217.59375 94.675781 217.914062 101.570312 218.09375 C 121.550781 218.617188 150.183594 218.75 177.777344 218.464844 L 178.03125 218.582031 L 228.542969 219 L 228.46875 218.871094 C 242.765625 219.09375 256.785156 219.0625 269.09375 218.933594 C 276.253906 218.859375 283.910156 218 290.453125 220.191406 C 259.179688 221.066406 234.699219 220.070312 207.109375 220.613281 C 237.484375 221.714844 269.667969 220.519531 292.546875 221.453125 C 223.585938 222.101562 166.640625 222.222656 107.011719 221.03125 Z M 310.976562 228.59375 C 276.742188 209.300781 242.871094 189.648438 208.785156 170.207031 L 205.855469 170.207031 C 200.046875 165.953125 193.085938 162.851562 186.589844 159.289062 C 179.566406 162.746094 173.125 166.785156 166.484375 170.628906 C 156.230469 173.066406 146.445312 180.238281 137.585938 185.332031 C 112.617188 199.683594 87.101562 213.125 62.199219 226.914062 C 66.140625 208.527344 86.53125 200.640625 102.824219 193.730469 C 116.09375 188.105469 129.621094 183.207031 140.9375 177.351562 C 141.882812 178.328125 138.445312 178.46875 138.425781 179.871094 C 148.929688 174.027344 160.148438 165.035156 167.324219 152.566406 C 169.234375 149.246094 172.027344 142.363281 175.28125 142.066406 C 180.042969 141.632812 182.246094 147.316406 187.007812 147.945312 C 186.515625 146.199219 184.328125 146.15625 183.238281 145.007812 C 185.691406 144.796875 188.429688 147.914062 191.195312 148.789062 C 188.976562 145.832031 185.042969 144.59375 181.5625 142.90625 C 181.273438 144.035156 182.429688 143.71875 182.820312 144.167969 C 181.417969 144.855469 179.683594 142.28125 177.792969 142.066406 C 184.769531 139.964844 194.355469 140.4375 199.992188 143.328125 C 203.4375 150.550781 206.664062 157.070312 211.296875 162.648438 C 230.421875 185.664062 269.59375 188.386719 293.386719 206.753906 L 295.480469 206.753906 C 300.417969 211.457031 306.585938 214.9375 309.300781 221.875 C 307.496094 221.582031 306.730469 220.253906 305.113281 219.773438 C 307.011719 222.667969 312.472656 223.625 310.976562 228.59375 Z M 310.976562 228.59375 " fill-opacity="1" fill-rule="nonzero"/></g><g clip-path="url(#4bd777feee)"><path fill="#000000" d="M 310.539062 214.960938 C 306.296875 208.625 297.234375 204.3125 292.113281 199.839844 C 286.128906 198.488281 280.960938 195.492188 275.777344 193.117188 C 270.304688 190.609375 264.894531 188.5625 259.441406 186.398438 C 242.878906 179.816406 227.09375 172.367188 215.886719 160.773438 C 212.007812 156.761719 208.632812 151.828125 206.253906 147.332031 C 204.8125 144.605469 203.699219 139.734375 201.648438 138.511719 C 198.152344 136.433594 191.714844 138.304688 188.246094 136.832031 C 191.492188 125.214844 178.789062 121.039062 179.449219 111.628906 C 180.089844 102.539062 190.609375 102.742188 194.945312 107.851562 C 196.355469 109.511719 197.203125 114 201.226562 112.46875 C 202.617188 110.089844 199.738281 107.464844 198.296875 105.75 C 196.496094 103.609375 194.316406 101.457031 191.59375 100.710938 C 184.621094 98.792969 176.421875 102.632812 175.679688 110.789062 C 174.585938 122.800781 186.429688 123.433594 184.894531 136.832031 C 179.625 138.207031 173.199219 136.535156 170.234375 138.511719 C 168.414062 139.726562 165.71875 147.3125 163.953125 150.273438 C 161.601562 154.21875 158.445312 158.558594 155.996094 161.195312 C 143.023438 175.140625 122.9375 180.65625 104.0625 188.917969 C 97.300781 191.878906 90.4375 195.40625 83.542969 199 C 74.238281 203.84375 63.957031 208.558594 60.925781 217.902344 C 60.109375 220.410156 58.832031 226.636719 62.179688 229.664062 C 67.003906 230.976562 71.53125 224.128906 76.839844 222.941406 C 79.464844 222.355469 84.269531 222.941406 88.566406 222.941406 L 103.226562 222.941406 C 149.457031 222.941406 213.558594 223.359375 269.496094 223.359375 C 279.070312 223.359375 289.9375 222.222656 297.136719 223.78125 C 302.390625 224.917969 305.902344 231.5625 312.214844 230.921875 C 316.042969 225.683594 313.199219 218.9375 310.539062 214.960938 Z M 197.878906 109.109375 C 195.507812 106.164062 193.527344 102.832031 188.664062 102.390625 C 193.222656 101.460938 196.351562 105.597656 197.878906 109.109375 Z M 184.894531 101.96875 C 185.765625 101.734375 188.09375 101.773438 188.242188 101.96875 C 188.65625 102.519531 186.109375 102.21875 185.730469 102.390625 C 184.210938 103.074219 179.949219 104.988281 178.609375 107.011719 C 180.019531 104.183594 183.226562 102.417969 184.894531 101.96875 Z M 177.773438 107.851562 C 179.460938 108.015625 177.460938 110.964844 177.355469 112.050781 C 179.664062 121.058594 187.867188 125.976562 186.988281 136.832031 C 184.925781 134.988281 186.15625 133.617188 185.730469 131.371094 C 184.128906 122.941406 174.40625 118.882812 177.773438 107.851562 Z M 201.226562 139.773438 C 206.300781 149.671875 210.566406 158.203125 218.398438 165.394531 C 230.765625 176.75 252.105469 183.886719 269.496094 191.4375 C 277.511719 194.917969 283.230469 198.019531 291.273438 201.097656 C 298.398438 206.554688 307.34375 210.1875 310.121094 220 C 291.921875 193.164062 242.972656 190.054688 218.398438 168.753906 C 210.371094 161.796875 205.550781 153.402344 200.390625 142.714844 C 193.421875 140.308594 182.300781 138.691406 174.84375 141.453125 C 170.25 143.152344 170.246094 147.621094 167.304688 150.695312 C 165.609375 150.0625 168.539062 147.308594 168.980469 146.074219 C 167.679688 134.585938 191.285156 137.816406 201.226562 139.773438 Z M 71.8125 206.558594 C 100.636719 186.660156 148.324219 182.085938 165.628906 149.855469 C 166.96875 151.621094 164.496094 153.492188 163.535156 155.3125 C 165.429688 154.976562 165.675781 152.980469 166.464844 151.535156 C 158.742188 170.160156 140.101562 177.527344 119.976562 185.976562 C 110.738281 189.859375 101.261719 194.023438 91.5 198.578125 C 80.273438 203.8125 67.578125 209.121094 63.019531 220.417969 C 62.804688 214.34375 67.667969 209.421875 71.8125 206.558594 Z M 69.300781 225.039062 C 69.066406 225.789062 68.136719 225.101562 68.882812 225.039062 C 92.683594 211.804688 115.894531 197.980469 140.082031 185.136719 C 116.878906 198.832031 93.210938 212.058594 69.300781 225.039062 Z M 185.730469 161.195312 C 189.644531 162.152344 191.152344 162.675781 196.5 166.214844 C 200.601562 168.921875 203.910156 170.933594 207.507812 172.957031 C 233.566406 187.589844 261.335938 202.441406 286.667969 218.320312 C 264.558594 217.574219 236.703125 218.261719 213.429688 218.375 L 199.90625 218.265625 C 168.007812 217.425781 129.339844 217.730469 86.46875 217.480469 C 118.984375 198.140625 153.050781 180.367188 185.730469 161.195312 Z M 140.5 185.136719 C 143.96875 182.734375 147.644531 180.539062 151.808594 178.835938 C 150.390625 179.96875 144.082031 183.382812 140.5 185.136719 Z M 152.644531 178.414062 C 155.882812 175.921875 159.660156 173.96875 163.535156 172.113281 C 160.285156 174.597656 156.445312 176.488281 152.644531 178.414062 Z M 82.703125 221.261719 C 84.664062 221.484375 90.949219 219.640625 93.175781 221.679688 C 90.5 221.191406 84.25 222.335938 82.703125 221.261719 Z M 93.59375 220.839844 C 99.15625 221.121094 101.625 221.027344 106.15625 221.261719 C 103.058594 221.703125 96 222.488281 93.59375 220.839844 Z M 106.996094 221.261719 L 109.507812 221.261719 C 140.898438 220.984375 174.457031 221.832031 206.671875 220.839844 C 174.414062 220.628906 129.648438 221 82.703125 220 C 85.808594 217.820312 94.65625 218.140625 101.550781 218.320312 C 121.53125 218.84375 150.164062 218.976562 177.761719 218.691406 L 178.011719 218.808594 L 228.523438 219.226562 L 228.449219 219.097656 C 242.746094 219.324219 256.765625 219.289062 269.074219 219.160156 C 276.234375 219.085938 283.890625 218.226562 290.4375 220.417969 C 259.160156 221.292969 234.679688 220.296875 207.089844 220.839844 C 237.464844 221.941406 269.648438 220.746094 292.527344 221.679688 C 223.566406 222.328125 166.621094 222.449219 106.992188 221.261719 Z M 310.957031 228.820312 C 276.726562 209.527344 242.851562 189.875 208.765625 170.433594 L 205.835938 170.433594 C 200.027344 166.179688 193.066406 163.078125 186.570312 159.515625 C 179.546875 162.972656 173.105469 167.011719 166.464844 170.855469 C 156.210938 173.292969 146.425781 180.464844 137.566406 185.558594 C 112.597656 199.910156 87.082031 213.351562 62.179688 227.140625 C 66.125 208.753906 86.515625 200.867188 102.804688 193.957031 C 116.074219 188.332031 129.605469 183.433594 140.917969 177.578125 C 141.863281 178.554688 138.425781 178.695312 138.40625 180.097656 C 148.910156 174.253906 160.128906 165.261719 167.304688 152.792969 C 169.214844 149.472656 172.007812 142.589844 175.261719 142.292969 C 180.023438 141.859375 182.226562 147.542969 186.988281 148.171875 C 186.496094 146.425781 184.308594 146.382812 183.21875 145.234375 C 185.671875 145.023438 188.410156 148.140625 191.175781 149.015625 C 188.957031 146.058594 185.023438 144.820312 181.542969 143.132812 C 181.253906 144.261719 182.410156 143.945312 182.800781 144.394531 C 181.398438 145.082031 179.664062 142.507812 177.773438 142.292969 C 184.753906 140.191406 194.335938 140.664062 199.972656 143.554688 C 203.417969 150.777344 206.644531 157.296875 211.28125 162.875 C 230.40625 185.890625 269.578125 188.613281 293.367188 206.980469 L 295.460938 206.980469 C 300.402344 211.683594 306.566406 215.164062 309.28125 222.101562 C 307.476562 221.808594 306.710938 220.480469 305.09375 220 C 306.992188 222.894531 312.453125 223.851562 310.957031 228.820312 Z M 310.957031 228.820312 " fill-opacity="1" fill-rule="nonzero"/></g><g clip-path="url(#2998c2cb33)"><path fill="#000000" d="M 310.558594 214.953125 C 306.316406 208.617188 297.253906 204.308594 292.128906 199.832031 C 286.148438 198.484375 280.980469 195.484375 275.796875 193.113281 C 270.320312 190.605469 264.914062 188.558594 259.460938 186.390625 C 242.898438 179.808594 227.113281 172.359375 215.90625 160.769531 C 212.027344 156.757812 208.652344 151.824219 206.273438 147.328125 C 204.832031 144.601562 203.71875 139.726562 201.664062 138.507812 C 198.171875 136.425781 191.734375 138.296875 188.261719 136.828125 C 191.511719 125.207031 178.808594 121.03125 179.46875 111.625 C 180.109375 102.535156 190.628906 102.738281 194.964844 107.84375 C 196.375 109.503906 197.222656 113.992188 201.246094 112.464844 C 202.636719 110.085938 199.757812 107.460938 198.316406 105.742188 C 196.515625 103.601562 194.332031 101.449219 191.613281 100.703125 C 184.640625 98.785156 176.441406 102.625 175.699219 110.785156 C 174.605469 122.796875 186.445312 123.429688 184.914062 136.828125 C 179.644531 138.203125 173.21875 136.53125 170.253906 138.507812 C 168.433594 139.722656 165.738281 147.304688 163.972656 150.269531 C 161.621094 154.214844 158.464844 158.554688 156.015625 161.1875 C 143.042969 175.136719 122.957031 180.648438 104.082031 188.910156 C 97.320312 191.871094 90.457031 195.398438 83.558594 198.992188 C 74.257812 203.839844 63.976562 208.550781 60.945312 217.894531 C 60.128906 220.402344 58.851562 226.628906 62.199219 229.65625 C 67.023438 230.972656 71.550781 224.125 76.859375 222.933594 C 79.484375 222.347656 84.289062 222.933594 88.585938 222.933594 L 103.242188 222.933594 C 149.476562 222.933594 213.574219 223.355469 269.511719 223.355469 C 279.085938 223.355469 289.953125 222.214844 297.15625 223.773438 C 302.410156 224.910156 305.917969 231.558594 312.234375 230.914062 C 316.0625 225.675781 313.21875 218.929688 310.554688 214.953125 Z M 197.894531 109.105469 C 195.527344 106.160156 193.542969 102.828125 188.679688 102.382812 C 193.242188 101.453125 196.371094 105.589844 197.894531 109.105469 Z M 184.910156 101.964844 C 185.785156 101.730469 188.113281 101.765625 188.261719 101.964844 C 188.675781 102.511719 186.128906 102.210938 185.75 102.382812 C 184.230469 103.066406 179.96875 104.980469 178.628906 107.003906 C 180.039062 104.175781 183.246094 102.410156 184.910156 101.964844 Z M 177.792969 107.84375 C 179.480469 108.007812 177.480469 110.957031 177.375 112.042969 C 179.683594 121.054688 187.886719 125.96875 187.007812 136.828125 C 184.945312 134.980469 186.175781 133.613281 185.75 131.367188 C 184.148438 122.933594 174.425781 118.875 177.792969 107.84375 Z M 201.246094 139.765625 C 206.320312 149.667969 210.585938 158.195312 218.417969 165.390625 C 230.785156 176.742188 252.125 183.882812 269.515625 191.429688 C 277.53125 194.914062 283.246094 198.011719 291.292969 201.09375 C 298.417969 206.546875 307.363281 210.179688 310.140625 219.996094 C 291.941406 193.15625 242.992188 190.046875 218.417969 168.75 C 210.390625 161.789062 205.570312 153.398438 200.410156 142.707031 C 193.4375 140.304688 182.320312 138.683594 174.863281 141.445312 C 170.269531 143.148438 170.265625 147.613281 167.324219 150.6875 C 165.628906 150.054688 168.554688 147.300781 169 146.066406 C 167.699219 134.578125 191.304688 137.808594 201.246094 139.765625 Z M 71.832031 206.554688 C 100.652344 186.652344 148.34375 182.078125 165.648438 149.847656 C 166.988281 151.613281 164.515625 153.484375 163.554688 155.308594 C 165.449219 154.96875 165.691406 152.972656 166.484375 151.527344 C 158.757812 170.152344 140.117188 177.519531 119.996094 185.972656 C 110.753906 189.851562 101.28125 194.015625 91.515625 198.570312 C 80.292969 203.808594 67.59375 209.113281 63.039062 220.414062 C 62.820312 214.335938 67.6875 209.414062 71.832031 206.554688 Z M 69.320312 225.035156 C 69.082031 225.78125 68.15625 225.09375 68.902344 225.035156 C 92.699219 211.800781 115.910156 197.972656 140.101562 185.132812 C 116.898438 198.824219 93.230469 212.050781 69.320312 225.035156 Z M 185.75 161.1875 C 189.664062 162.148438 191.167969 162.667969 196.519531 166.207031 C 200.621094 168.917969 203.929688 170.929688 207.527344 172.949219 C 233.585938 187.582031 261.355469 202.4375 286.683594 218.3125 C 264.578125 217.570312 236.71875 218.257812 213.449219 218.367188 L 199.925781 218.257812 C 168.023438 217.417969 129.359375 217.722656 86.488281 217.472656 C 119 198.132812 153.070312 180.359375 185.746094 161.1875 Z M 140.519531 185.132812 C 143.984375 182.726562 147.660156 180.535156 151.828125 178.832031 C 150.410156 179.964844 144.101562 183.375 140.519531 185.132812 Z M 152.664062 178.410156 C 155.902344 175.914062 159.679688 173.964844 163.554688 172.109375 C 160.304688 174.59375 156.464844 176.480469 152.664062 178.410156 Z M 82.722656 221.253906 C 84.679688 221.476562 90.96875 219.636719 93.191406 221.671875 C 90.515625 221.1875 84.269531 222.328125 82.722656 221.253906 Z M 93.609375 220.835938 C 99.171875 221.113281 101.644531 221.023438 106.175781 221.253906 C 103.078125 221.695312 96.019531 222.484375 93.609375 220.835938 Z M 107.011719 221.253906 L 109.527344 221.253906 C 140.917969 220.976562 174.472656 221.824219 206.691406 220.835938 C 174.429688 220.621094 129.667969 220.996094 82.722656 219.996094 C 85.824219 217.8125 94.675781 218.132812 101.570312 218.3125 C 121.550781 218.835938 150.183594 218.96875 177.777344 218.683594 L 178.03125 218.800781 L 228.542969 219.21875 L 228.46875 219.09375 C 242.765625 219.316406 256.785156 219.285156 269.09375 219.152344 C 276.253906 219.078125 283.910156 218.222656 290.453125 220.414062 C 259.179688 221.285156 234.699219 220.289062 207.109375 220.832031 C 237.484375 221.933594 269.667969 220.738281 292.546875 221.671875 C 223.585938 222.324219 166.640625 222.445312 107.011719 221.253906 Z M 310.976562 228.816406 C 276.742188 209.523438 242.871094 189.867188 208.785156 170.429688 L 205.855469 170.429688 C 200.046875 166.171875 193.085938 163.074219 186.589844 159.507812 C 179.566406 162.964844 173.125 167.007812 166.484375 170.847656 C 156.230469 173.285156 146.445312 180.457031 137.585938 185.550781 C 112.617188 199.902344 87.101562 213.347656 62.199219 227.136719 C 66.140625 208.746094 86.53125 200.859375 102.824219 193.953125 C 116.09375 188.328125 129.621094 183.425781 140.9375 177.570312 C 141.882812 178.546875 138.445312 178.6875 138.425781 180.089844 C 148.929688 174.246094 160.148438 165.253906 167.324219 152.789062 C 169.234375 149.464844 172.027344 142.582031 175.28125 142.285156 C 180.042969 141.851562 182.246094 147.539062 187.007812 148.167969 C 186.515625 146.421875 184.328125 146.375 183.238281 145.226562 C 185.691406 145.015625 188.429688 148.136719 191.195312 149.007812 C 188.976562 146.054688 185.042969 144.816406 181.5625 143.125 C 181.273438 144.257812 182.429688 143.9375 182.820312 144.386719 C 181.417969 145.078125 179.683594 142.503906 177.792969 142.285156 C 184.769531 140.183594 194.355469 140.660156 199.992188 143.546875 C 203.4375 150.769531 206.664062 157.289062 211.296875 162.867188 C 230.421875 185.886719 269.59375 188.609375 293.386719 206.972656 L 295.480469 206.972656 C 300.417969 211.679688 306.585938 215.15625 309.300781 222.09375 C 307.496094 221.804688 306.730469 220.472656 305.113281 219.996094 C 307.011719 222.890625 312.472656 223.84375 310.976562 228.816406 Z M 310.976562 228.816406 " fill-opacity="1" fill-rule="nonzero"/></g><path stroke-linecap="butt" transform="matrix(0, -0.75, 0.75, 0, 263.83323, 222.536937)" fill="none" stroke-linejoin="miter" d="M 0.00237485 0.498401 L 6.2055 0.498401 " stroke="#000000" stroke-width="1" stroke-opacity="1" stroke-miterlimit="4"/><path stroke-linecap="butt" transform="matrix(0, -0.75, 0.75, 0, 108.35424, 222.53477)" fill="none" stroke-linejoin="miter" d="M -0.000514751 0.501639 L 6.947402 0.501639 " stroke="#000000" stroke-width="1" stroke-opacity="1" stroke-miterlimit="4"/><g fill="#000000" fill-opacity="1"><g transform="translate(124.600486, 249.557412)"><g><path d="M 1.515625 -0.046875 C 1.429688 -0.0664062 1.335938 -0.09375 1.234375 -0.125 C 1.128906 -0.164062 1.0625 -0.1875 1.03125 -0.1875 L 0.96875 -0.1875 C 0.863281 -0.1875 0.785156 -0.128906 0.734375 -0.015625 C 0.734375 -0.00390625 0.734375 0 0.734375 0 L 0.59375 0 C 0.582031 0 0.570312 -0.00390625 0.5625 -0.015625 L 0.1875 -1.3125 C 0.175781 -1.375 0.222656 -1.40625 0.328125 -1.40625 C 0.367188 -1.40625 0.394531 -1.394531 0.40625 -1.375 C 0.414062 -1.363281 0.425781 -1.351562 0.4375 -1.34375 C 0.445312 -1.34375 0.460938 -1.328125 0.484375 -1.296875 C 0.867188 -0.816406 1.429688 -0.578125 2.171875 -0.578125 C 2.566406 -0.578125 2.894531 -0.679688 3.15625 -0.890625 C 3.414062 -1.097656 3.546875 -1.398438 3.546875 -1.796875 C 3.546875 -2.066406 3.5 -2.269531 3.40625 -2.40625 C 3.320312 -2.539062 3.253906 -2.640625 3.203125 -2.703125 C 3.085938 -2.847656 2.804688 -3.046875 2.359375 -3.296875 C 1.910156 -3.546875 1.550781 -3.769531 1.28125 -3.96875 C 0.582031 -4.476562 0.234375 -5 0.234375 -5.53125 C 0.234375 -6.070312 0.398438 -6.488281 0.734375 -6.78125 C 1.066406 -7.070312 1.507812 -7.21875 2.0625 -7.21875 C 2.375 -7.21875 2.703125 -7.132812 3.046875 -6.96875 C 3.210938 -6.882812 3.332031 -6.828125 3.40625 -6.796875 C 3.476562 -6.773438 3.53125 -6.789062 3.5625 -6.84375 C 3.59375 -6.90625 3.613281 -6.9375 3.625 -6.9375 C 3.75 -6.957031 3.8125 -6.9375 3.8125 -6.875 L 3.953125 -5.46875 C 3.953125 -5.445312 3.882812 -5.4375 3.75 -5.4375 C 3.726562 -5.4375 3.707031 -5.460938 3.6875 -5.515625 C 3.601562 -5.804688 3.394531 -6.050781 3.0625 -6.25 C 2.726562 -6.445312 2.394531 -6.546875 2.0625 -6.546875 C 1.34375 -6.546875 0.984375 -6.253906 0.984375 -5.671875 C 0.984375 -5.242188 1.367188 -4.820312 2.140625 -4.40625 L 2.984375 -3.953125 C 3.492188 -3.671875 3.847656 -3.363281 4.046875 -3.03125 C 4.253906 -2.707031 4.359375 -2.359375 4.359375 -1.984375 L 4.359375 -1.9375 C 4.285156 -1.425781 4.203125 -1.082031 4.109375 -0.90625 C 3.929688 -0.601562 3.6875 -0.363281 3.375 -0.1875 C 3.0625 -0.0078125 2.707031 0.078125 2.3125 0.078125 C 2.09375 0.078125 1.910156 0.0546875 1.765625 0.015625 Z M 1.515625 -0.046875 "/></g></g></g><g fill="#000000" fill-opacity="1"><g transform="translate(129.45535, 249.557412)"><g><path d="M 3.390625 -3.046875 C 3.210938 -3.546875 2.835938 -3.796875 2.265625 -3.796875 C 2.003906 -3.796875 1.765625 -3.722656 1.546875 -3.578125 C 1.328125 -3.441406 1.160156 -3.265625 1.046875 -3.046875 C 0.929688 -2.835938 0.875 -2.632812 0.875 -2.4375 C 0.875 -2.25 0.878906 -2.160156 0.890625 -2.171875 L 3.375 -3.03125 L 3.375 -3.0625 Z M 0.984375 -1.703125 C 1.109375 -1.359375 1.320312 -1.085938 1.625 -0.890625 C 1.925781 -0.691406 2.265625 -0.59375 2.640625 -0.59375 C 3.128906 -0.59375 3.570312 -0.820312 3.96875 -1.28125 C 4.03125 -1.332031 4.117188 -1.300781 4.234375 -1.1875 C 4.242188 -1.175781 4.242188 -1.160156 4.234375 -1.140625 C 3.898438 -0.679688 3.640625 -0.382812 3.453125 -0.25 C 3.140625 -0.03125 2.78125 0.078125 2.375 0.078125 C 2.09375 0.078125 1.820312 0.0195312 1.5625 -0.09375 C 1.03125 -0.320312 0.648438 -0.695312 0.421875 -1.21875 C 0.296875 -1.476562 0.234375 -1.785156 0.234375 -2.140625 C 0.234375 -2.503906 0.328125 -2.851562 0.515625 -3.1875 C 0.703125 -3.53125 0.96875 -3.796875 1.3125 -3.984375 C 1.65625 -4.179688 2.054688 -4.28125 2.515625 -4.28125 C 3.054688 -4.28125 3.546875 -4.023438 3.984375 -3.515625 C 4.191406 -3.253906 4.296875 -3.050781 4.296875 -2.90625 Z M 0.984375 -1.703125 "/></g></g></g><g fill="#000000" fill-opacity="1"><g transform="translate(134.362953, 249.557412)"><g><path d="M 0.40625 -3.453125 L 0.421875 -3.53125 C 0.421875 -3.539062 0.519531 -3.628906 0.71875 -3.796875 C 0.925781 -3.960938 1.109375 -4.09375 1.265625 -4.1875 L 1.484375 -4.1875 C 1.492188 -4.164062 1.5 -4.117188 1.5 -4.046875 L 1.5 -1.359375 C 1.5 -1.179688 1.554688 -1.019531 1.671875 -0.875 C 1.910156 -0.59375 2.242188 -0.453125 2.671875 -0.453125 C 2.960938 -0.453125 3.289062 -0.550781 3.65625 -0.75 L 3.859375 -0.84375 L 3.859375 -3.5625 C 3.859375 -3.769531 3.785156 -3.90625 3.640625 -3.96875 C 3.597656 -3.976562 3.566406 -3.988281 3.546875 -4 C 3.523438 -4.019531 3.515625 -4.054688 3.515625 -4.109375 C 3.515625 -4.160156 3.53125 -4.1875 3.5625 -4.1875 L 4.5625 -4.1875 C 4.570312 -4.1875 4.578125 -3.710938 4.578125 -2.765625 L 4.578125 -1.03125 C 4.578125 -0.875 4.628906 -0.75 4.734375 -0.65625 C 4.753906 -0.632812 4.789062 -0.625 4.84375 -0.625 C 4.894531 -0.625 4.925781 -0.613281 4.9375 -0.59375 C 4.957031 -0.582031 4.96875 -0.550781 4.96875 -0.5 C 4.96875 -0.445312 4.960938 -0.414062 4.953125 -0.40625 L 4.09375 0.046875 C 4.082031 0.0546875 4.046875 0.0625 3.984375 0.0625 C 3.921875 0.0625 3.878906 0.0507812 3.859375 0.03125 C 3.847656 0.0195312 3.84375 -0.015625 3.84375 -0.078125 L 3.84375 -0.46875 C 3.84375 -0.46875 3.820312 -0.445312 3.78125 -0.40625 C 3.226562 -0.0507812 2.769531 0.125 2.40625 0.125 C 2.15625 0.125 1.898438 0.0625 1.640625 -0.0625 C 1.390625 -0.1875 1.179688 -0.359375 1.015625 -0.578125 C 0.859375 -0.796875 0.78125 -1.019531 0.78125 -1.25 L 0.78125 -3.015625 C 0.78125 -3.140625 0.753906 -3.226562 0.703125 -3.28125 C 0.660156 -3.332031 0.609375 -3.359375 0.546875 -3.359375 C 0.492188 -3.367188 0.460938 -3.378906 0.453125 -3.390625 C 0.421875 -3.410156 0.40625 -3.429688 0.40625 -3.453125 Z M 0.40625 -3.453125 "/></g></g></g><g fill="#000000" fill-opacity="1"><g transform="translate(139.947357, 249.557412)"><g/></g></g><g fill="#000000" fill-opacity="1"><g transform="translate(142.512523, 249.557412)"><g><path d="M 1.65625 -7.203125 C 1.6875 -7.203125 1.710938 -7.1875 1.734375 -7.15625 L 6.640625 -1.953125 L 6.671875 -1.953125 L 6.671875 -6.421875 C 6.671875 -6.640625 6.597656 -6.820312 6.453125 -6.96875 C 6.441406 -6.976562 6.414062 -6.988281 6.375 -7 C 6.34375 -7.019531 6.328125 -7.054688 6.328125 -7.109375 C 6.328125 -7.171875 6.347656 -7.203125 6.390625 -7.203125 L 7.828125 -7.203125 C 7.859375 -7.203125 7.875 -7.175781 7.875 -7.125 C 7.875 -7.070312 7.867188 -7.039062 7.859375 -7.03125 C 7.847656 -7.019531 7.828125 -7.007812 7.796875 -7 C 7.773438 -6.988281 7.742188 -6.960938 7.703125 -6.921875 C 7.671875 -6.890625 7.632812 -6.820312 7.59375 -6.71875 C 7.550781 -6.625 7.53125 -6.523438 7.53125 -6.421875 L 7.53125 -0.234375 C 7.53125 -0.128906 7.515625 -0.0625 7.484375 -0.03125 C 7.453125 -0.0078125 7.40625 0 7.34375 0 C 7.289062 0 7.242188 -0.015625 7.203125 -0.046875 L 1.671875 -5.921875 L 1.671875 -0.765625 C 1.671875 -0.546875 1.738281 -0.367188 1.875 -0.234375 C 1.882812 -0.222656 1.90625 -0.207031 1.9375 -0.1875 C 1.976562 -0.175781 2 -0.140625 2 -0.078125 C 2 -0.0234375 1.984375 0 1.953125 0 L 0.53125 0 C 0.488281 0 0.46875 -0.0234375 0.46875 -0.078125 C 0.46875 -0.128906 0.472656 -0.160156 0.484375 -0.171875 C 0.503906 -0.179688 0.523438 -0.191406 0.546875 -0.203125 C 0.566406 -0.210938 0.585938 -0.222656 0.609375 -0.234375 C 0.753906 -0.378906 0.828125 -0.554688 0.828125 -0.765625 L 0.828125 -6.421875 C 0.828125 -6.640625 0.757812 -6.820312 0.625 -6.96875 C 0.613281 -6.976562 0.585938 -6.988281 0.546875 -7 C 0.503906 -7.019531 0.484375 -7.054688 0.484375 -7.109375 C 0.484375 -7.171875 0.503906 -7.203125 0.546875 -7.203125 Z M 1.65625 -7.203125 "/></g></g></g><g fill="#000000" fill-opacity="1"><g transform="translate(151.269982, 249.557412)"><g><path d="M 1.421875 -3.5 C 1.234375 -3.382812 1.09375 -3.226562 1 -3.03125 C 0.914062 -2.832031 0.875 -2.582031 0.875 -2.28125 C 0.875 -1.988281 0.957031 -1.691406 1.125 -1.390625 C 1.289062 -1.085938 1.515625 -0.847656 1.796875 -0.671875 C 2.085938 -0.503906 2.375 -0.421875 2.65625 -0.421875 C 2.945312 -0.421875 3.179688 -0.484375 3.359375 -0.609375 C 3.546875 -0.742188 3.6875 -0.910156 3.78125 -1.109375 C 3.875 -1.316406 3.921875 -1.546875 3.921875 -1.796875 C 3.921875 -2.316406 3.753906 -2.757812 3.421875 -3.125 C 3.097656 -3.5 2.65625 -3.6875 2.09375 -3.6875 C 1.84375 -3.6875 1.617188 -3.625 1.421875 -3.5 Z M 0.890625 -0.53125 C 0.691406 -0.71875 0.53125 -0.941406 0.40625 -1.203125 C 0.289062 -1.472656 0.234375 -1.785156 0.234375 -2.140625 C 0.234375 -2.503906 0.328125 -2.851562 0.515625 -3.1875 C 0.703125 -3.53125 0.96875 -3.796875 1.3125 -3.984375 C 1.65625 -4.179688 2.015625 -4.28125 2.390625 -4.28125 C 3.066406 -4.28125 3.601562 -4.066406 4 -3.640625 C 4.40625 -3.210938 4.609375 -2.691406 4.609375 -2.078125 C 4.617188 -1.472656 4.410156 -0.960938 3.984375 -0.546875 C 3.554688 -0.128906 3.019531 0.078125 2.375 0.078125 C 2.09375 0.078125 1.820312 0.0234375 1.5625 -0.078125 C 1.3125 -0.191406 1.085938 -0.34375 0.890625 -0.53125 Z M 0.890625 -0.53125 "/></g></g></g><g fill="#000000" fill-opacity="1"><g transform="translate(156.436877, 249.557412)"><g><path d="M 4.421875 -4.1875 C 4.460938 -4.1875 4.484375 -4.160156 4.484375 -4.109375 C 4.484375 -4.046875 4.46875 -3.988281 4.4375 -3.9375 L 2.671875 -0.390625 C 2.578125 -0.203125 2.503906 -0.0859375 2.453125 -0.046875 C 2.398438 -0.015625 2.359375 0 2.328125 0 C 2.296875 0 2.265625 -0.00390625 2.234375 -0.015625 C 2.203125 -0.0351562 2.171875 -0.0625 2.140625 -0.09375 C 2.109375 -0.132812 2.082031 -0.164062 2.0625 -0.1875 C 2.050781 -0.21875 2.03125 -0.257812 2 -0.3125 C 1.976562 -0.363281 1.960938 -0.398438 1.953125 -0.421875 L 0.15625 -3.859375 C 0.101562 -3.953125 0.078125 -4.03125 0.078125 -4.09375 C 0.078125 -4.15625 0.0976562 -4.1875 0.140625 -4.1875 L 1.28125 -4.1875 C 1.320312 -4.1875 1.34375 -4.160156 1.34375 -4.109375 C 1.34375 -4.054688 1.320312 -4.019531 1.28125 -4 C 1.164062 -3.945312 1.101562 -3.898438 1.09375 -3.859375 C 1.09375 -3.773438 1.097656 -3.726562 1.109375 -3.71875 L 2.359375 -1.3125 L 2.484375 -1.3125 L 3.6875 -3.71875 C 3.695312 -3.726562 3.703125 -3.757812 3.703125 -3.8125 C 3.703125 -3.882812 3.660156 -3.9375 3.578125 -3.96875 C 3.503906 -4 3.46875 -4.03125 3.46875 -4.0625 C 3.46875 -4.144531 3.488281 -4.1875 3.53125 -4.1875 Z M 4.421875 -4.1875 "/></g></g></g><g fill="#000000" fill-opacity="1"><g transform="translate(161.309319, 249.557412)"><g><path d="M 1.421875 -3.5 C 1.234375 -3.382812 1.09375 -3.226562 1 -3.03125 C 0.914062 -2.832031 0.875 -2.582031 0.875 -2.28125 C 0.875 -1.988281 0.957031 -1.691406 1.125 -1.390625 C 1.289062 -1.085938 1.515625 -0.847656 1.796875 -0.671875 C 2.085938 -0.503906 2.375 -0.421875 2.65625 -0.421875 C 2.945312 -0.421875 3.179688 -0.484375 3.359375 -0.609375 C 3.546875 -0.742188 3.6875 -0.910156 3.78125 -1.109375 C 3.875 -1.316406 3.921875 -1.546875 3.921875 -1.796875 C 3.921875 -2.316406 3.753906 -2.757812 3.421875 -3.125 C 3.097656 -3.5 2.65625 -3.6875 2.09375 -3.6875 C 1.84375 -3.6875 1.617188 -3.625 1.421875 -3.5 Z M 0.890625 -0.53125 C 0.691406 -0.71875 0.53125 -0.941406 0.40625 -1.203125 C 0.289062 -1.472656 0.234375 -1.785156 0.234375 -2.140625 C 0.234375 -2.503906 0.328125 -2.851562 0.515625 -3.1875 C 0.703125 -3.53125 0.96875 -3.796875 1.3125 -3.984375 C 1.65625 -4.179688 2.015625 -4.28125 2.390625 -4.28125 C 3.066406 -4.28125 3.601562 -4.066406 4 -3.640625 C 4.40625 -3.210938 4.609375 -2.691406 4.609375 -2.078125 C 4.617188 -1.472656 4.410156 -0.960938 3.984375 -0.546875 C 3.554688 -0.128906 3.019531 0.078125 2.375 0.078125 C 2.09375 0.078125 1.820312 0.0234375 1.5625 -0.078125 C 1.3125 -0.191406 1.085938 -0.34375 0.890625 -0.53125 Z M 0.890625 -0.53125 "/></g></g></g><g fill="#000000" fill-opacity="1"><g transform="translate(166.476214, 249.557412)"><g/></g></g><g fill="#000000" fill-opacity="1"><g transform="translate(169.041379, 249.557412)"><g><path d="M 0.84375 -0.765625 L 0.84375 -6.421875 C 0.84375 -6.640625 0.773438 -6.820312 0.640625 -6.96875 C 0.628906 -6.976562 0.601562 -6.988281 0.5625 -7 C 0.519531 -7.019531 0.5 -7.054688 0.5 -7.109375 C 0.5 -7.171875 0.519531 -7.203125 0.5625 -7.203125 L 1.984375 -7.203125 C 2.023438 -7.203125 2.046875 -7.175781 2.046875 -7.125 C 2.046875 -7.070312 2.035156 -7.039062 2.015625 -7.03125 C 2.003906 -7.019531 1.988281 -7.007812 1.96875 -7 C 1.945312 -6.988281 1.914062 -6.960938 1.875 -6.921875 C 1.84375 -6.890625 1.804688 -6.820312 1.765625 -6.71875 C 1.722656 -6.625 1.703125 -6.523438 1.703125 -6.421875 L 1.703125 -0.71875 L 4.625 -0.71875 C 4.945312 -0.71875 5.160156 -0.753906 5.265625 -0.828125 C 5.316406 -0.859375 5.359375 -0.894531 5.390625 -0.9375 C 5.421875 -0.988281 5.441406 -1.015625 5.453125 -1.015625 C 5.472656 -1.015625 5.503906 -1.003906 5.546875 -0.984375 C 5.585938 -0.972656 5.609375 -0.960938 5.609375 -0.953125 C 5.609375 -0.941406 5.585938 -0.882812 5.546875 -0.78125 L 5.40625 -0.421875 C 5.351562 -0.296875 5.316406 -0.195312 5.296875 -0.125 C 5.273438 -0.0507812 5.25 -0.0078125 5.21875 0 L 0.5625 0 C 0.519531 0 0.5 -0.0234375 0.5 -0.078125 C 0.5 -0.128906 0.503906 -0.160156 0.515625 -0.171875 C 0.535156 -0.179688 0.554688 -0.191406 0.578125 -0.203125 C 0.597656 -0.210938 0.625 -0.234375 0.65625 -0.265625 C 0.695312 -0.304688 0.738281 -0.375 0.78125 -0.46875 C 0.820312 -0.570312 0.84375 -0.671875 0.84375 -0.765625 Z M 0.84375 -0.765625 "/></g></g></g><g fill="#000000" fill-opacity="1"><g transform="translate(175.074053, 249.557412)"><g><path d="M 1.421875 -3.5 C 1.234375 -3.382812 1.09375 -3.226562 1 -3.03125 C 0.914062 -2.832031 0.875 -2.582031 0.875 -2.28125 C 0.875 -1.988281 0.957031 -1.691406 1.125 -1.390625 C 1.289062 -1.085938 1.515625 -0.847656 1.796875 -0.671875 C 2.085938 -0.503906 2.375 -0.421875 2.65625 -0.421875 C 2.945312 -0.421875 3.179688 -0.484375 3.359375 -0.609375 C 3.546875 -0.742188 3.6875 -0.910156 3.78125 -1.109375 C 3.875 -1.316406 3.921875 -1.546875 3.921875 -1.796875 C 3.921875 -2.316406 3.753906 -2.757812 3.421875 -3.125 C 3.097656 -3.5 2.65625 -3.6875 2.09375 -3.6875 C 1.84375 -3.6875 1.617188 -3.625 1.421875 -3.5 Z M 0.890625 -0.53125 C 0.691406 -0.71875 0.53125 -0.941406 0.40625 -1.203125 C 0.289062 -1.472656 0.234375 -1.785156 0.234375 -2.140625 C 0.234375 -2.503906 0.328125 -2.851562 0.515625 -3.1875 C 0.703125 -3.53125 0.96875 -3.796875 1.3125 -3.984375 C 1.65625 -4.179688 2.015625 -4.28125 2.390625 -4.28125 C 3.066406 -4.28125 3.601562 -4.066406 4 -3.640625 C 4.40625 -3.210938 4.609375 -2.691406 4.609375 -2.078125 C 4.617188 -1.472656 4.410156 -0.960938 3.984375 -0.546875 C 3.554688 -0.128906 3.019531 0.078125 2.375 0.078125 C 2.09375 0.078125 1.820312 0.0234375 1.5625 -0.078125 C 1.3125 -0.191406 1.085938 -0.34375 0.890625 -0.53125 Z M 0.890625 -0.53125 "/></g></g></g><g fill="#000000" fill-opacity="1"><g transform="translate(180.240948, 249.557412)"><g><path d="M 1.421875 -3.5 C 1.234375 -3.382812 1.09375 -3.226562 1 -3.03125 C 0.914062 -2.832031 0.875 -2.582031 0.875 -2.28125 C 0.875 -1.988281 0.957031 -1.691406 1.125 -1.390625 C 1.289062 -1.085938 1.515625 -0.847656 1.796875 -0.671875 C 2.085938 -0.503906 2.375 -0.421875 2.65625 -0.421875 C 2.945312 -0.421875 3.179688 -0.484375 3.359375 -0.609375 C 3.546875 -0.742188 3.6875 -0.910156 3.78125 -1.109375 C 3.875 -1.316406 3.921875 -1.546875 3.921875 -1.796875 C 3.921875 -2.316406 3.753906 -2.757812 3.421875 -3.125 C 3.097656 -3.5 2.65625 -3.6875 2.09375 -3.6875 C 1.84375 -3.6875 1.617188 -3.625 1.421875 -3.5 Z M 0.890625 -0.53125 C 0.691406 -0.71875 0.53125 -0.941406 0.40625 -1.203125 C 0.289062 -1.472656 0.234375 -1.785156 0.234375 -2.140625 C 0.234375 -2.503906 0.328125 -2.851562 0.515625 -3.1875 C 0.703125 -3.53125 0.96875 -3.796875 1.3125 -3.984375 C 1.65625 -4.179688 2.015625 -4.28125 2.390625 -4.28125 C 3.066406 -4.28125 3.601562 -4.066406 4 -3.640625 C 4.40625 -3.210938 4.609375 -2.691406 4.609375 -2.078125 C 4.617188 -1.472656 4.410156 -0.960938 3.984375 -0.546875 C 3.554688 -0.128906 3.019531 0.078125 2.375 0.078125 C 2.09375 0.078125 1.820312 0.0234375 1.5625 -0.078125 C 1.3125 -0.191406 1.085938 -0.34375 0.890625 -0.53125 Z M 0.890625 -0.53125 "/></g></g></g><g fill="#000000" fill-opacity="1"><g transform="translate(185.407843, 249.557412)"><g><path d="M 1.5 -0.765625 L 1.5 -0.578125 C 1.5 -0.515625 1.515625 -0.445312 1.546875 -0.375 C 1.578125 -0.300781 1.632812 -0.25 1.71875 -0.21875 C 1.800781 -0.1875 1.84375 -0.15625 1.84375 -0.125 C 1.84375 -0.0390625 1.820312 0 1.78125 0 L 0.5 0 C 0.457031 0 0.4375 -0.0234375 0.4375 -0.078125 C 0.4375 -0.128906 0.445312 -0.160156 0.46875 -0.171875 C 0.488281 -0.191406 0.515625 -0.207031 0.546875 -0.21875 C 0.585938 -0.238281 0.617188 -0.257812 0.640625 -0.28125 C 0.671875 -0.300781 0.691406 -0.320312 0.703125 -0.34375 C 0.722656 -0.375 0.738281 -0.398438 0.75 -0.421875 C 0.757812 -0.441406 0.765625 -0.46875 0.765625 -0.5 C 0.773438 -0.539062 0.78125 -0.566406 0.78125 -0.578125 L 0.78125 -6.109375 C 0.78125 -6.203125 0.753906 -6.269531 0.703125 -6.3125 C 0.660156 -6.351562 0.613281 -6.375 0.5625 -6.375 C 0.507812 -6.375 0.472656 -6.382812 0.453125 -6.40625 C 0.429688 -6.414062 0.421875 -6.4375 0.421875 -6.46875 L 0.421875 -6.546875 C 0.421875 -6.554688 0.425781 -6.566406 0.4375 -6.578125 C 0.457031 -6.585938 0.46875 -6.59375 0.46875 -6.59375 L 1.265625 -7.1875 C 1.273438 -7.195312 1.304688 -7.203125 1.359375 -7.203125 C 1.410156 -7.203125 1.445312 -7.191406 1.46875 -7.171875 C 1.488281 -7.160156 1.5 -7.125 1.5 -7.0625 L 1.5 -2.34375 L 1.515625 -2.34375 L 2.9375 -3.703125 C 2.988281 -3.753906 3.015625 -3.804688 3.015625 -3.859375 C 3.015625 -3.929688 2.976562 -3.972656 2.90625 -3.984375 C 2.84375 -4.003906 2.8125 -4.03125 2.8125 -4.0625 C 2.8125 -4.144531 2.832031 -4.1875 2.875 -4.1875 L 3.875 -4.1875 C 3.914062 -4.1875 3.9375 -4.160156 3.9375 -4.109375 C 3.9375 -4.054688 3.925781 -4.019531 3.90625 -4 C 3.894531 -3.976562 3.867188 -3.953125 3.828125 -3.921875 C 3.796875 -3.890625 3.769531 -3.867188 3.75 -3.859375 L 2.4375 -2.59375 L 2.4375 -2.578125 L 3.75 -0.703125 C 4 -0.390625 4.125 -0.191406 4.125 -0.109375 C 4.125 -0.0351562 4.101562 0 4.0625 0 L 2.96875 0 C 2.925781 0 2.90625 -0.0234375 2.90625 -0.078125 C 2.90625 -0.128906 2.925781 -0.164062 2.96875 -0.1875 C 3.082031 -0.257812 3.140625 -0.3125 3.140625 -0.34375 C 3.140625 -0.40625 3.128906 -0.441406 3.109375 -0.453125 L 1.953125 -2.125 L 1.921875 -2.125 L 1.5 -1.71875 Z M 1.5 -0.765625 "/></g></g></g><g fill="#000000" fill-opacity="1"><g transform="translate(189.91991, 249.557412)"><g/></g></g><g fill="#000000" fill-opacity="1"><g transform="translate(192.485075, 249.557412)"><g><path d="M 1.65625 -7.203125 C 1.6875 -7.203125 1.710938 -7.1875 1.734375 -7.15625 L 6.640625 -1.953125 L 6.671875 -1.953125 L 6.671875 -6.421875 C 6.671875 -6.640625 6.597656 -6.820312 6.453125 -6.96875 C 6.441406 -6.976562 6.414062 -6.988281 6.375 -7 C 6.34375 -7.019531 6.328125 -7.054688 6.328125 -7.109375 C 6.328125 -7.171875 6.347656 -7.203125 6.390625 -7.203125 L 7.828125 -7.203125 C 7.859375 -7.203125 7.875 -7.175781 7.875 -7.125 C 7.875 -7.070312 7.867188 -7.039062 7.859375 -7.03125 C 7.847656 -7.019531 7.828125 -7.007812 7.796875 -7 C 7.773438 -6.988281 7.742188 -6.960938 7.703125 -6.921875 C 7.671875 -6.890625 7.632812 -6.820312 7.59375 -6.71875 C 7.550781 -6.625 7.53125 -6.523438 7.53125 -6.421875 L 7.53125 -0.234375 C 7.53125 -0.128906 7.515625 -0.0625 7.484375 -0.03125 C 7.453125 -0.0078125 7.40625 0 7.34375 0 C 7.289062 0 7.242188 -0.015625 7.203125 -0.046875 L 1.671875 -5.921875 L 1.671875 -0.765625 C 1.671875 -0.546875 1.738281 -0.367188 1.875 -0.234375 C 1.882812 -0.222656 1.90625 -0.207031 1.9375 -0.1875 C 1.976562 -0.175781 2 -0.140625 2 -0.078125 C 2 -0.0234375 1.984375 0 1.953125 0 L 0.53125 0 C 0.488281 0 0.46875 -0.0234375 0.46875 -0.078125 C 0.46875 -0.128906 0.472656 -0.160156 0.484375 -0.171875 C 0.503906 -0.179688 0.523438 -0.191406 0.546875 -0.203125 C 0.566406 -0.210938 0.585938 -0.222656 0.609375 -0.234375 C 0.753906 -0.378906 0.828125 -0.554688 0.828125 -0.765625 L 0.828125 -6.421875 C 0.828125 -6.640625 0.757812 -6.820312 0.625 -6.96875 C 0.613281 -6.976562 0.585938 -6.988281 0.546875 -7 C 0.503906 -7.019531 0.484375 -7.054688 0.484375 -7.109375 C 0.484375 -7.171875 0.503906 -7.203125 0.546875 -7.203125 Z M 1.65625 -7.203125 "/></g></g></g><g fill="#000000" fill-opacity="1"><g transform="translate(201.242534, 249.557412)"><g><path d="M 0.9375 -1.109375 C 0.9375 -0.910156 1.019531 -0.757812 1.1875 -0.65625 C 1.351562 -0.5625 1.523438 -0.515625 1.703125 -0.515625 C 1.878906 -0.515625 2.007812 -0.519531 2.09375 -0.53125 C 2.1875 -0.550781 2.273438 -0.582031 2.359375 -0.625 C 2.535156 -0.695312 2.6875 -0.769531 2.8125 -0.84375 C 2.8125 -0.84375 2.882812 -0.878906 3.03125 -0.953125 L 2.765625 -2.125 C 2.660156 -2.082031 2.53125 -2.035156 2.375 -1.984375 L 1.953125 -1.859375 C 1.273438 -1.648438 0.9375 -1.398438 0.9375 -1.109375 Z M 2.6875 -2.578125 C 2.59375 -3.378906 2.359375 -3.78125 1.984375 -3.78125 C 1.753906 -3.78125 1.550781 -3.695312 1.375 -3.53125 C 1.207031 -3.363281 1.125 -3.171875 1.125 -2.953125 L 1.171875 -2.765625 C 1.171875 -2.742188 1.140625 -2.707031 1.078125 -2.65625 C 1.023438 -2.613281 0.988281 -2.597656 0.96875 -2.609375 L 0.453125 -3.265625 C 0.453125 -3.304688 0.484375 -3.347656 0.546875 -3.390625 C 0.617188 -3.441406 0.675781 -3.488281 0.71875 -3.53125 L 0.828125 -3.640625 C 0.984375 -3.796875 1.085938 -3.890625 1.140625 -3.921875 L 1.359375 -4.0625 C 1.566406 -4.207031 1.800781 -4.28125 2.0625 -4.28125 C 2.4375 -4.28125 2.722656 -4.175781 2.921875 -3.96875 C 3.054688 -3.820312 3.148438 -3.679688 3.203125 -3.546875 C 3.253906 -3.410156 3.296875 -3.300781 3.328125 -3.21875 C 3.367188 -3.039062 3.410156 -2.832031 3.453125 -2.59375 L 3.5 -2.25 C 3.507812 -2.113281 3.523438 -1.988281 3.546875 -1.875 C 3.566406 -1.757812 3.578125 -1.675781 3.578125 -1.625 C 3.585938 -1.582031 3.601562 -1.507812 3.625 -1.40625 C 3.65625 -1.300781 3.679688 -1.210938 3.703125 -1.140625 C 3.753906 -0.929688 3.820312 -0.773438 3.90625 -0.671875 C 3.988281 -0.566406 4.082031 -0.515625 4.1875 -0.515625 C 4.289062 -0.515625 4.363281 -0.546875 4.40625 -0.609375 C 4.476562 -0.722656 4.53125 -0.78125 4.5625 -0.78125 C 4.582031 -0.78125 4.613281 -0.757812 4.65625 -0.71875 C 4.695312 -0.675781 4.71875 -0.644531 4.71875 -0.625 C 4.71875 -0.601562 4.671875 -0.53125 4.578125 -0.40625 C 4.484375 -0.289062 4.378906 -0.175781 4.265625 -0.0625 C 4.148438 0.0390625 4.066406 0.09375 4.015625 0.09375 C 3.828125 0.09375 3.648438 0.0195312 3.484375 -0.125 C 3.316406 -0.28125 3.210938 -0.4375 3.171875 -0.59375 C 3.078125 -0.507812 2.914062 -0.40625 2.6875 -0.28125 C 2.226562 -0.03125 1.859375 0.09375 1.578125 0.09375 C 1.304688 0.09375 1.078125 0.0546875 0.890625 -0.015625 C 0.703125 -0.0976562 0.546875 -0.222656 0.421875 -0.390625 C 0.296875 -0.554688 0.234375 -0.726562 0.234375 -0.90625 C 0.234375 -1.082031 0.253906 -1.226562 0.296875 -1.34375 C 0.347656 -1.46875 0.410156 -1.570312 0.484375 -1.65625 C 0.566406 -1.75 0.664062 -1.832031 0.78125 -1.90625 C 0.90625 -1.976562 1.023438 -2.039062 1.140625 -2.09375 C 1.398438 -2.195312 1.679688 -2.285156 1.984375 -2.359375 C 2.285156 -2.441406 2.519531 -2.515625 2.6875 -2.578125 Z M 2.6875 -2.578125 "/></g></g></g><g fill="#000000" fill-opacity="1"><g transform="translate(206.400639, 249.557412)"><g/></g></g><g fill="#000000" fill-opacity="1"><g transform="translate(208.965804, 249.557412)"><g><path d="M 1.515625 -0.046875 C 1.429688 -0.0664062 1.335938 -0.09375 1.234375 -0.125 C 1.128906 -0.164062 1.0625 -0.1875 1.03125 -0.1875 L 0.96875 -0.1875 C 0.863281 -0.1875 0.785156 -0.128906 0.734375 -0.015625 C 0.734375 -0.00390625 0.734375 0 0.734375 0 L 0.59375 0 C 0.582031 0 0.570312 -0.00390625 0.5625 -0.015625 L 0.1875 -1.3125 C 0.175781 -1.375 0.222656 -1.40625 0.328125 -1.40625 C 0.367188 -1.40625 0.394531 -1.394531 0.40625 -1.375 C 0.414062 -1.363281 0.425781 -1.351562 0.4375 -1.34375 C 0.445312 -1.34375 0.460938 -1.328125 0.484375 -1.296875 C 0.867188 -0.816406 1.429688 -0.578125 2.171875 -0.578125 C 2.566406 -0.578125 2.894531 -0.679688 3.15625 -0.890625 C 3.414062 -1.097656 3.546875 -1.398438 3.546875 -1.796875 C 3.546875 -2.066406 3.5 -2.269531 3.40625 -2.40625 C 3.320312 -2.539062 3.253906 -2.640625 3.203125 -2.703125 C 3.085938 -2.847656 2.804688 -3.046875 2.359375 -3.296875 C 1.910156 -3.546875 1.550781 -3.769531 1.28125 -3.96875 C 0.582031 -4.476562 0.234375 -5 0.234375 -5.53125 C 0.234375 -6.070312 0.398438 -6.488281 0.734375 -6.78125 C 1.066406 -7.070312 1.507812 -7.21875 2.0625 -7.21875 C 2.375 -7.21875 2.703125 -7.132812 3.046875 -6.96875 C 3.210938 -6.882812 3.332031 -6.828125 3.40625 -6.796875 C 3.476562 -6.773438 3.53125 -6.789062 3.5625 -6.84375 C 3.59375 -6.90625 3.613281 -6.9375 3.625 -6.9375 C 3.75 -6.957031 3.8125 -6.9375 3.8125 -6.875 L 3.953125 -5.46875 C 3.953125 -5.445312 3.882812 -5.4375 3.75 -5.4375 C 3.726562 -5.4375 3.707031 -5.460938 3.6875 -5.515625 C 3.601562 -5.804688 3.394531 -6.050781 3.0625 -6.25 C 2.726562 -6.445312 2.394531 -6.546875 2.0625 -6.546875 C 1.34375 -6.546875 0.984375 -6.253906 0.984375 -5.671875 C 0.984375 -5.242188 1.367188 -4.820312 2.140625 -4.40625 L 2.984375 -3.953125 C 3.492188 -3.671875 3.847656 -3.363281 4.046875 -3.03125 C 4.253906 -2.707031 4.359375 -2.359375 4.359375 -1.984375 L 4.359375 -1.9375 C 4.285156 -1.425781 4.203125 -1.082031 4.109375 -0.90625 C 3.929688 -0.601562 3.6875 -0.363281 3.375 -0.1875 C 3.0625 -0.0078125 2.707031 0.078125 2.3125 0.078125 C 2.09375 0.078125 1.910156 0.0546875 1.765625 0.015625 Z M 1.515625 -0.046875 "/></g></g></g><g fill="#000000" fill-opacity="1"><g transform="translate(213.820667, 249.557412)"><g><path d="M 0.40625 -3.453125 L 0.421875 -3.53125 C 0.421875 -3.539062 0.519531 -3.628906 0.71875 -3.796875 C 0.925781 -3.960938 1.109375 -4.09375 1.265625 -4.1875 L 1.484375 -4.1875 C 1.492188 -4.164062 1.5 -4.117188 1.5 -4.046875 L 1.5 -1.359375 C 1.5 -1.179688 1.554688 -1.019531 1.671875 -0.875 C 1.910156 -0.59375 2.242188 -0.453125 2.671875 -0.453125 C 2.960938 -0.453125 3.289062 -0.550781 3.65625 -0.75 L 3.859375 -0.84375 L 3.859375 -3.5625 C 3.859375 -3.769531 3.785156 -3.90625 3.640625 -3.96875 C 3.597656 -3.976562 3.566406 -3.988281 3.546875 -4 C 3.523438 -4.019531 3.515625 -4.054688 3.515625 -4.109375 C 3.515625 -4.160156 3.53125 -4.1875 3.5625 -4.1875 L 4.5625 -4.1875 C 4.570312 -4.1875 4.578125 -3.710938 4.578125 -2.765625 L 4.578125 -1.03125 C 4.578125 -0.875 4.628906 -0.75 4.734375 -0.65625 C 4.753906 -0.632812 4.789062 -0.625 4.84375 -0.625 C 4.894531 -0.625 4.925781 -0.613281 4.9375 -0.59375 C 4.957031 -0.582031 4.96875 -0.550781 4.96875 -0.5 C 4.96875 -0.445312 4.960938 -0.414062 4.953125 -0.40625 L 4.09375 0.046875 C 4.082031 0.0546875 4.046875 0.0625 3.984375 0.0625 C 3.921875 0.0625 3.878906 0.0507812 3.859375 0.03125 C 3.847656 0.0195312 3.84375 -0.015625 3.84375 -0.078125 L 3.84375 -0.46875 C 3.84375 -0.46875 3.820312 -0.445312 3.78125 -0.40625 C 3.226562 -0.0507812 2.769531 0.125 2.40625 0.125 C 2.15625 0.125 1.898438 0.0625 1.640625 -0.0625 C 1.390625 -0.1875 1.179688 -0.359375 1.015625 -0.578125 C 0.859375 -0.796875 0.78125 -1.019531 0.78125 -1.25 L 0.78125 -3.015625 C 0.78125 -3.140625 0.753906 -3.226562 0.703125 -3.28125 C 0.660156 -3.332031 0.609375 -3.359375 0.546875 -3.359375 C 0.492188 -3.367188 0.460938 -3.378906 0.453125 -3.390625 C 0.421875 -3.410156 0.40625 -3.429688 0.40625 -3.453125 Z M 0.40625 -3.453125 "/></g></g></g><g fill="#000000" fill-opacity="1"><g transform="translate(219.40507, 249.557412)"><g><path d="M 0.9375 -1.109375 C 0.9375 -0.910156 1.019531 -0.757812 1.1875 -0.65625 C 1.351562 -0.5625 1.523438 -0.515625 1.703125 -0.515625 C 1.878906 -0.515625 2.007812 -0.519531 2.09375 -0.53125 C 2.1875 -0.550781 2.273438 -0.582031 2.359375 -0.625 C 2.535156 -0.695312 2.6875 -0.769531 2.8125 -0.84375 C 2.8125 -0.84375 2.882812 -0.878906 3.03125 -0.953125 L 2.765625 -2.125 C 2.660156 -2.082031 2.53125 -2.035156 2.375 -1.984375 L 1.953125 -1.859375 C 1.273438 -1.648438 0.9375 -1.398438 0.9375 -1.109375 Z M 2.6875 -2.578125 C 2.59375 -3.378906 2.359375 -3.78125 1.984375 -3.78125 C 1.753906 -3.78125 1.550781 -3.695312 1.375 -3.53125 C 1.207031 -3.363281 1.125 -3.171875 1.125 -2.953125 L 1.171875 -2.765625 C 1.171875 -2.742188 1.140625 -2.707031 1.078125 -2.65625 C 1.023438 -2.613281 0.988281 -2.597656 0.96875 -2.609375 L 0.453125 -3.265625 C 0.453125 -3.304688 0.484375 -3.347656 0.546875 -3.390625 C 0.617188 -3.441406 0.675781 -3.488281 0.71875 -3.53125 L 0.828125 -3.640625 C 0.984375 -3.796875 1.085938 -3.890625 1.140625 -3.921875 L 1.359375 -4.0625 C 1.566406 -4.207031 1.800781 -4.28125 2.0625 -4.28125 C 2.4375 -4.28125 2.722656 -4.175781 2.921875 -3.96875 C 3.054688 -3.820312 3.148438 -3.679688 3.203125 -3.546875 C 3.253906 -3.410156 3.296875 -3.300781 3.328125 -3.21875 C 3.367188 -3.039062 3.410156 -2.832031 3.453125 -2.59375 L 3.5 -2.25 C 3.507812 -2.113281 3.523438 -1.988281 3.546875 -1.875 C 3.566406 -1.757812 3.578125 -1.675781 3.578125 -1.625 C 3.585938 -1.582031 3.601562 -1.507812 3.625 -1.40625 C 3.65625 -1.300781 3.679688 -1.210938 3.703125 -1.140625 C 3.753906 -0.929688 3.820312 -0.773438 3.90625 -0.671875 C 3.988281 -0.566406 4.082031 -0.515625 4.1875 -0.515625 C 4.289062 -0.515625 4.363281 -0.546875 4.40625 -0.609375 C 4.476562 -0.722656 4.53125 -0.78125 4.5625 -0.78125 C 4.582031 -0.78125 4.613281 -0.757812 4.65625 -0.71875 C 4.695312 -0.675781 4.71875 -0.644531 4.71875 -0.625 C 4.71875 -0.601562 4.671875 -0.53125 4.578125 -0.40625 C 4.484375 -0.289062 4.378906 -0.175781 4.265625 -0.0625 C 4.148438 0.0390625 4.066406 0.09375 4.015625 0.09375 C 3.828125 0.09375 3.648438 0.0195312 3.484375 -0.125 C 3.316406 -0.28125 3.210938 -0.4375 3.171875 -0.59375 C 3.078125 -0.507812 2.914062 -0.40625 2.6875 -0.28125 C 2.226562 -0.03125 1.859375 0.09375 1.578125 0.09375 C 1.304688 0.09375 1.078125 0.0546875 0.890625 -0.015625 C 0.703125 -0.0976562 0.546875 -0.222656 0.421875 -0.390625 C 0.296875 -0.554688 0.234375 -0.726562 0.234375 -0.90625 C 0.234375 -1.082031 0.253906 -1.226562 0.296875 -1.34375 C 0.347656 -1.46875 0.410156 -1.570312 0.484375 -1.65625 C 0.566406 -1.75 0.664062 -1.832031 0.78125 -1.90625 C 0.90625 -1.976562 1.023438 -2.039062 1.140625 -2.09375 C 1.398438 -2.195312 1.679688 -2.285156 1.984375 -2.359375 C 2.285156 -2.441406 2.519531 -2.515625 2.6875 -2.578125 Z M 2.6875 -2.578125 "/></g></g></g><g fill="#000000" fill-opacity="1"><g transform="translate(224.563181, 249.557412)"><g/></g></g><g fill="#000000" fill-opacity="1"><g transform="translate(227.128345, 249.557412)"><g><path d="M 7.5 -7.203125 C 7.53125 -7.203125 7.554688 -7.160156 7.578125 -7.078125 C 7.597656 -7.003906 7.632812 -6.898438 7.6875 -6.765625 C 7.6875 -6.765625 7.734375 -6.648438 7.828125 -6.421875 C 7.867188 -6.316406 7.890625 -6.257812 7.890625 -6.25 C 7.890625 -6.238281 7.867188 -6.222656 7.828125 -6.203125 C 7.785156 -6.191406 7.757812 -6.1875 7.75 -6.1875 C 7.726562 -6.1875 7.703125 -6.207031 7.671875 -6.25 C 7.640625 -6.289062 7.582031 -6.335938 7.5 -6.390625 C 7.425781 -6.453125 7.226562 -6.484375 6.90625 -6.484375 L 4.421875 -6.484375 L 4.421875 -0.765625 C 4.421875 -0.554688 4.492188 -0.378906 4.640625 -0.234375 C 4.648438 -0.222656 4.671875 -0.207031 4.703125 -0.1875 C 4.742188 -0.175781 4.765625 -0.140625 4.765625 -0.078125 C 4.765625 -0.0234375 4.75 0 4.71875 0 L 3.28125 0 C 3.25 0 3.234375 -0.0234375 3.234375 -0.078125 C 3.234375 -0.128906 3.238281 -0.160156 3.25 -0.171875 C 3.257812 -0.179688 3.273438 -0.191406 3.296875 -0.203125 C 3.328125 -0.210938 3.359375 -0.234375 3.390625 -0.265625 C 3.429688 -0.304688 3.472656 -0.375 3.515625 -0.46875 C 3.554688 -0.570312 3.578125 -0.671875 3.578125 -0.765625 L 3.578125 -6.484375 L 1.09375 -6.484375 C 0.6875 -6.484375 0.441406 -6.414062 0.359375 -6.28125 C 0.316406 -6.21875 0.285156 -6.1875 0.265625 -6.1875 C 0.242188 -6.1875 0.210938 -6.191406 0.171875 -6.203125 C 0.128906 -6.222656 0.109375 -6.238281 0.109375 -6.25 C 0.109375 -6.257812 0.128906 -6.316406 0.171875 -6.421875 L 0.3125 -6.765625 C 0.363281 -6.898438 0.398438 -7 0.421875 -7.0625 C 0.441406 -7.132812 0.46875 -7.179688 0.5 -7.203125 Z M 7.5 -7.203125 "/></g></g></g><g fill="#000000" fill-opacity="1"><g transform="translate(235.441928, 249.557412)"><g><path d="M 3.390625 -3.046875 C 3.210938 -3.546875 2.835938 -3.796875 2.265625 -3.796875 C 2.003906 -3.796875 1.765625 -3.722656 1.546875 -3.578125 C 1.328125 -3.441406 1.160156 -3.265625 1.046875 -3.046875 C 0.929688 -2.835938 0.875 -2.632812 0.875 -2.4375 C 0.875 -2.25 0.878906 -2.160156 0.890625 -2.171875 L 3.375 -3.03125 L 3.375 -3.0625 Z M 0.984375 -1.703125 C 1.109375 -1.359375 1.320312 -1.085938 1.625 -0.890625 C 1.925781 -0.691406 2.265625 -0.59375 2.640625 -0.59375 C 3.128906 -0.59375 3.570312 -0.820312 3.96875 -1.28125 C 4.03125 -1.332031 4.117188 -1.300781 4.234375 -1.1875 C 4.242188 -1.175781 4.242188 -1.160156 4.234375 -1.140625 C 3.898438 -0.679688 3.640625 -0.382812 3.453125 -0.25 C 3.140625 -0.03125 2.78125 0.078125 2.375 0.078125 C 2.09375 0.078125 1.820312 0.0195312 1.5625 -0.09375 C 1.03125 -0.320312 0.648438 -0.695312 0.421875 -1.21875 C 0.296875 -1.476562 0.234375 -1.785156 0.234375 -2.140625 C 0.234375 -2.503906 0.328125 -2.851562 0.515625 -3.1875 C 0.703125 -3.53125 0.96875 -3.796875 1.3125 -3.984375 C 1.65625 -4.179688 2.054688 -4.28125 2.515625 -4.28125 C 3.054688 -4.28125 3.546875 -4.023438 3.984375 -3.515625 C 4.191406 -3.253906 4.296875 -3.050781 4.296875 -2.90625 Z M 0.984375 -1.703125 "/></g></g></g><g fill="#000000" fill-opacity="1"><g transform="translate(240.349529, 249.557412)"><g><path d="M 0.40625 -6.46875 L 0.421875 -6.546875 C 0.421875 -6.554688 0.425781 -6.566406 0.4375 -6.578125 C 0.457031 -6.585938 0.46875 -6.59375 0.46875 -6.59375 L 1.265625 -7.1875 C 1.273438 -7.195312 1.289062 -7.203125 1.3125 -7.203125 C 1.4375 -7.203125 1.5 -7.15625 1.5 -7.0625 L 1.5 -0.765625 C 1.5 -0.742188 1.5 -0.710938 1.5 -0.671875 C 1.5 -0.628906 1.5 -0.597656 1.5 -0.578125 C 1.507812 -0.390625 1.566406 -0.273438 1.671875 -0.234375 C 1.785156 -0.191406 1.84375 -0.15625 1.84375 -0.125 C 1.84375 -0.0390625 1.820312 0 1.78125 0 L 0.484375 0 C 0.453125 0 0.4375 -0.0234375 0.4375 -0.078125 C 0.4375 -0.128906 0.445312 -0.160156 0.46875 -0.171875 C 0.488281 -0.191406 0.515625 -0.207031 0.546875 -0.21875 C 0.585938 -0.238281 0.617188 -0.257812 0.640625 -0.28125 C 0.671875 -0.300781 0.691406 -0.320312 0.703125 -0.34375 C 0.722656 -0.375 0.738281 -0.398438 0.75 -0.421875 C 0.757812 -0.441406 0.765625 -0.46875 0.765625 -0.5 C 0.773438 -0.539062 0.78125 -0.566406 0.78125 -0.578125 L 0.78125 -6.109375 C 0.78125 -6.203125 0.753906 -6.269531 0.703125 -6.3125 C 0.660156 -6.351562 0.613281 -6.375 0.5625 -6.375 C 0.507812 -6.375 0.472656 -6.382812 0.453125 -6.40625 C 0.421875 -6.414062 0.40625 -6.4375 0.40625 -6.46875 Z M 0.40625 -6.46875 "/></g></g></g><g fill="#000000" fill-opacity="1"><g transform="translate(242.9938, 249.557412)"><g><path d="M 0.9375 -1.109375 C 0.9375 -0.910156 1.019531 -0.757812 1.1875 -0.65625 C 1.351562 -0.5625 1.523438 -0.515625 1.703125 -0.515625 C 1.878906 -0.515625 2.007812 -0.519531 2.09375 -0.53125 C 2.1875 -0.550781 2.273438 -0.582031 2.359375 -0.625 C 2.535156 -0.695312 2.6875 -0.769531 2.8125 -0.84375 C 2.8125 -0.84375 2.882812 -0.878906 3.03125 -0.953125 L 2.765625 -2.125 C 2.660156 -2.082031 2.53125 -2.035156 2.375 -1.984375 L 1.953125 -1.859375 C 1.273438 -1.648438 0.9375 -1.398438 0.9375 -1.109375 Z M 2.6875 -2.578125 C 2.59375 -3.378906 2.359375 -3.78125 1.984375 -3.78125 C 1.753906 -3.78125 1.550781 -3.695312 1.375 -3.53125 C 1.207031 -3.363281 1.125 -3.171875 1.125 -2.953125 L 1.171875 -2.765625 C 1.171875 -2.742188 1.140625 -2.707031 1.078125 -2.65625 C 1.023438 -2.613281 0.988281 -2.597656 0.96875 -2.609375 L 0.453125 -3.265625 C 0.453125 -3.304688 0.484375 -3.347656 0.546875 -3.390625 C 0.617188 -3.441406 0.675781 -3.488281 0.71875 -3.53125 L 0.828125 -3.640625 C 0.984375 -3.796875 1.085938 -3.890625 1.140625 -3.921875 L 1.359375 -4.0625 C 1.566406 -4.207031 1.800781 -4.28125 2.0625 -4.28125 C 2.4375 -4.28125 2.722656 -4.175781 2.921875 -3.96875 C 3.054688 -3.820312 3.148438 -3.679688 3.203125 -3.546875 C 3.253906 -3.410156 3.296875 -3.300781 3.328125 -3.21875 C 3.367188 -3.039062 3.410156 -2.832031 3.453125 -2.59375 L 3.5 -2.25 C 3.507812 -2.113281 3.523438 -1.988281 3.546875 -1.875 C 3.566406 -1.757812 3.578125 -1.675781 3.578125 -1.625 C 3.585938 -1.582031 3.601562 -1.507812 3.625 -1.40625 C 3.65625 -1.300781 3.679688 -1.210938 3.703125 -1.140625 C 3.753906 -0.929688 3.820312 -0.773438 3.90625 -0.671875 C 3.988281 -0.566406 4.082031 -0.515625 4.1875 -0.515625 C 4.289062 -0.515625 4.363281 -0.546875 4.40625 -0.609375 C 4.476562 -0.722656 4.53125 -0.78125 4.5625 -0.78125 C 4.582031 -0.78125 4.613281 -0.757812 4.65625 -0.71875 C 4.695312 -0.675781 4.71875 -0.644531 4.71875 -0.625 C 4.71875 -0.601562 4.671875 -0.53125 4.578125 -0.40625 C 4.484375 -0.289062 4.378906 -0.175781 4.265625 -0.0625 C 4.148438 0.0390625 4.066406 0.09375 4.015625 0.09375 C 3.828125 0.09375 3.648438 0.0195312 3.484375 -0.125 C 3.316406 -0.28125 3.210938 -0.4375 3.171875 -0.59375 C 3.078125 -0.507812 2.914062 -0.40625 2.6875 -0.28125 C 2.226562 -0.03125 1.859375 0.09375 1.578125 0.09375 C 1.304688 0.09375 1.078125 0.0546875 0.890625 -0.015625 C 0.703125 -0.0976562 0.546875 -0.222656 0.421875 -0.390625 C 0.296875 -0.554688 0.234375 -0.726562 0.234375 -0.90625 C 0.234375 -1.082031 0.253906 -1.226562 0.296875 -1.34375 C 0.347656 -1.46875 0.410156 -1.570312 0.484375 -1.65625 C 0.566406 -1.75 0.664062 -1.832031 0.78125 -1.90625 C 0.90625 -1.976562 1.023438 -2.039062 1.140625 -2.09375 C 1.398438 -2.195312 1.679688 -2.285156 1.984375 -2.359375 C 2.285156 -2.441406 2.519531 -2.515625 2.6875 -2.578125 Z M 2.6875 -2.578125 "/></g></g></g><g fill="#000000" fill-opacity="1"><g transform="translate(248.151906, 249.557412)"><g><path d="M 1.46875 -6.375 L 1.46875 -6.015625 C 1.46875 -5.992188 1.457031 -5.972656 1.4375 -5.953125 C 1.425781 -5.941406 1.363281 -5.914062 1.25 -5.875 C 1.144531 -5.832031 1.066406 -5.796875 1.015625 -5.765625 C 0.960938 -5.742188 0.914062 -5.726562 0.875 -5.71875 C 0.84375 -5.707031 0.820312 -5.707031 0.8125 -5.71875 C 0.800781 -5.726562 0.796875 -5.785156 0.796875 -5.890625 L 0.796875 -6.3125 C 0.796875 -6.3125 0.796875 -6.320312 0.796875 -6.34375 C 0.796875 -6.363281 0.796875 -6.375 0.796875 -6.375 C 0.796875 -6.382812 0.796875 -6.394531 0.796875 -6.40625 C 0.796875 -6.414062 0.800781 -6.425781 0.8125 -6.4375 C 0.832031 -6.445312 0.894531 -6.472656 1 -6.515625 C 1.113281 -6.554688 1.195312 -6.59375 1.25 -6.625 C 1.363281 -6.675781 1.425781 -6.695312 1.4375 -6.6875 C 1.457031 -6.675781 1.46875 -6.570312 1.46875 -6.375 Z M 0.46875 0 C 0.425781 0 0.40625 -0.0234375 0.40625 -0.078125 C 0.40625 -0.128906 0.414062 -0.160156 0.4375 -0.171875 C 0.46875 -0.191406 0.5 -0.207031 0.53125 -0.21875 C 0.675781 -0.28125 0.75 -0.421875 0.75 -0.640625 L 0.75 -3.09375 C 0.75 -3.1875 0.722656 -3.253906 0.671875 -3.296875 C 0.628906 -3.335938 0.582031 -3.359375 0.53125 -3.359375 C 0.476562 -3.359375 0.441406 -3.363281 0.421875 -3.375 C 0.398438 -3.394531 0.390625 -3.425781 0.390625 -3.46875 C 0.390625 -3.519531 0.390625 -3.546875 0.390625 -3.546875 C 0.398438 -3.554688 0.410156 -3.566406 0.421875 -3.578125 C 0.429688 -3.585938 0.441406 -3.59375 0.453125 -3.59375 L 1.234375 -4.171875 C 1.253906 -4.191406 1.269531 -4.195312 1.28125 -4.1875 C 1.300781 -4.175781 1.335938 -4.160156 1.390625 -4.140625 C 1.453125 -4.128906 1.484375 -4.097656 1.484375 -4.046875 L 1.484375 -0.625 C 1.484375 -0.414062 1.554688 -0.28125 1.703125 -0.21875 C 1.785156 -0.1875 1.828125 -0.15625 1.828125 -0.125 C 1.828125 -0.0390625 1.804688 0 1.765625 0 Z M 0.46875 0 "/></g></g></g></svg>